<svg width="524" height="234" viewBox="0 0 524 234" fill="none" xmlns="http://www.w3.org/2000/svg">
<g filter="url(#filter0_g_74_470)">
<mask id="path-1-outside-1_74_470" maskUnits="userSpaceOnUse" x="21.2323" y="23.8355" width="480.333" height="174.487" fill="black">
<rect fill="white" x="21.2323" y="23.8355" width="480.333" height="174.487"/>
<path d="M45.8452 131.435L46.4191 133.856C45.7037 134.372 45.0132 134.811 44.3474 135.171C43.6816 135.531 43.1246 135.923 42.6762 136.347C41.6557 137.282 41.3529 138.625 41.768 140.376L52.0104 183.579C52.4254 185.329 53.2988 186.393 54.6306 186.771C55.249 186.942 55.9365 187.039 56.693 187.062C57.4496 187.085 58.277 187.163 59.1754 187.297L59.7493 189.717L37.635 194.96L37.0611 192.539C37.7765 192.023 38.4671 191.585 39.1329 191.225C39.7986 190.865 40.3694 190.47 40.8451 190.039C41.893 189.097 42.2094 187.751 41.7944 186.001L31.5519 142.798C31.1369 141.047 30.2498 139.986 28.8907 139.615C28.2723 139.444 27.5848 139.347 26.8283 139.324C26.0717 139.301 25.2579 139.22 24.3869 139.08L23.813 136.659L45.8452 131.435ZM95.7154 159.003L97.9102 119.092L116.332 114.725L116.906 117.145C116.327 117.629 115.732 118.045 115.121 118.392C114.504 118.711 113.964 119.056 113.503 119.425C112.497 120.299 112.166 121.461 112.509 122.911L122.907 166.77C123.309 168.466 124.176 169.503 125.508 169.881C126.099 170.058 126.763 170.175 127.498 170.232C128.234 170.289 129.024 170.39 129.867 170.537L130.441 172.958L108.983 178.045L108.409 175.624C108.988 175.14 109.566 174.715 110.143 174.347C110.748 173.972 111.274 173.573 111.723 173.149C112.737 172.186 113.046 170.871 112.65 169.202L102.009 124.317L101.845 124.356L99.5921 165.668L95.7154 159.003ZM65.986 137.061L75.4017 176.776C75.9075 178.91 76.8933 180.265 78.359 180.842C79.0242 181.089 79.7415 181.251 80.511 181.328C81.3014 181.372 82.108 181.484 82.9308 181.665L83.5047 184.085L67.0523 187.986L66.4785 185.565C67.0571 185.081 67.6656 184.663 68.304 184.309C68.936 183.928 69.4801 183.481 69.9363 182.969C70.9935 181.823 71.2627 180.155 70.7439 177.967L60.8905 136.405L65.986 137.061ZM65.4109 133.904C59.1143 133.056 55.2454 132.457 53.8042 132.105L53.2304 129.685L71.7341 125.298L99.2662 171.422L98.7673 180.467L93.9259 181.615L65.4109 133.904ZM161.43 120.153C159.504 112.03 154.767 108.863 147.217 110.652C146.014 110.938 144.967 111.273 144.075 111.657L143.288 108.334L146.857 107.488C157.579 104.946 165.188 106.089 169.684 110.916C171.266 112.592 172.348 114.661 172.932 117.123C173.509 119.557 173.57 121.825 173.115 123.926C172.687 126.021 171.75 127.977 170.302 129.793C167.186 133.71 162.209 136.479 155.371 138.1L150.612 139.228L149.882 136.151C154.861 134.971 158.274 133.223 160.123 130.907C162.09 128.36 162.526 124.776 161.43 120.153ZM151.389 157.678C151.837 159.565 152.21 160.835 152.509 161.486C152.828 162.103 153.263 162.535 153.812 162.78C154.355 162.998 154.977 163.125 155.679 163.161C156.375 163.169 157.125 163.165 157.929 163.148C158.728 163.103 159.521 163.16 160.31 163.32L160.884 165.74L137.703 171.236L137.129 168.815C137.516 168.377 137.981 168.021 138.523 167.748C139.092 167.469 139.628 167.169 140.129 166.847C141.345 166.126 141.902 165.185 141.8 164.025C141.692 162.837 141.463 161.505 141.113 160.028L131.95 121.379C131.23 118.343 130.447 116.622 129.599 116.216C128.915 115.887 128.023 115.723 126.926 115.723C125.849 115.69 125.025 115.567 124.455 115.356L123.881 112.935L139.882 109.141L151.389 157.678ZM212.297 154.851C205.178 156.019 198.641 154.218 192.686 149.447C186.906 144.809 183.04 138.373 181.088 130.14C179.149 121.961 179.721 114.502 182.803 107.763C185.983 100.826 191.016 96.2819 197.901 94.1295L198.699 97.4938C194.776 98.8574 192.259 101.707 191.149 106.044C189.93 111.013 190.419 118.134 192.617 127.406C195.846 141.028 200.288 148.858 205.943 150.898C207.708 151.519 209.557 151.702 211.49 151.446L212.297 154.851ZM214.895 150.639C220.873 148.557 223.572 142.76 222.993 133.249C222.797 129.742 222.122 125.554 220.968 120.685C217.751 107.118 213.316 99.3153 207.661 97.2759C205.896 96.6543 204.044 96.4579 202.104 96.6865L201.297 93.2811C208.471 92.1005 215.018 93.8849 220.94 98.6345C226.754 103.294 230.633 109.727 232.579 117.932C234.524 126.138 233.945 133.628 230.842 140.401C227.683 147.304 222.633 151.838 215.693 154.003L214.895 150.639ZM253.941 82.1004C269.997 78.2939 279.173 81.232 281.468 90.9147C282.402 94.8535 281.73 98.4794 279.454 101.793C277.066 105.248 273.286 107.704 268.114 109.161L268.152 109.325C271.159 109.335 273.701 110.249 275.779 112.067C276.872 113.022 278.209 114.64 279.791 116.923C281.365 119.179 282.615 120.977 283.54 122.318C284.458 123.631 285.343 124.808 286.197 125.848C288.111 128.196 289.561 129.254 290.545 129.02C290.956 128.923 291.269 128.661 291.486 128.234C291.696 127.78 291.896 127.285 292.087 126.748C292.656 125.371 293.282 124.601 293.966 124.439C294.048 124.42 294.259 124.457 294.599 124.549C294.932 124.615 295.151 124.866 295.254 125.304C295.358 125.742 295.373 126.229 295.298 126.767C294.329 129.626 293.539 131.532 292.927 132.486C291.627 134.556 289.937 135.838 287.859 136.331C285.807 136.817 284.088 136.878 282.702 136.513C281.343 136.142 280.123 135.507 279.043 134.607C277.957 133.681 276.982 132.554 276.118 131.227C275.282 129.894 274.471 128.483 273.685 126.994C272.926 125.499 272.163 123.989 271.398 122.466C270.632 120.943 269.791 119.525 268.872 118.212C266.788 115.268 264.447 113.497 261.85 112.9C261.204 112.735 260.432 112.586 259.533 112.452L258.736 109.088C266.477 107.253 270.652 103.966 271.262 99.2279C271.452 97.5938 271.304 95.7511 270.818 93.6996C269.943 90.0071 268.181 87.3912 265.534 85.8521C262.887 84.313 259.334 84.0719 254.876 85.1289C254.083 85.317 253.518 85.4942 253.182 85.6605L252.423 82.4603L253.941 82.1004ZM260.525 131.804C260.953 133.609 261.309 134.868 261.593 135.581C261.878 136.294 262.251 136.769 262.711 137.006C263.199 137.237 263.74 137.383 264.332 137.445C264.918 137.479 265.528 137.494 266.162 137.488C266.796 137.482 267.412 137.581 268.01 137.787L268.584 140.207L246.839 145.362L246.265 142.942C246.597 142.516 247.034 142.167 247.576 141.894C248.118 141.621 248.654 141.321 249.183 140.993C250.453 140.259 251.038 139.311 250.936 138.151C250.828 136.963 250.598 135.631 250.248 134.154L241.085 95.5052C240.366 92.4691 239.582 90.7481 238.735 90.3423C238.05 90.0135 237.159 89.8492 236.061 89.8495C234.984 89.8159 234.161 89.6933 233.591 89.4818L233.017 87.0612L249.018 83.2676L260.525 131.804ZM313.801 67.9088L325.396 116.815C325.908 118.975 326.472 120.315 327.086 120.834C327.693 121.326 328.211 121.622 328.64 121.722C329.089 121.789 329.573 121.819 330.091 121.812C331.57 121.837 332.717 121.984 333.532 122.253L334.106 124.673L311.048 130.14L310.474 127.719C310.985 127.194 311.69 126.694 312.589 126.221C313.509 125.714 314.141 125.333 314.485 125.078C314.856 124.817 315.147 124.459 315.357 124.005C315.737 123.048 315.664 121.462 315.139 119.246L303.544 70.3405L313.801 67.9088ZM325.987 65.0199C327.108 64.754 328.933 64.1047 331.462 63.0719L336.063 82.4783L333.273 83.1397C332.643 82.1911 332.042 81.1781 331.469 80.1006C330.917 78.9893 330.33 77.9151 329.708 76.878C329.08 75.8135 328.411 74.8167 327.699 73.8875C326.981 72.931 326.159 72.1437 325.233 71.5256C323.176 70.1641 320.767 69.8108 318.004 70.4658L317.207 67.1015L325.987 65.0199ZM285.715 73.9174C287.125 74.0164 288.172 73.9849 288.856 73.8228L300.139 71.1479L300.937 74.5122C296.998 75.446 294.639 77.9263 293.861 81.9533C293.476 83.8645 293.284 85.8599 293.286 87.9395C293.282 89.9918 293.222 91.5661 293.106 92.6624L290.234 93.3433L285.653 74.0189L285.715 73.9174ZM366.316 97.493L353.844 100.45L353.975 96.4322L364.191 94.0102L366.316 97.493ZM352.824 76.7713L350.01 107.859C349.739 110.494 349.764 112.424 350.083 113.649C350.395 114.846 350.775 115.593 351.221 115.892C351.668 116.191 352.197 116.354 352.811 116.382C353.424 116.41 354.113 116.391 354.877 116.325C355.642 116.26 356.452 116.328 357.309 116.529L357.902 119.032L340.055 123.263L339.462 120.76C339.958 120.296 340.498 119.893 341.082 119.553C341.666 119.212 342.216 118.85 342.732 118.468C343.929 117.549 344.577 116.442 344.675 115.147L348.786 70.7083L352.824 76.7713ZM349.23 66.183C347.63 66.0135 346.508 65.7305 345.865 65.334C345.784 64.7466 345.726 64.197 345.691 63.6852C345.677 63.1396 345.653 62.6109 345.618 62.0991C345.604 61.5535 345.613 61.1036 345.645 60.7494C350.583 58.4232 353.462 57.1629 354.282 56.9683C354.967 57.2972 355.704 58.0323 356.495 59.1738L386.286 104.589C387.277 106.087 388.445 106.995 389.791 107.311C390.403 107.455 391.033 107.551 391.68 107.6C392.348 107.615 393.063 107.706 393.824 107.872L394.418 110.375L372.221 115.637L371.628 113.134C372.186 112.684 372.794 112.323 373.451 112.052C374.103 111.753 374.699 111.467 375.241 111.194C376.428 110.595 376.912 109.83 376.691 108.9C376.496 108.08 375.315 106.02 373.146 102.721C370.977 99.4215 369.053 96.4832 367.373 93.9059C362.681 86.669 358.045 79.4191 353.463 72.1563L349.23 66.183ZM432.979 78.1786L426.122 49.2536C425.771 47.7766 424.819 46.8036 423.263 46.3346C422.583 46.1491 421.828 46.0103 420.997 45.9183C420.194 45.8199 419.384 45.6941 418.568 45.541L417.994 43.1203L435.144 39.0544L435.718 41.4751C435.112 41.9655 434.472 42.4349 433.798 42.8835C433.152 43.3257 432.581 43.7789 432.084 44.2433C430.904 45.3608 430.49 46.658 430.84 48.135L439.448 84.4451L432.979 78.1786ZM396.027 63.972L404.548 99.9128C404.904 101.417 405.881 102.37 407.479 102.771C408.192 102.978 408.992 103.12 409.877 103.199C410.79 103.272 411.723 103.369 412.676 103.489L413.25 105.91L395.197 110.19L394.623 107.769C395.311 107.259 396.006 106.777 396.707 106.322C397.408 105.867 398.017 105.39 398.535 104.892C399.748 103.795 400.18 102.508 399.829 101.031L389.85 58.9363L396.027 63.972ZM394.985 58.8456C391.241 56.093 387.802 54.6261 384.668 54.4446C383.844 54.38 383.033 54.3122 382.236 54.2411L381.662 51.8204L397.663 48.0269L440.82 90.2301L442.95 99.2153L436.919 100.645L394.985 58.8456ZM467.248 31.53L478.842 80.4358C479.354 82.5967 479.918 83.9365 480.532 84.4554C481.139 84.9469 481.657 85.243 482.086 85.3437C482.535 85.4105 483.019 85.4403 483.537 85.433C485.016 85.4578 486.163 85.6048 486.978 85.8738L487.552 88.2945L464.494 93.761L463.92 91.3403C464.431 90.8148 465.136 90.3154 466.035 89.8423C466.955 89.3353 467.587 88.9544 467.931 88.6995C468.302 88.4381 468.593 88.0802 468.803 87.626C469.183 86.6692 469.11 85.0831 468.585 82.8676L456.99 33.9618L467.248 31.53ZM479.433 28.6411C480.554 28.3753 482.379 27.7259 484.908 26.6931L489.509 46.0995L486.719 46.761C486.09 45.8124 485.488 44.7993 484.915 43.7219C484.363 42.6106 483.776 41.5363 483.154 40.4992C482.526 39.4347 481.857 38.4379 481.145 37.5087C480.427 36.5522 479.605 35.7649 478.679 35.1468C476.622 33.7853 474.213 33.4321 471.451 34.087L470.653 30.7227L479.433 28.6411ZM439.161 37.5387C440.572 37.6377 441.619 37.6061 442.302 37.444L453.585 34.7691L454.383 38.1334C450.444 39.0672 448.085 41.5476 447.307 45.5745C446.922 47.4857 446.731 49.4812 446.732 51.5608C446.728 53.613 446.668 55.1873 446.552 56.2836L443.68 56.9645L439.099 37.6402L439.161 37.5387Z"/>
</mask>
<path d="M45.8452 131.435L46.4191 133.856C45.7037 134.372 45.0132 134.811 44.3474 135.171C43.6816 135.531 43.1246 135.923 42.6762 136.347C41.6557 137.282 41.3529 138.625 41.768 140.376L52.0104 183.579C52.4254 185.329 53.2988 186.393 54.6306 186.771C55.249 186.942 55.9365 187.039 56.693 187.062C57.4496 187.085 58.277 187.163 59.1754 187.297L59.7493 189.717L37.635 194.96L37.0611 192.539C37.7765 192.023 38.4671 191.585 39.1329 191.225C39.7986 190.865 40.3694 190.47 40.8451 190.039C41.893 189.097 42.2094 187.751 41.7944 186.001L31.5519 142.798C31.1369 141.047 30.2498 139.986 28.8907 139.615C28.2723 139.444 27.5848 139.347 26.8283 139.324C26.0717 139.301 25.2579 139.22 24.3869 139.08L23.813 136.659L45.8452 131.435ZM95.7154 159.003L97.9102 119.092L116.332 114.725L116.906 117.145C116.327 117.629 115.732 118.045 115.121 118.392C114.504 118.711 113.964 119.056 113.503 119.425C112.497 120.299 112.166 121.461 112.509 122.911L122.907 166.77C123.309 168.466 124.176 169.503 125.508 169.881C126.099 170.058 126.763 170.175 127.498 170.232C128.234 170.289 129.024 170.39 129.867 170.537L130.441 172.958L108.983 178.045L108.409 175.624C108.988 175.14 109.566 174.715 110.143 174.347C110.748 173.972 111.274 173.573 111.723 173.149C112.737 172.186 113.046 170.871 112.65 169.202L102.009 124.317L101.845 124.356L99.5921 165.668L95.7154 159.003ZM65.986 137.061L75.4017 176.776C75.9075 178.91 76.8933 180.265 78.359 180.842C79.0242 181.089 79.7415 181.251 80.511 181.328C81.3014 181.372 82.108 181.484 82.9308 181.665L83.5047 184.085L67.0523 187.986L66.4785 185.565C67.0571 185.081 67.6656 184.663 68.304 184.309C68.936 183.928 69.4801 183.481 69.9363 182.969C70.9935 181.823 71.2627 180.155 70.7439 177.967L60.8905 136.405L65.986 137.061ZM65.4109 133.904C59.1143 133.056 55.2454 132.457 53.8042 132.105L53.2304 129.685L71.7341 125.298L99.2662 171.422L98.7673 180.467L93.9259 181.615L65.4109 133.904ZM161.43 120.153C159.504 112.03 154.767 108.863 147.217 110.652C146.014 110.938 144.967 111.273 144.075 111.657L143.288 108.334L146.857 107.488C157.579 104.946 165.188 106.089 169.684 110.916C171.266 112.592 172.348 114.661 172.932 117.123C173.509 119.557 173.57 121.825 173.115 123.926C172.687 126.021 171.75 127.977 170.302 129.793C167.186 133.71 162.209 136.479 155.371 138.1L150.612 139.228L149.882 136.151C154.861 134.971 158.274 133.223 160.123 130.907C162.09 128.36 162.526 124.776 161.43 120.153ZM151.389 157.678C151.837 159.565 152.21 160.835 152.509 161.486C152.828 162.103 153.263 162.535 153.812 162.78C154.355 162.998 154.977 163.125 155.679 163.161C156.375 163.169 157.125 163.165 157.929 163.148C158.728 163.103 159.521 163.16 160.31 163.32L160.884 165.74L137.703 171.236L137.129 168.815C137.516 168.377 137.981 168.021 138.523 167.748C139.092 167.469 139.628 167.169 140.129 166.847C141.345 166.126 141.902 165.185 141.8 164.025C141.692 162.837 141.463 161.505 141.113 160.028L131.95 121.379C131.23 118.343 130.447 116.622 129.599 116.216C128.915 115.887 128.023 115.723 126.926 115.723C125.849 115.69 125.025 115.567 124.455 115.356L123.881 112.935L139.882 109.141L151.389 157.678ZM212.297 154.851C205.178 156.019 198.641 154.218 192.686 149.447C186.906 144.809 183.04 138.373 181.088 130.14C179.149 121.961 179.721 114.502 182.803 107.763C185.983 100.826 191.016 96.2819 197.901 94.1295L198.699 97.4938C194.776 98.8574 192.259 101.707 191.149 106.044C189.93 111.013 190.419 118.134 192.617 127.406C195.846 141.028 200.288 148.858 205.943 150.898C207.708 151.519 209.557 151.702 211.49 151.446L212.297 154.851ZM214.895 150.639C220.873 148.557 223.572 142.76 222.993 133.249C222.797 129.742 222.122 125.554 220.968 120.685C217.751 107.118 213.316 99.3153 207.661 97.2759C205.896 96.6543 204.044 96.4579 202.104 96.6865L201.297 93.2811C208.471 92.1005 215.018 93.8849 220.94 98.6345C226.754 103.294 230.633 109.727 232.579 117.932C234.524 126.138 233.945 133.628 230.842 140.401C227.683 147.304 222.633 151.838 215.693 154.003L214.895 150.639ZM253.941 82.1004C269.997 78.2939 279.173 81.232 281.468 90.9147C282.402 94.8535 281.73 98.4794 279.454 101.793C277.066 105.248 273.286 107.704 268.114 109.161L268.152 109.325C271.159 109.335 273.701 110.249 275.779 112.067C276.872 113.022 278.209 114.64 279.791 116.923C281.365 119.179 282.615 120.977 283.54 122.318C284.458 123.631 285.343 124.808 286.197 125.848C288.111 128.196 289.561 129.254 290.545 129.02C290.956 128.923 291.269 128.661 291.486 128.234C291.696 127.78 291.896 127.285 292.087 126.748C292.656 125.371 293.282 124.601 293.966 124.439C294.048 124.42 294.259 124.457 294.599 124.549C294.932 124.615 295.151 124.866 295.254 125.304C295.358 125.742 295.373 126.229 295.298 126.767C294.329 129.626 293.539 131.532 292.927 132.486C291.627 134.556 289.937 135.838 287.859 136.331C285.807 136.817 284.088 136.878 282.702 136.513C281.343 136.142 280.123 135.507 279.043 134.607C277.957 133.681 276.982 132.554 276.118 131.227C275.282 129.894 274.471 128.483 273.685 126.994C272.926 125.499 272.163 123.989 271.398 122.466C270.632 120.943 269.791 119.525 268.872 118.212C266.788 115.268 264.447 113.497 261.85 112.9C261.204 112.735 260.432 112.586 259.533 112.452L258.736 109.088C266.477 107.253 270.652 103.966 271.262 99.2279C271.452 97.5938 271.304 95.7511 270.818 93.6996C269.943 90.0071 268.181 87.3912 265.534 85.8521C262.887 84.313 259.334 84.0719 254.876 85.1289C254.083 85.317 253.518 85.4942 253.182 85.6605L252.423 82.4603L253.941 82.1004ZM260.525 131.804C260.953 133.609 261.309 134.868 261.593 135.581C261.878 136.294 262.251 136.769 262.711 137.006C263.199 137.237 263.74 137.383 264.332 137.445C264.918 137.479 265.528 137.494 266.162 137.488C266.796 137.482 267.412 137.581 268.01 137.787L268.584 140.207L246.839 145.362L246.265 142.942C246.597 142.516 247.034 142.167 247.576 141.894C248.118 141.621 248.654 141.321 249.183 140.993C250.453 140.259 251.038 139.311 250.936 138.151C250.828 136.963 250.598 135.631 250.248 134.154L241.085 95.5052C240.366 92.4691 239.582 90.7481 238.735 90.3423C238.05 90.0135 237.159 89.8492 236.061 89.8495C234.984 89.8159 234.161 89.6933 233.591 89.4818L233.017 87.0612L249.018 83.2676L260.525 131.804ZM313.801 67.9088L325.396 116.815C325.908 118.975 326.472 120.315 327.086 120.834C327.693 121.326 328.211 121.622 328.64 121.722C329.089 121.789 329.573 121.819 330.091 121.812C331.57 121.837 332.717 121.984 333.532 122.253L334.106 124.673L311.048 130.14L310.474 127.719C310.985 127.194 311.69 126.694 312.589 126.221C313.509 125.714 314.141 125.333 314.485 125.078C314.856 124.817 315.147 124.459 315.357 124.005C315.737 123.048 315.664 121.462 315.139 119.246L303.544 70.3405L313.801 67.9088ZM325.987 65.0199C327.108 64.754 328.933 64.1047 331.462 63.0719L336.063 82.4783L333.273 83.1397C332.643 82.1911 332.042 81.1781 331.469 80.1006C330.917 78.9893 330.33 77.9151 329.708 76.878C329.08 75.8135 328.411 74.8167 327.699 73.8875C326.981 72.931 326.159 72.1437 325.233 71.5256C323.176 70.1641 320.767 69.8108 318.004 70.4658L317.207 67.1015L325.987 65.0199ZM285.715 73.9174C287.125 74.0164 288.172 73.9849 288.856 73.8228L300.139 71.1479L300.937 74.5122C296.998 75.446 294.639 77.9263 293.861 81.9533C293.476 83.8645 293.284 85.8599 293.286 87.9395C293.282 89.9918 293.222 91.5661 293.106 92.6624L290.234 93.3433L285.653 74.0189L285.715 73.9174ZM366.316 97.493L353.844 100.45L353.975 96.4322L364.191 94.0102L366.316 97.493ZM352.824 76.7713L350.01 107.859C349.739 110.494 349.764 112.424 350.083 113.649C350.395 114.846 350.775 115.593 351.221 115.892C351.668 116.191 352.197 116.354 352.811 116.382C353.424 116.41 354.113 116.391 354.877 116.325C355.642 116.26 356.452 116.328 357.309 116.529L357.902 119.032L340.055 123.263L339.462 120.76C339.958 120.296 340.498 119.893 341.082 119.553C341.666 119.212 342.216 118.85 342.732 118.468C343.929 117.549 344.577 116.442 344.675 115.147L348.786 70.7083L352.824 76.7713ZM349.23 66.183C347.63 66.0135 346.508 65.7305 345.865 65.334C345.784 64.7466 345.726 64.197 345.691 63.6852C345.677 63.1396 345.653 62.6109 345.618 62.0991C345.604 61.5535 345.613 61.1036 345.645 60.7494C350.583 58.4232 353.462 57.1629 354.282 56.9683C354.967 57.2972 355.704 58.0323 356.495 59.1738L386.286 104.589C387.277 106.087 388.445 106.995 389.791 107.311C390.403 107.455 391.033 107.551 391.68 107.6C392.348 107.615 393.063 107.706 393.824 107.872L394.418 110.375L372.221 115.637L371.628 113.134C372.186 112.684 372.794 112.323 373.451 112.052C374.103 111.753 374.699 111.467 375.241 111.194C376.428 110.595 376.912 109.83 376.691 108.9C376.496 108.08 375.315 106.02 373.146 102.721C370.977 99.4215 369.053 96.4832 367.373 93.9059C362.681 86.669 358.045 79.4191 353.463 72.1563L349.23 66.183ZM432.979 78.1786L426.122 49.2536C425.771 47.7766 424.819 46.8036 423.263 46.3346C422.583 46.1491 421.828 46.0103 420.997 45.9183C420.194 45.8199 419.384 45.6941 418.568 45.541L417.994 43.1203L435.144 39.0544L435.718 41.4751C435.112 41.9655 434.472 42.4349 433.798 42.8835C433.152 43.3257 432.581 43.7789 432.084 44.2433C430.904 45.3608 430.49 46.658 430.84 48.135L439.448 84.4451L432.979 78.1786ZM396.027 63.972L404.548 99.9128C404.904 101.417 405.881 102.37 407.479 102.771C408.192 102.978 408.992 103.12 409.877 103.199C410.79 103.272 411.723 103.369 412.676 103.489L413.25 105.91L395.197 110.19L394.623 107.769C395.311 107.259 396.006 106.777 396.707 106.322C397.408 105.867 398.017 105.39 398.535 104.892C399.748 103.795 400.18 102.508 399.829 101.031L389.85 58.9363L396.027 63.972ZM394.985 58.8456C391.241 56.093 387.802 54.6261 384.668 54.4446C383.844 54.38 383.033 54.3122 382.236 54.2411L381.662 51.8204L397.663 48.0269L440.82 90.2301L442.95 99.2153L436.919 100.645L394.985 58.8456ZM467.248 31.53L478.842 80.4358C479.354 82.5967 479.918 83.9365 480.532 84.4554C481.139 84.9469 481.657 85.243 482.086 85.3437C482.535 85.4105 483.019 85.4403 483.537 85.433C485.016 85.4578 486.163 85.6048 486.978 85.8738L487.552 88.2945L464.494 93.761L463.92 91.3403C464.431 90.8148 465.136 90.3154 466.035 89.8423C466.955 89.3353 467.587 88.9544 467.931 88.6995C468.302 88.4381 468.593 88.0802 468.803 87.626C469.183 86.6692 469.11 85.0831 468.585 82.8676L456.99 33.9618L467.248 31.53ZM479.433 28.6411C480.554 28.3753 482.379 27.7259 484.908 26.6931L489.509 46.0995L486.719 46.761C486.09 45.8124 485.488 44.7993 484.915 43.7219C484.363 42.6106 483.776 41.5363 483.154 40.4992C482.526 39.4347 481.857 38.4379 481.145 37.5087C480.427 36.5522 479.605 35.7649 478.679 35.1468C476.622 33.7853 474.213 33.4321 471.451 34.087L470.653 30.7227L479.433 28.6411ZM439.161 37.5387C440.572 37.6377 441.619 37.6061 442.302 37.444L453.585 34.7691L454.383 38.1334C450.444 39.0672 448.085 41.5476 447.307 45.5745C446.922 47.4857 446.731 49.4812 446.732 51.5608C446.728 53.613 446.668 55.1873 446.552 56.2836L443.68 56.9645L439.099 37.6402L439.161 37.5387Z" fill="#EB562B"/>
<path d="M45.8452 131.435L47.1582 131.124L46.8469 129.811L45.534 130.123L45.8452 131.435ZM46.4191 133.856L47.2087 134.95L47.9401 134.422L47.732 133.545L46.4191 133.856ZM42.6762 136.347L43.5879 137.342L43.5957 137.334L43.6034 137.327L42.6762 136.347ZM54.6306 186.771L54.2625 188.069L54.2706 188.071L54.6306 186.771ZM59.1754 187.297L60.4883 186.985L60.2776 186.097L59.374 185.962L59.1754 187.297ZM59.7493 189.717L60.0606 191.03L61.3735 190.719L61.0622 189.406L59.7493 189.717ZM37.635 194.96L36.3221 195.271L36.6334 196.584L37.9463 196.273L37.635 194.96ZM37.0611 192.539L36.2715 191.445L35.5402 191.973L35.7482 192.851L37.0611 192.539ZM40.8451 190.039L39.9431 189.035L39.9396 189.039L40.8451 190.039ZM28.8907 139.615L28.5307 140.916L28.5352 140.917L28.8907 139.615ZM24.3869 139.08L23.074 139.391L23.2821 140.268L24.1725 140.412L24.3869 139.08ZM23.813 136.659L23.5018 135.346L22.1888 135.657L22.5001 136.97L23.813 136.659ZM45.8452 131.435L44.5323 131.747L45.1062 134.167L46.4191 133.856L47.732 133.545L47.1582 131.124L45.8452 131.435ZM46.4191 133.856L45.6295 132.762C44.9538 133.25 44.3125 133.656 43.7055 133.984L44.3474 135.171L44.9893 136.358C45.7138 135.966 46.4537 135.495 47.2087 134.95L46.4191 133.856ZM44.3474 135.171L43.7055 133.984C42.9585 134.388 42.2998 134.846 41.749 135.367L42.6762 136.347L43.6034 137.327C43.9493 137 44.4048 136.674 44.9893 136.358L44.3474 135.171ZM42.6762 136.347L41.7645 135.352C40.2738 136.718 39.9663 138.625 40.455 140.687L41.768 140.376L43.0809 140.064C42.7396 138.625 43.0376 137.846 43.5879 137.342L42.6762 136.347ZM41.768 140.376L40.455 140.687L50.6975 183.89L52.0104 183.579L53.3233 183.267L43.0809 140.064L41.768 140.376ZM52.0104 183.579L50.6975 183.89C51.1863 185.951 52.3171 187.517 54.2625 188.069L54.6306 186.771L54.9987 185.473C54.2806 185.269 53.6646 184.707 53.3233 183.267L52.0104 183.579ZM54.6306 186.771L54.2706 188.071C55.0097 188.276 55.8065 188.385 56.6522 188.411L56.693 187.062L56.7338 185.713C56.0664 185.693 55.4883 185.608 54.9906 185.47L54.6306 186.771ZM56.693 187.062L56.6522 188.411C57.3468 188.432 58.1207 188.504 58.9768 188.631L59.1754 187.297L59.374 185.962C58.4333 185.822 57.5524 185.738 56.7338 185.713L56.693 187.062ZM59.1754 187.297L57.8625 187.608L58.4364 190.029L59.7493 189.717L61.0622 189.406L60.4883 186.985L59.1754 187.297ZM59.7493 189.717L59.438 188.404L37.3237 193.647L37.635 194.96L37.9463 196.273L60.0606 191.03L59.7493 189.717ZM37.635 194.96L38.9479 194.649L38.374 192.228L37.0611 192.539L35.7482 192.851L36.3221 195.271L37.635 194.96ZM37.0611 192.539L37.8507 193.634C38.5264 193.146 39.1677 192.74 39.7747 192.412L39.1329 191.225L38.491 190.038C37.7665 190.43 37.0266 190.9 36.2715 191.445L37.0611 192.539ZM39.1329 191.225L39.7747 192.412C40.519 192.009 41.182 191.554 41.7505 191.039L40.8451 190.039L39.9396 189.039C39.5568 189.385 39.0782 189.721 38.491 190.038L39.1329 191.225ZM40.8451 190.039L41.747 191.043C43.2674 189.676 43.5993 187.765 43.1073 185.689L41.7944 186.001L40.4815 186.312C40.8194 187.737 40.5185 188.518 39.9431 189.035L40.8451 190.039ZM41.7944 186.001L43.1073 185.689L32.8648 142.486L31.5519 142.798L30.239 143.109L40.4815 186.312L41.7944 186.001ZM31.5519 142.798L32.8648 142.486C32.3727 140.411 31.2181 138.852 29.2461 138.314L28.8907 139.615L28.5352 140.917C29.2815 141.121 29.901 141.683 30.239 143.109L31.5519 142.798ZM28.8907 139.615L29.2507 138.315C28.5116 138.11 27.7148 138.001 26.869 137.975L26.8283 139.324L26.7875 140.673C27.4548 140.693 28.033 140.778 28.5307 140.916L28.8907 139.615ZM26.8283 139.324L26.869 137.975C26.1792 137.955 25.424 137.88 24.6013 137.747L24.3869 139.08L24.1725 140.412C25.0919 140.56 25.9642 140.648 26.7875 140.673L26.8283 139.324ZM24.3869 139.08L25.6998 138.768L25.1259 136.348L23.813 136.659L22.5001 136.97L23.074 139.391L24.3869 139.08ZM23.813 136.659L24.1243 137.972L46.1565 132.748L45.8452 131.435L45.534 130.123L23.5018 135.346L23.813 136.659ZM95.7154 159.003L94.3681 158.929L94.346 159.333L94.5491 159.682L95.7154 159.003ZM97.9102 119.092L97.599 117.779L96.6183 118.012L96.563 119.018L97.9102 119.092ZM116.332 114.725L117.645 114.413L117.334 113.1L116.021 113.412L116.332 114.725ZM116.906 117.145L117.771 118.18L118.411 117.645L118.219 116.834L116.906 117.145ZM115.121 118.392L115.742 119.59L115.765 119.578L115.788 119.565L115.121 118.392ZM113.503 119.425L112.66 118.372L112.639 118.389L112.618 118.407L113.503 119.425ZM125.508 169.881L125.897 168.588L125.886 168.585L125.876 168.582L125.508 169.881ZM129.867 170.537L131.18 170.226L130.975 169.36L130.098 169.208L129.867 170.537ZM130.441 172.958L130.752 174.271L132.065 173.959L131.754 172.647L130.441 172.958ZM108.983 178.045L107.67 178.356L107.982 179.669L109.295 179.358L108.983 178.045ZM108.409 175.624L107.544 174.589L106.904 175.124L107.097 175.936L108.409 175.624ZM110.143 174.347L109.433 173.199L109.425 173.204L109.418 173.209L110.143 174.347ZM111.723 173.149L112.65 174.129L112.652 174.127L111.723 173.149ZM102.009 124.317L103.322 124.006L103.011 122.693L101.698 123.004L102.009 124.317ZM101.845 124.356L101.534 123.043L100.553 123.276L100.498 124.283L101.845 124.356ZM99.5921 165.668L98.4258 166.346L100.694 170.245L100.939 165.741L99.5921 165.668ZM65.986 137.061L67.2989 136.75L67.0837 135.842L66.1581 135.723L65.986 137.061ZM78.359 180.842L77.8647 182.097L77.8772 182.102L77.8897 182.107L78.359 180.842ZM80.511 181.328L80.3757 182.671L80.406 182.674L80.4365 182.676L80.511 181.328ZM82.9308 181.665L84.2437 181.353L84.0481 180.528L83.2199 180.347L82.9308 181.665ZM83.5047 184.085L83.816 185.398L85.1289 185.087L84.8176 183.774L83.5047 184.085ZM67.0523 187.986L65.7394 188.297L66.0507 189.61L67.3636 189.299L67.0523 187.986ZM66.4785 185.565L65.6129 184.53L64.9732 185.065L65.1655 185.877L66.4785 185.565ZM68.304 184.309L68.9578 185.489L68.9794 185.477L69.0006 185.465L68.304 184.309ZM69.9363 182.969L68.9445 182.054L68.9364 182.063L68.9284 182.072L69.9363 182.969ZM60.8905 136.405L61.0627 135.067L59.1276 134.818L59.5776 136.717L60.8905 136.405ZM65.4109 133.904L66.5691 133.212L66.2354 132.653L65.5908 132.566L65.4109 133.904ZM53.8042 132.105L52.4913 132.417L52.6819 133.22L53.4844 133.416L53.8042 132.105ZM53.2304 129.685L52.9191 128.372L51.6062 128.683L51.9174 129.996L53.2304 129.685ZM71.7341 125.298L72.8927 124.606L72.3856 123.757L71.4229 123.985L71.7341 125.298ZM99.2662 171.422L100.614 171.496L100.636 171.084L100.425 170.73L99.2662 171.422ZM98.7673 180.467L99.0785 181.78L100.059 181.547L100.115 180.541L98.7673 180.467ZM93.9259 181.615L92.7677 182.307L93.275 183.156L94.2372 182.928L93.9259 181.615ZM95.7154 159.003L97.0627 159.077L99.2575 119.166L97.9102 119.092L96.563 119.018L94.3681 158.929L95.7154 159.003ZM97.9102 119.092L98.2215 120.405L116.643 116.037L116.332 114.725L116.021 113.412L97.599 117.779L97.9102 119.092ZM116.332 114.725L115.019 115.036L115.593 117.457L116.906 117.145L118.219 116.834L117.645 114.413L116.332 114.725ZM116.906 117.145L116.04 116.11C115.519 116.546 114.991 116.914 114.455 117.218L115.121 118.392L115.788 119.565C116.474 119.175 117.135 118.712 117.771 118.18L116.906 117.145ZM115.121 118.392L114.501 117.193C113.818 117.547 113.201 117.938 112.66 118.372L113.503 119.425L114.346 120.479C114.727 120.174 115.19 119.876 115.742 119.59L115.121 118.392ZM113.503 119.425L112.618 118.407C111.939 118.997 111.447 119.724 111.202 120.582C110.96 121.432 110.984 122.325 111.196 123.222L112.509 122.911L113.822 122.6C113.691 122.048 113.708 121.635 113.798 121.322C113.884 121.019 114.061 120.728 114.388 120.444L113.503 119.425ZM112.509 122.911L111.196 123.222L121.595 167.082L122.907 166.77L124.22 166.459L113.822 122.6L112.509 122.911ZM122.907 166.77L121.595 167.082C122.075 169.109 123.211 170.632 125.14 171.179L125.508 169.881L125.876 168.582C125.142 168.374 124.544 167.823 124.22 166.459L122.907 166.77ZM125.508 169.881L125.12 171.173C125.819 171.383 126.58 171.515 127.395 171.577L127.498 170.232L127.602 168.887C126.945 168.836 126.379 168.733 125.897 168.588L125.508 169.881ZM127.498 170.232L127.395 171.577C128.081 171.63 128.828 171.726 129.636 171.867L129.867 170.537L130.098 169.208C129.219 169.055 128.386 168.947 127.602 168.887L127.498 170.232ZM129.867 170.537L128.554 170.848L129.128 173.269L130.441 172.958L131.754 172.647L131.18 170.226L129.867 170.537ZM130.441 172.958L130.13 171.645L108.672 176.732L108.983 178.045L109.295 179.358L130.752 174.271L130.441 172.958ZM108.983 178.045L110.296 177.734L109.722 175.313L108.409 175.624L107.097 175.936L107.67 178.356L108.983 178.045ZM108.409 175.624L109.275 176.659C109.814 176.209 110.345 175.818 110.869 175.484L110.143 174.347L109.418 173.209C108.787 173.611 108.163 174.072 107.544 174.589L108.409 175.624ZM110.143 174.347L110.854 175.494C111.525 175.078 112.126 174.625 112.65 174.129L111.723 173.149L110.795 172.169C110.423 172.521 109.971 172.866 109.433 173.199L110.143 174.347ZM111.723 173.149L112.652 174.127C114.098 172.755 114.44 170.903 113.963 168.891L112.65 169.202L111.337 169.513C111.652 170.838 111.376 171.618 110.794 172.17L111.723 173.149ZM112.65 169.202L113.963 168.891L103.322 124.006L102.009 124.317L100.696 124.628L111.337 169.513L112.65 169.202ZM102.009 124.317L101.698 123.004L101.534 123.043L101.845 124.356L102.156 125.669L102.32 125.63L102.009 124.317ZM101.845 124.356L100.498 124.283L98.2448 165.594L99.5921 165.668L100.939 165.741L103.192 124.429L101.845 124.356ZM99.5921 165.668L100.758 164.989L96.8817 158.325L95.7154 159.003L94.5491 159.682L98.4258 166.346L99.5921 165.668ZM65.986 137.061L64.6731 137.372L74.0888 177.088L75.4017 176.776L76.7146 176.465L67.2989 136.75L65.986 137.061ZM75.4017 176.776L74.0888 177.088C74.6533 179.468 75.8401 181.3 77.8647 182.097L78.359 180.842L78.8532 179.586C77.9465 179.229 77.1617 178.351 76.7146 176.465L75.4017 176.776ZM78.359 180.842L77.8897 182.107C78.6716 182.397 79.5022 182.583 80.3757 182.671L80.511 181.328L80.6464 179.986C79.9808 179.919 79.3767 179.78 78.8283 179.577L78.359 180.842ZM80.511 181.328L80.4365 182.676C81.1502 182.715 81.885 182.817 82.6417 182.983L82.9308 181.665L83.2199 180.347C82.331 180.152 81.4526 180.029 80.5856 179.981L80.511 181.328ZM82.9308 181.665L81.6179 181.976L82.1918 184.397L83.5047 184.085L84.8176 183.774L84.2437 181.353L82.9308 181.665ZM83.5047 184.085L83.1935 182.773L66.7411 186.673L67.0523 187.986L67.3636 189.299L83.816 185.398L83.5047 184.085ZM67.0523 187.986L68.3653 187.675L67.7914 185.254L66.4785 185.565L65.1655 185.877L65.7394 188.297L67.0523 187.986ZM66.4785 185.565L67.344 186.6C67.859 186.17 68.3969 185.8 68.9578 185.489L68.304 184.309L67.6503 183.129C66.9343 183.525 66.2552 183.993 65.6129 184.53L66.4785 185.565ZM68.304 184.309L69.0006 185.465C69.74 185.019 70.3912 184.487 70.9442 183.866L69.9363 182.969L68.9284 182.072C68.5689 182.476 68.1319 182.837 67.6074 183.154L68.304 184.309ZM69.9363 182.969L70.9282 183.884C72.4101 182.277 72.63 180.073 72.0568 177.656L70.7439 177.967L69.431 178.278C69.8954 180.237 69.5769 181.368 68.9445 182.054L69.9363 182.969ZM70.7439 177.967L72.0568 177.656L62.2034 136.094L60.8905 136.405L59.5776 136.717L69.431 178.278L70.7439 177.967ZM60.8905 136.405L60.7184 137.744L65.8139 138.399L65.986 137.061L66.1581 135.723L61.0627 135.067L60.8905 136.405ZM65.4109 133.904L65.5908 132.566C59.2645 131.715 55.4796 131.125 54.1241 130.794L53.8042 132.105L53.4844 133.416C55.0113 133.789 58.9641 134.398 65.2309 135.241L65.4109 133.904ZM53.8042 132.105L55.1172 131.794L54.5433 129.373L53.2304 129.685L51.9174 129.996L52.4913 132.417L53.8042 132.105ZM53.2304 129.685L53.5416 130.998L72.0454 126.611L71.7341 125.298L71.4229 123.985L52.9191 128.372L53.2304 129.685ZM71.7341 125.298L70.5756 125.989L98.1077 172.113L99.2662 171.422L100.425 170.73L72.8927 124.606L71.7341 125.298ZM99.2662 171.422L97.919 171.347L97.42 180.393L98.7673 180.467L100.115 180.541L100.614 171.496L99.2662 171.422ZM98.7673 180.467L98.456 179.154L93.6147 180.302L93.9259 181.615L94.2372 182.928L99.0785 181.78L98.7673 180.467ZM93.9259 181.615L95.0841 180.923L66.5691 133.212L65.4109 133.904L64.2527 134.596L92.7677 182.307L93.9259 181.615ZM144.075 111.657L142.763 111.969L143.134 113.533L144.61 112.896L144.075 111.657ZM143.288 108.334L142.976 107.021L141.663 107.332L141.975 108.645L143.288 108.334ZM169.684 110.916L168.696 111.836L168.702 111.842L169.684 110.916ZM173.115 123.926L171.796 123.641L171.794 123.649L171.793 123.656L173.115 123.926ZM170.302 129.793L169.247 128.953L169.246 128.953L170.302 129.793ZM150.612 139.228L149.299 139.54L149.61 140.853L150.923 140.541L150.612 139.228ZM149.882 136.151L149.571 134.838L148.258 135.15L148.57 136.462L149.882 136.151ZM160.123 130.907L161.177 131.748L161.184 131.74L161.19 131.732L160.123 130.907ZM152.509 161.486L151.282 162.049L151.296 162.078L151.31 162.106L152.509 161.486ZM153.812 162.78L153.262 164.012L153.286 164.023L153.309 164.032L153.812 162.78ZM155.679 163.161L155.61 164.509L155.637 164.51L155.663 164.51L155.679 163.161ZM157.929 163.148L157.959 164.496L157.982 164.496L158.005 164.495L157.929 163.148ZM160.31 163.32L161.623 163.008L161.424 162.168L160.578 161.997L160.31 163.32ZM160.884 165.74L161.195 167.053L162.508 166.742L162.197 165.429L160.884 165.74ZM137.703 171.236L136.39 171.547L136.702 172.86L138.014 172.549L137.703 171.236ZM137.129 168.815L136.118 167.922L135.655 168.446L135.816 169.127L137.129 168.815ZM138.523 167.748L137.928 166.537L137.916 166.543L138.523 167.748ZM140.129 166.847L139.441 165.687L139.421 165.699L139.402 165.711L140.129 166.847ZM141.8 164.025L143.144 163.907L143.144 163.902L141.8 164.025ZM129.599 116.216L129.015 117.432L129.016 117.433L129.599 116.216ZM126.926 115.723L126.884 117.072L126.905 117.072L126.926 117.072L126.926 115.723ZM124.455 115.356L123.142 115.667L123.309 116.369L123.986 116.621L124.455 115.356ZM123.881 112.935L123.57 111.622L122.257 111.933L122.568 113.246L123.881 112.935ZM139.882 109.141L141.195 108.83L140.884 107.517L139.571 107.828L139.882 109.141ZM161.43 120.153L162.743 119.842C161.737 115.601 159.942 112.408 157.182 110.564C154.401 108.705 150.909 108.391 146.906 109.34L147.217 110.652L147.529 111.965C151.075 111.125 153.726 111.499 155.683 112.807C157.66 114.129 159.197 116.582 160.117 120.464L161.43 120.153ZM147.217 110.652L146.906 109.34C145.646 109.638 144.521 109.996 143.541 110.418L144.075 111.657L144.61 112.896C145.413 112.55 146.382 112.237 147.529 111.965L147.217 110.652ZM144.075 111.657L145.388 111.346L144.601 108.023L143.288 108.334L141.975 108.645L142.763 111.969L144.075 111.657ZM143.288 108.334L143.599 109.647L147.168 108.801L146.857 107.488L146.546 106.175L142.976 107.021L143.288 108.334ZM146.857 107.488L147.168 108.801C157.747 106.293 164.711 107.556 168.696 111.836L169.684 110.916L170.671 109.997C165.665 104.621 157.411 103.599 146.546 106.175L146.857 107.488ZM169.684 110.916L168.702 111.842C170.106 113.33 171.085 115.18 171.619 117.434L172.932 117.123L174.245 116.812C173.612 114.143 172.425 111.855 170.665 109.99L169.684 110.916ZM172.932 117.123L171.619 117.434C172.157 119.705 172.202 121.766 171.796 123.641L173.115 123.926L174.434 124.212C174.938 121.884 174.861 119.41 174.245 116.812L172.932 117.123ZM173.115 123.926L171.793 123.656C171.411 125.525 170.573 127.288 169.247 128.953L170.302 129.793L171.358 130.634C172.926 128.666 173.963 126.518 174.437 124.196L173.115 123.926ZM170.302 129.793L169.246 128.953C166.382 132.554 161.72 135.208 155.06 136.787L155.371 138.1L155.683 139.413C162.698 137.75 167.991 134.866 171.358 130.633L170.302 129.793ZM155.371 138.1L155.06 136.787L150.301 137.915L150.612 139.228L150.923 140.541L155.683 139.413L155.371 138.1ZM150.612 139.228L151.925 138.917L151.195 135.84L149.882 136.151L148.57 136.462L149.299 139.54L150.612 139.228ZM149.882 136.151L150.194 137.464C155.273 136.26 159.046 134.418 161.177 131.748L160.123 130.907L159.068 130.065C157.502 132.027 154.448 133.682 149.571 134.838L149.882 136.151ZM160.123 130.907L161.19 131.732C163.508 128.733 163.887 124.666 162.743 119.842L161.43 120.153L160.117 120.464C161.165 124.885 160.673 127.988 159.055 130.082L160.123 130.907ZM151.389 157.678L150.076 157.989C150.521 159.864 150.92 161.259 151.282 162.049L152.509 161.486L153.735 160.923C153.5 160.41 153.152 159.266 152.702 157.367L151.389 157.678ZM152.509 161.486L151.31 162.106C151.748 162.951 152.391 163.623 153.262 164.012L153.812 162.78L154.363 161.548C154.135 161.446 153.909 161.256 153.707 160.866L152.509 161.486ZM153.812 162.78L153.309 164.032C154.015 164.316 154.789 164.467 155.61 164.509L155.679 163.161L155.748 161.813C155.166 161.784 154.695 161.681 154.315 161.528L153.812 162.78ZM155.679 163.161L155.663 164.51C156.376 164.519 157.141 164.514 157.959 164.496L157.929 163.148L157.9 161.799C157.108 161.816 156.374 161.82 155.696 161.812L155.679 163.161ZM157.929 163.148L158.005 164.495C158.688 164.456 159.366 164.505 160.043 164.642L160.31 163.32L160.578 161.997C159.677 161.815 158.768 161.749 157.854 161.8L157.929 163.148ZM160.31 163.32L158.997 163.631L159.571 166.052L160.884 165.74L162.197 165.429L161.623 163.008L160.31 163.32ZM160.884 165.74L160.573 164.428L137.392 169.923L137.703 171.236L138.014 172.549L161.195 167.053L160.884 165.74ZM137.703 171.236L139.016 170.925L138.442 168.504L137.129 168.815L135.816 169.127L136.39 171.547L137.703 171.236ZM137.129 168.815L138.141 169.709C138.41 169.404 138.736 169.152 139.13 168.953L138.523 167.748L137.916 166.543C137.227 166.891 136.623 167.35 136.118 167.922L137.129 168.815ZM138.523 167.748L139.118 168.96C139.73 168.659 140.31 168.334 140.857 167.984L140.129 166.847L139.402 165.711C138.946 166.003 138.455 166.279 137.929 166.537L138.523 167.748ZM140.129 166.847L140.818 168.008C141.565 167.564 142.197 167.002 142.62 166.288C143.052 165.558 143.218 164.748 143.144 163.907L141.8 164.025L140.456 164.143C140.484 164.461 140.423 164.702 140.298 164.913C140.164 165.14 139.909 165.409 139.441 165.687L140.129 166.847ZM141.8 164.025L143.144 163.902C143.029 162.636 142.787 161.24 142.426 159.716L141.113 160.028L139.8 160.339C140.139 161.77 140.355 163.037 140.457 164.147L141.8 164.025ZM141.113 160.028L142.426 159.716L133.263 121.068L131.95 121.379L130.637 121.69L139.8 160.339L141.113 160.028ZM131.95 121.379L133.263 121.068C132.894 119.512 132.494 118.227 132.05 117.252C131.64 116.35 131.065 115.422 130.182 114.999L129.599 116.216L129.016 117.433C128.98 117.416 129.222 117.551 129.594 118.37C129.934 119.116 130.286 120.21 130.637 121.69L131.95 121.379ZM129.599 116.216L130.183 115C129.254 114.553 128.142 114.374 126.925 114.374L126.926 115.723L126.926 117.072C127.905 117.072 128.575 117.221 129.015 117.432L129.599 116.216ZM126.926 115.723L126.968 114.375C125.942 114.343 125.291 114.226 124.924 114.09L124.455 115.356L123.986 116.621C124.76 116.908 125.755 117.037 126.884 117.072L126.926 115.723ZM124.455 115.356L125.768 115.044L125.194 112.624L123.881 112.935L122.568 113.246L123.142 115.667L124.455 115.356ZM123.881 112.935L124.192 114.248L140.194 110.454L139.882 109.141L139.571 107.828L123.57 111.622L123.881 112.935ZM139.882 109.141L138.569 109.453L150.076 157.989L151.389 157.678L152.702 157.367L141.195 108.83L139.882 109.141ZM212.297 154.851L212.516 156.183L213.944 155.949L213.61 154.54L212.297 154.851ZM192.686 149.447L191.841 150.5L191.842 150.501L192.686 149.447ZM182.803 107.763L181.577 107.2L181.576 107.201L182.803 107.763ZM197.901 94.1295L199.214 93.8182L198.88 92.4098L197.499 92.8417L197.901 94.1295ZM198.699 97.4938L199.142 98.7684L200.293 98.3683L200.012 97.1826L198.699 97.4938ZM191.149 106.044L189.842 105.709L189.839 105.722L191.149 106.044ZM205.943 150.898L205.485 152.167L205.495 152.17L205.943 150.898ZM211.49 151.446L212.803 151.135L212.522 149.948L211.313 150.109L211.49 151.446ZM214.895 150.639L214.452 149.365L213.302 149.765L213.582 150.95L214.895 150.639ZM222.993 133.249L221.646 133.324L221.646 133.331L222.993 133.249ZM207.661 97.2759L208.119 96.0066L208.109 96.0032L207.661 97.2759ZM202.104 96.6865L200.792 96.9978L201.069 98.1672L202.262 98.0265L202.104 96.6865ZM201.297 93.2811L201.078 91.9498L199.65 92.1847L199.984 93.5924L201.297 93.2811ZM220.94 98.6345L220.096 99.687L220.096 99.6873L220.94 98.6345ZM230.842 140.401L229.615 139.839L229.615 139.84L230.842 140.401ZM215.693 154.003L214.38 154.314L214.714 155.722L216.095 155.291L215.693 154.003ZM212.297 154.851L212.079 153.52C205.361 154.622 199.206 152.941 193.529 148.394L192.686 149.447L191.842 150.501C198.077 155.494 204.995 157.417 212.516 156.183L212.297 154.851ZM192.686 149.447L193.53 148.395C188.017 143.971 184.294 137.813 182.401 129.828L181.088 130.14L179.775 130.451C181.786 138.933 185.794 145.647 191.841 150.5L192.686 149.447ZM181.088 130.14L182.401 129.828C180.522 121.901 181.089 114.754 184.03 108.324L182.803 107.763L181.576 107.201C178.352 114.251 177.777 122.022 179.775 130.451L181.088 130.14ZM182.803 107.763L184.03 108.325C187.061 101.714 191.807 97.4484 198.304 95.4174L197.901 94.1295L197.499 92.8417C190.225 95.1154 184.906 99.9389 181.577 107.2L182.803 107.763ZM197.901 94.1295L196.589 94.4408L197.386 97.8051L198.699 97.4938L200.012 97.1826L199.214 93.8182L197.901 94.1295ZM198.699 97.4938L198.256 96.2193C193.867 97.7446 191.054 100.975 189.842 105.709L191.149 106.044L192.456 106.378C193.464 102.44 195.684 99.9701 199.142 98.7684L198.699 97.4938ZM191.149 106.044L189.839 105.722C188.541 111.01 189.092 118.387 191.304 127.718L192.617 127.406L193.93 127.095C191.745 117.881 191.318 111.016 192.46 106.366L191.149 106.044ZM192.617 127.406L191.304 127.718C192.934 134.592 194.888 140.091 197.197 144.161C199.5 148.222 202.236 150.995 205.485 152.167L205.943 150.898L206.401 149.629C203.996 148.761 201.683 146.599 199.544 142.83C197.411 139.069 195.53 133.842 193.93 127.095L192.617 127.406ZM205.943 150.898L205.495 152.17C207.469 152.866 209.533 153.066 211.667 152.784L211.49 151.446L211.313 150.109C209.582 150.338 207.948 150.173 206.391 149.625L205.943 150.898ZM211.49 151.446L210.177 151.757L210.984 155.163L212.297 154.851L213.61 154.54L212.803 151.135L211.49 151.446ZM214.895 150.639L215.339 151.913C218.676 150.751 221.125 148.525 222.626 145.3C224.106 142.122 224.637 138.045 224.34 133.167L222.993 133.249L221.646 133.331C221.928 137.964 221.399 141.541 220.18 144.16C218.982 146.732 217.092 148.445 214.452 149.365L214.895 150.639ZM222.993 133.249L224.34 133.173C224.138 129.561 223.446 125.29 222.281 120.374L220.968 120.685L219.655 120.996C220.798 125.817 221.456 129.922 221.646 133.324L222.993 133.249ZM220.968 120.685L222.281 120.374C220.657 113.527 218.708 108.047 216.402 103.991C214.101 99.9433 211.367 97.1782 208.119 96.0066L207.661 97.2759L207.203 98.5452C209.609 99.413 211.921 101.569 214.056 105.325C216.185 109.071 218.062 114.277 219.655 120.996L220.968 120.685ZM207.661 97.2759L208.109 96.0032C206.141 95.3102 204.081 95.0948 201.946 95.3465L202.104 96.6865L202.262 98.0265C204.006 97.8209 205.65 97.9984 207.213 98.5486L207.661 97.2759ZM202.104 96.6865L203.417 96.3752L202.61 92.9699L201.297 93.2811L199.984 93.5924L200.792 96.9978L202.104 96.6865ZM201.297 93.2811L201.516 94.6125C208.293 93.4971 214.458 95.1651 220.096 99.687L220.94 98.6345L221.784 97.5819C215.579 92.6047 208.648 90.7038 201.078 91.9498L201.297 93.2811ZM220.94 98.6345L220.096 99.6873C225.645 104.134 229.38 110.29 231.266 118.244L232.579 117.932L233.892 117.621C231.886 109.164 227.863 102.454 221.784 97.5816L220.94 98.6345ZM232.579 117.932L231.266 118.244C233.151 126.197 232.577 133.375 229.615 139.839L230.842 140.401L232.069 140.963C235.313 133.881 235.897 126.079 233.892 117.621L232.579 117.932ZM230.842 140.401L229.615 139.84C226.607 146.411 221.848 150.669 215.291 152.715L215.693 154.003L216.095 155.291C223.419 153.006 228.758 148.196 232.069 140.963L230.842 140.401ZM215.693 154.003L217.006 153.692L216.208 150.328L214.895 150.639L213.582 150.95L214.38 154.314L215.693 154.003ZM279.454 101.793L280.564 102.56L280.566 102.557L279.454 101.793ZM268.113 109.161L267.748 107.862L266.502 108.213L266.801 109.472L268.113 109.161ZM268.152 109.325L266.84 109.637L267.085 110.671L268.148 110.675L268.152 109.325ZM275.779 112.067L274.891 113.083L274.892 113.084L275.779 112.067ZM279.791 116.923L278.681 117.691L278.684 117.695L279.791 116.923ZM283.54 122.318L282.429 123.084L282.434 123.091L283.54 122.318ZM286.197 125.848L287.242 124.995L287.24 124.992L286.197 125.848ZM291.486 128.234L292.689 128.845L292.7 128.823L292.71 128.8L291.486 128.234ZM292.087 126.748L290.84 126.233L290.827 126.264L290.815 126.296L292.087 126.748ZM294.599 124.549L294.243 125.851L294.291 125.864L294.339 125.873L294.599 124.549ZM295.298 126.767L296.576 127.2L296.617 127.079L296.634 126.953L295.298 126.767ZM292.927 132.486L291.791 131.757L291.784 131.768L292.927 132.486ZM282.702 136.513L282.346 137.815L282.358 137.818L282.702 136.513ZM279.043 134.607L278.167 135.634L278.173 135.639L278.179 135.644L279.043 134.607ZM276.118 131.227L274.975 131.944L274.981 131.954L274.987 131.963L276.118 131.227ZM273.685 126.994L272.481 127.605L272.486 127.615L272.492 127.624L273.685 126.994ZM268.872 118.212L269.978 117.438L269.974 117.432L268.872 118.212ZM261.85 112.9L261.516 114.207L261.532 114.211L261.547 114.215L261.85 112.9ZM259.533 112.452L258.221 112.763L258.431 113.652L259.335 113.787L259.533 112.452ZM258.736 109.088L258.425 107.775L257.112 108.086L257.423 109.399L258.736 109.088ZM271.262 99.2279L272.6 99.4002L272.601 99.3921L272.602 99.384L271.262 99.2279ZM253.182 85.6605L251.869 85.9718L252.26 87.6222L253.78 86.8698L253.182 85.6605ZM252.423 82.4603L252.112 81.1474L250.799 81.4587L251.11 82.7716L252.423 82.4603ZM262.711 137.006L262.093 138.205L262.113 138.216L262.134 138.226L262.711 137.006ZM264.332 137.445L264.192 138.787L264.222 138.79L264.253 138.792L264.332 137.445ZM268.01 137.787L269.323 137.475L269.151 136.752L268.448 136.51L268.01 137.787ZM268.584 140.207L268.895 141.52L270.208 141.209L269.897 139.896L268.584 140.207ZM246.839 145.362L245.526 145.674L245.837 146.987L247.15 146.675L246.839 145.362ZM246.265 142.942L245.202 142.111L244.802 142.622L244.952 143.253L246.265 142.942ZM249.183 140.993L248.507 139.825L248.49 139.835L248.472 139.846L249.183 140.993ZM250.936 138.151L252.28 138.033L252.279 138.029L250.936 138.151ZM238.735 90.3423L238.151 91.5586L238.152 91.5593L238.735 90.3423ZM236.061 89.8495L236.019 91.1981L236.04 91.1988L236.061 91.1988L236.061 89.8495ZM233.591 89.4818L232.278 89.7931L232.444 90.4957L233.121 90.7469L233.591 89.4818ZM233.017 87.0612L232.705 85.7482L231.392 86.0595L231.704 87.3724L233.017 87.0612ZM249.018 83.2676L250.331 82.9564L250.019 81.6435L248.706 81.9547L249.018 83.2676ZM253.941 82.1004L254.252 83.4133C262.191 81.5312 268.212 81.3761 272.453 82.7342C276.573 84.0533 279.112 86.8263 280.155 91.226L281.468 90.9147L282.781 90.6035C281.529 85.3205 278.332 81.7831 273.276 80.1641C268.342 78.5841 261.747 78.8631 253.63 80.7875L253.941 82.1004ZM281.468 90.9147L280.155 91.226C281.002 94.7969 280.401 98.0317 278.342 101.028L279.454 101.793L280.566 102.557C283.06 98.9271 283.802 94.91 282.781 90.6035L281.468 90.9147ZM279.454 101.793L278.344 101.025C276.18 104.157 272.704 106.466 267.748 107.862L268.113 109.161L268.479 110.46C273.868 108.942 277.952 106.338 280.564 102.56L279.454 101.793ZM268.113 109.161L266.801 109.472L266.84 109.637L268.152 109.325L269.465 109.014L269.426 108.85L268.113 109.161ZM268.152 109.325L268.148 110.675C270.861 110.683 273.08 111.498 274.891 113.083L275.779 112.067L276.668 111.052C274.323 108.999 271.458 107.986 268.157 107.976L268.152 109.325ZM275.779 112.067L274.892 113.084C275.856 113.926 277.117 115.433 278.681 117.691L279.791 116.923L280.9 116.155C279.302 113.847 277.888 112.118 276.667 111.051L275.779 112.067ZM279.791 116.923L278.684 117.695C280.258 119.95 281.506 121.746 282.429 123.084L283.54 122.318L284.65 121.552C283.724 120.208 282.472 118.407 280.897 116.151L279.791 116.923ZM283.54 122.318L282.434 123.091C283.368 124.427 284.275 125.633 285.153 126.704L286.197 125.848L287.24 124.992C286.412 123.983 285.547 122.835 284.646 121.545L283.54 122.318ZM286.197 125.848L285.151 126.701C286.138 127.912 287.064 128.865 287.925 129.492C288.736 130.084 289.769 130.591 290.857 130.333L290.545 129.02L290.234 127.707C290.337 127.683 290.153 127.778 289.515 127.312C288.926 126.882 288.169 126.132 287.242 124.995L286.197 125.848ZM290.545 129.02L290.857 130.333C291.708 130.131 292.32 129.572 292.689 128.845L291.486 128.234L290.282 127.624C290.243 127.702 290.217 127.72 290.223 127.716C290.225 127.714 290.229 127.711 290.235 127.708C290.24 127.705 290.241 127.706 290.234 127.707L290.545 129.02ZM291.486 128.234L292.71 128.8C292.94 128.304 293.156 127.77 293.358 127.2L292.087 126.748L290.815 126.296C290.637 126.799 290.452 127.256 290.261 127.668L291.486 128.234ZM292.087 126.748L293.334 127.264C293.591 126.642 293.83 126.236 294.03 125.99C294.231 125.743 294.323 125.741 294.277 125.752L293.966 124.439L293.655 123.126C292.926 123.299 292.362 123.764 291.937 124.286C291.511 124.81 291.152 125.477 290.84 126.233L292.087 126.748ZM293.966 124.439L294.277 125.752C294.229 125.764 294.186 125.771 294.153 125.775C294.119 125.779 294.09 125.781 294.067 125.782C294.022 125.785 293.99 125.783 293.973 125.782C293.955 125.781 293.945 125.78 293.943 125.78C293.942 125.779 293.945 125.78 293.955 125.782C293.975 125.785 294.009 125.792 294.06 125.804C294.109 125.815 294.17 125.831 294.243 125.851L294.599 124.549L294.954 123.248C294.766 123.196 294.582 123.152 294.417 123.123C294.327 123.107 293.998 123.045 293.655 123.126L293.966 124.439ZM294.599 124.549L294.339 125.873C294.287 125.863 294.223 125.842 294.155 125.803C294.088 125.764 294.034 125.717 293.994 125.672C293.919 125.586 293.923 125.538 293.942 125.615L295.255 125.304L296.567 124.993C296.389 124.239 295.886 123.427 294.859 123.225L294.599 124.549ZM295.255 125.304L293.942 125.615C294 125.86 294.018 126.176 293.962 126.581L295.298 126.767L296.634 126.953C296.728 126.283 296.717 125.623 296.567 124.993L295.255 125.304ZM295.298 126.767L294.02 126.334C293.047 129.205 292.302 130.961 291.791 131.758L292.927 132.486L294.063 133.214C294.776 132.103 295.611 130.046 296.576 127.2L295.298 126.767ZM292.927 132.486L291.784 131.768C290.643 133.586 289.231 134.619 287.547 135.018L287.859 136.331L288.17 137.644C290.643 137.057 292.611 135.527 294.07 133.203L292.927 132.486ZM287.859 136.331L287.547 135.018C285.617 135.476 284.14 135.497 283.045 135.209L282.702 136.513L282.358 137.818C284.036 138.26 285.997 138.159 288.17 137.644L287.859 136.331ZM282.702 136.513L283.057 135.212C281.884 134.891 280.838 134.346 279.907 133.571L279.043 134.607L278.179 135.644C279.408 136.668 280.801 137.393 282.346 137.815L282.702 136.513ZM279.043 134.607L279.919 133.581C278.941 132.747 278.049 131.721 277.249 130.491L276.118 131.227L274.987 131.963C275.914 133.387 276.972 134.614 278.167 135.634L279.043 134.607ZM276.118 131.227L277.261 130.51C276.444 129.208 275.65 127.826 274.878 126.364L273.685 126.994L272.492 127.624C273.292 129.141 274.12 130.581 274.975 131.944L276.118 131.227ZM273.685 126.994L274.888 126.384C274.13 124.889 273.368 123.382 272.603 121.86L271.398 122.466L270.192 123.072C270.959 124.597 271.722 126.108 272.481 127.605L273.685 126.994ZM271.398 122.466L272.603 121.86C271.811 120.283 270.936 118.808 269.978 117.439L268.872 118.212L267.767 118.985C268.645 120.242 269.454 121.604 270.192 123.072L271.398 122.466ZM268.872 118.212L269.974 117.432C267.766 114.314 265.172 112.279 262.152 111.585L261.85 112.9L261.547 114.215C263.722 114.715 265.81 116.221 267.771 118.991L268.872 118.212ZM261.85 112.9L262.183 111.592C261.48 111.413 260.661 111.256 259.732 111.117L259.533 112.452L259.335 113.787C260.203 113.916 260.928 114.057 261.516 114.207L261.85 112.9ZM259.533 112.452L260.846 112.141L260.049 108.776L258.736 109.088L257.423 109.399L258.221 112.763L259.533 112.452ZM258.736 109.088L259.047 110.401C266.927 108.532 271.877 105.018 272.6 99.4002L271.262 99.2279L269.924 99.0556C269.427 102.914 266.026 105.973 258.425 107.775L258.736 109.088ZM271.262 99.2279L272.602 99.384C272.815 97.5567 272.644 95.5518 272.131 93.3884L270.818 93.6996L269.505 94.0109C269.965 95.9503 270.09 97.6309 269.922 99.0717L271.262 99.2279ZM270.818 93.6996L272.131 93.3884C271.192 89.4278 269.253 86.4535 266.212 84.6857L265.534 85.8521L264.856 87.0186C267.11 88.329 268.693 90.5864 269.505 94.0109L270.818 93.6996ZM265.534 85.8521L266.212 84.6857C263.147 82.9034 259.195 82.7181 254.565 83.816L254.876 85.1289L255.187 86.4418C259.473 85.4257 262.627 85.7226 264.856 87.0186L265.534 85.8521ZM254.876 85.1289L254.565 83.816C253.76 84.0068 253.067 84.212 252.583 84.4512L253.182 85.6605L253.78 86.8698C253.969 86.7763 254.405 86.6271 255.187 86.4418L254.876 85.1289ZM253.182 85.6605L254.495 85.3493L253.736 82.1491L252.423 82.4603L251.11 82.7716L251.869 85.9718L253.182 85.6605ZM252.423 82.4603L252.734 83.7732L254.252 83.4133L253.941 82.1004L253.63 80.7875L252.112 81.1474L252.423 82.4603ZM260.525 131.804L259.212 132.115C259.64 133.92 260.015 135.267 260.34 136.081L261.593 135.581L262.847 135.081C262.603 134.47 262.266 133.299 261.838 131.493L260.525 131.804ZM261.593 135.581L260.34 136.081C260.689 136.955 261.232 137.762 262.093 138.205L262.711 137.006L263.329 135.807C263.269 135.775 263.067 135.632 262.847 135.081L261.593 135.581ZM262.711 137.006L262.134 138.226C262.773 138.528 263.464 138.711 264.192 138.787L264.332 137.445L264.472 136.103C264.016 136.055 263.625 135.946 263.288 135.786L262.711 137.006ZM264.332 137.445L264.253 138.792C264.872 138.828 265.512 138.843 266.175 138.837L266.162 137.488L266.15 136.139C265.544 136.144 264.964 136.131 264.411 136.098L264.332 137.445ZM266.162 137.488L266.175 138.837C266.656 138.833 267.12 138.908 267.572 139.063L268.01 137.787L268.448 136.51C267.705 136.255 266.936 136.131 266.15 136.139L266.162 137.488ZM268.01 137.787L266.697 138.098L267.271 140.518L268.584 140.207L269.897 139.896L269.323 137.475L268.01 137.787ZM268.584 140.207L268.272 138.894L246.527 144.05L246.839 145.362L247.15 146.675L268.895 141.52L268.584 140.207ZM246.839 145.362L248.152 145.051L247.578 142.631L246.265 142.942L244.952 143.253L245.526 145.674L246.839 145.362ZM246.265 142.942L247.328 143.773C247.523 143.522 247.797 143.294 248.183 143.099L247.576 141.894L246.97 140.689C246.272 141.04 245.671 141.51 245.202 142.111L246.265 142.942ZM247.576 141.894L248.183 143.099C248.762 142.808 249.332 142.488 249.893 142.14L249.183 140.993L248.472 139.846C247.976 140.153 247.475 140.434 246.97 140.689L247.576 141.894ZM249.183 140.993L249.858 142.161C250.627 141.717 251.282 141.155 251.722 140.44C252.174 139.707 252.355 138.888 252.28 138.033L250.936 138.151L249.592 138.269C249.618 138.574 249.558 138.809 249.425 139.024C249.282 139.256 249.009 139.535 248.507 139.825L249.183 140.993ZM250.936 138.151L252.279 138.029C252.164 136.763 251.922 135.366 251.561 133.843L250.248 134.154L248.935 134.465C249.274 135.896 249.491 137.164 249.592 138.273L250.936 138.151ZM250.248 134.154L251.561 133.843L242.398 95.1939L241.085 95.5052L239.772 95.8164L248.935 134.465L250.248 134.154ZM241.085 95.5052L242.398 95.1939C242.029 93.6379 241.63 92.3529 241.186 91.3783C240.775 90.4761 240.201 89.5485 239.317 89.1254L238.735 90.3423L238.152 91.5593C238.116 91.542 238.357 91.6777 238.73 92.4965C239.07 93.2428 239.422 94.3363 239.772 95.8164L241.085 95.5052ZM238.735 90.3423L239.319 89.126C238.389 88.6795 237.277 88.4999 236.061 88.5002L236.061 89.8495L236.061 91.1988C237.04 91.1986 237.711 91.3475 238.151 91.5586L238.735 90.3423ZM236.061 89.8495L236.103 88.5008C235.078 88.4688 234.426 88.3527 234.06 88.2168L233.591 89.4818L233.121 90.7469C233.895 91.034 234.891 91.1629 236.019 91.1981L236.061 89.8495ZM233.591 89.4818L234.903 89.1706L234.33 86.7499L233.017 87.0612L231.704 87.3724L232.278 89.7931L233.591 89.4818ZM233.017 87.0612L233.328 88.3741L249.329 84.5806L249.018 83.2676L248.706 81.9547L232.705 85.7482L233.017 87.0612ZM249.018 83.2676L247.705 83.5789L259.212 132.115L260.525 131.804L261.838 131.493L250.331 82.9564L249.018 83.2676ZM313.801 67.9088L315.114 67.5975L314.803 66.2846L313.49 66.5959L313.801 67.9088ZM327.086 120.834L326.215 121.865L326.226 121.874L326.237 121.883L327.086 120.834ZM328.64 121.722L328.331 123.036L328.385 123.049L328.441 123.057L328.64 121.722ZM330.091 121.812L330.113 120.463L330.093 120.462L330.072 120.463L330.091 121.812ZM333.532 122.253L334.845 121.941L334.671 121.208L333.955 120.971L333.532 122.253ZM334.106 124.673L334.417 125.986L335.73 125.675L335.419 124.362L334.106 124.673ZM311.048 130.14L309.735 130.451L310.046 131.764L311.359 131.453L311.048 130.14ZM310.474 127.719L309.507 126.779L308.99 127.31L309.161 128.03L310.474 127.719ZM312.589 126.221L313.217 127.415L313.229 127.409L313.24 127.403L312.589 126.221ZM314.485 125.078L313.708 123.975L313.695 123.984L313.682 123.994L314.485 125.078ZM315.357 124.005L316.582 124.571L316.597 124.537L316.611 124.503L315.357 124.005ZM303.544 70.3405L303.233 69.0276L301.92 69.3389L302.231 70.6518L303.544 70.3405ZM331.462 63.0719L332.775 62.7606L332.411 61.2266L330.952 61.8228L331.462 63.0719ZM336.063 82.4783L336.374 83.7912L337.687 83.4799L337.376 82.167L336.063 82.4783ZM333.273 83.1397L332.148 83.8857L332.669 84.6697L333.584 84.4526L333.273 83.1397ZM331.469 80.1006L330.261 80.7012L330.269 80.7179L330.278 80.7344L331.469 80.1006ZM329.708 76.878L328.546 77.5635L328.551 77.5715L329.708 76.878ZM327.699 73.8875L326.62 74.6975L326.628 74.7078L327.699 73.8875ZM325.233 71.5256L325.981 70.4031L325.977 70.4005L325.233 71.5256ZM318.004 70.4658L316.692 70.7771L317.003 72.09L318.316 71.7787L318.004 70.4658ZM317.207 67.1015L316.896 65.7886L315.583 66.0998L315.894 67.4127L317.207 67.1015ZM285.715 73.9174L285.81 72.5714L284.995 72.5142L284.567 73.2092L285.715 73.9174ZM300.139 71.1479L301.452 70.8366L301.141 69.5237L299.828 69.835L300.139 71.1479ZM300.937 74.5122L301.248 75.8251L302.561 75.5138L302.25 74.2009L300.937 74.5122ZM293.861 81.9533L295.183 82.2195L295.185 82.2094L293.861 81.9533ZM293.286 87.9395L294.636 87.9426L294.636 87.9383L293.286 87.9395ZM293.106 92.6624L293.417 93.9753L294.348 93.7548L294.448 92.804L293.106 92.6624ZM290.234 93.3433L288.921 93.6546L289.232 94.9675L290.545 94.6562L290.234 93.3433ZM285.653 74.0189L284.504 73.3107L284.211 73.7864L284.34 74.3302L285.653 74.0189ZM313.801 67.9088L312.489 68.2201L324.083 117.126L325.396 116.815L326.709 116.503L315.114 67.5975L313.801 67.9088ZM325.396 116.815L324.083 117.126C324.348 118.245 324.638 119.199 324.959 119.963C325.266 120.695 325.662 121.397 326.215 121.865L327.086 120.834L327.956 119.803C327.895 119.752 327.702 119.525 327.446 118.917C327.205 118.342 326.956 117.545 326.709 116.503L325.396 116.815ZM327.086 120.834L326.237 121.883C326.898 122.418 327.606 122.866 328.331 123.036L328.64 121.722L328.948 120.409C328.816 120.378 328.488 120.233 327.934 119.785L327.086 120.834ZM328.64 121.722L328.441 123.057C328.971 123.136 329.529 123.169 330.11 123.161L330.091 121.812L330.072 120.463C329.616 120.469 329.206 120.443 328.838 120.388L328.64 121.722ZM330.091 121.812L330.068 123.161C331.495 123.185 332.484 123.327 333.109 123.534L333.532 122.253L333.955 120.971C332.95 120.64 331.646 120.488 330.113 120.463L330.091 121.812ZM333.532 122.253L332.219 122.564L332.793 124.985L334.106 124.673L335.419 124.362L334.845 121.941L333.532 122.253ZM334.106 124.673L333.795 123.36L310.737 128.827L311.048 130.14L311.359 131.453L334.417 125.986L334.106 124.673ZM311.048 130.14L312.361 129.829L311.787 127.408L310.474 127.719L309.161 128.03L309.735 130.451L311.048 130.14ZM310.474 127.719L311.442 128.66C311.824 128.267 312.399 127.846 313.217 127.415L312.589 126.221L311.961 125.027C310.981 125.543 310.147 126.12 309.507 126.779L310.474 127.719ZM312.589 126.221L313.24 127.403C314.159 126.896 314.863 126.477 315.288 126.162L314.485 125.078L313.682 123.994C313.418 124.189 312.859 124.532 311.938 125.039L312.589 126.221ZM314.485 125.078L315.261 126.182C315.846 125.77 316.282 125.218 316.582 124.571L315.357 124.005L314.132 123.438C314.011 123.7 313.866 123.864 313.708 123.975L314.485 125.078ZM315.357 124.005L316.611 124.503C316.899 123.776 316.976 122.927 316.935 122.036C316.894 121.131 316.726 120.093 316.452 118.935L315.139 119.246L313.826 119.558C314.077 120.615 314.208 121.478 314.24 122.159C314.271 122.855 314.194 123.276 314.103 123.507L315.357 124.005ZM315.139 119.246L316.452 118.935L304.857 70.0293L303.544 70.3405L302.231 70.6518L313.826 119.558L315.139 119.246ZM303.544 70.3405L303.856 71.6534L314.113 69.2217L313.801 67.9088L313.49 66.5959L303.233 69.0276L303.544 70.3405ZM325.987 65.0199L326.298 66.3328C327.532 66.0404 329.442 65.3543 331.972 64.321L331.462 63.0719L330.952 61.8228C328.424 62.8551 326.685 63.4677 325.676 63.707L325.987 65.0199ZM331.462 63.0719L330.149 63.3831L334.75 82.7896L336.063 82.4783L337.376 82.167L332.775 62.7606L331.462 63.0719ZM336.063 82.4783L335.751 81.1654L332.962 81.8268L333.273 83.1397L333.584 84.4526L336.374 83.7912L336.063 82.4783ZM333.273 83.1397L334.397 82.3938C333.794 81.484 333.214 80.5086 332.66 79.4669L331.469 80.1006L330.278 80.7344C330.87 81.8476 331.493 82.8983 332.148 83.8857L333.273 83.1397ZM331.469 80.1006L332.677 79.5001C332.11 78.358 331.506 77.2527 330.866 76.1844L329.708 76.878L328.551 77.5715C329.154 78.5775 329.724 79.6207 330.261 80.7012L331.469 80.1006ZM329.708 76.878L330.87 76.1924C330.216 75.0838 329.517 74.0417 328.771 73.0672L327.699 73.8875L326.628 74.7078C327.305 75.5916 327.944 76.5431 328.546 77.5635L329.708 76.878ZM327.699 73.8875L328.778 73.0776C327.976 72.008 327.044 71.112 325.981 70.4031L325.233 71.5256L324.484 72.648C325.274 73.1754 325.987 73.854 326.62 74.6975L327.699 73.8875ZM325.233 71.5256L325.977 70.4005C323.562 68.8014 320.759 68.4262 317.693 69.1529L318.004 70.4658L318.316 71.7787C320.776 71.1955 322.79 71.5268 324.488 72.6506L325.233 71.5256ZM318.004 70.4658L319.317 70.1545L318.52 66.7902L317.207 67.1015L315.894 67.4127L316.692 70.7771L318.004 70.4658ZM317.207 67.1015L317.518 68.4144L326.298 66.3328L325.987 65.0199L325.676 63.707L316.896 65.7886L317.207 67.1015ZM285.715 73.9174L285.621 75.2634C287.059 75.3644 288.275 75.3472 289.167 75.1357L288.856 73.8228L288.545 72.5099C288.069 72.6226 287.192 72.6685 285.81 72.5714L285.715 73.9174ZM288.856 73.8228L289.167 75.1357L300.45 72.4608L300.139 71.1479L299.828 69.835L288.545 72.5099L288.856 73.8228ZM300.139 71.1479L298.826 71.4591L299.624 74.8235L300.937 74.5122L302.25 74.2009L301.452 70.8366L300.139 71.1479ZM300.937 74.5122L300.625 73.1993C298.449 73.7153 296.626 74.6808 295.236 76.143C293.846 77.6042 292.964 79.4813 292.536 81.6971L293.861 81.9533L295.185 82.2094C295.536 80.3983 296.222 79.0218 297.191 78.0026C298.16 76.9845 299.486 76.2429 301.248 75.8251L300.937 74.5122ZM293.861 81.9533L292.538 81.687C292.134 83.692 291.935 85.7773 291.937 87.9408L293.286 87.9395L294.636 87.9383C294.634 85.9426 294.818 84.0371 295.183 82.2195L293.861 81.9533ZM293.286 87.9395L291.937 87.9365C291.933 89.9746 291.872 91.4941 291.764 92.5209L293.106 92.6624L294.448 92.804C294.571 91.638 294.631 90.0089 294.636 87.9425L293.286 87.9395ZM293.106 92.6624L292.795 91.3495L289.923 92.0304L290.234 93.3433L290.545 94.6562L293.417 93.9753L293.106 92.6624ZM290.234 93.3433L291.547 93.032L286.966 73.7077L285.653 74.0189L284.34 74.3302L288.921 93.6546L290.234 93.3433ZM285.653 74.0189L286.801 74.7272L286.864 74.6257L285.715 73.9174L284.567 73.2092L284.504 73.3107L285.653 74.0189ZM366.316 97.493L366.628 98.8059L368.437 98.377L367.468 96.7901L366.316 97.493ZM353.844 100.45L352.495 100.406L352.438 102.17L354.155 101.763L353.844 100.45ZM353.975 96.4322L353.663 95.1193L352.66 95.3573L352.626 96.3883L353.975 96.4322ZM364.191 94.0102L365.342 93.3073L364.832 92.4714L363.879 92.6973L364.191 94.0102ZM352.824 76.7713L354.167 76.8929L354.21 76.4193L353.947 76.0234L352.824 76.7713ZM350.01 107.859L351.352 107.997L351.353 107.989L351.354 107.981L350.01 107.859ZM350.083 113.649L348.777 113.989L348.777 113.99L350.083 113.649ZM351.221 115.892L350.471 117.014L351.221 115.892ZM357.309 116.529L358.622 116.218L358.43 115.406L357.618 115.215L357.309 116.529ZM357.902 119.032L358.214 120.345L359.527 120.033L359.215 118.72L357.902 119.032ZM340.055 123.263L338.742 123.574L339.053 124.887L340.366 124.576L340.055 123.263ZM339.462 120.76L338.54 119.775L337.968 120.309L338.149 121.071L339.462 120.76ZM342.732 118.468L343.535 119.552L343.544 119.545L343.553 119.538L342.732 118.468ZM344.675 115.147L343.331 115.023L343.33 115.035L343.329 115.046L344.675 115.147ZM348.786 70.7083L349.909 69.9604L347.794 66.7843L347.442 70.584L348.786 70.7083ZM349.23 66.183L350.331 65.4029L349.978 64.9054L349.372 64.8412L349.23 66.183ZM345.865 65.334L344.529 65.5194L344.616 66.1488L345.157 66.4824L345.865 65.334ZM345.691 63.6852L344.342 63.7193L344.343 63.7479L344.345 63.7764L345.691 63.6852ZM345.618 62.0991L344.269 62.1332L344.27 62.1618L344.272 62.1903L345.618 62.0991ZM345.645 60.7494L345.07 59.5288L344.37 59.8586L344.301 60.6295L345.645 60.7494ZM354.282 56.9683L354.866 55.752L354.436 55.5452L353.971 55.6554L354.282 56.9683ZM356.495 59.1738L357.623 58.4337L357.614 58.4195L357.604 58.4055L356.495 59.1738ZM386.286 104.589L385.158 105.329L385.16 105.333L386.286 104.589ZM389.791 107.311L390.1 105.998L389.791 107.311ZM391.68 107.6L391.578 108.946L391.614 108.948L391.65 108.949L391.68 107.6ZM393.824 107.872L395.137 107.561L394.941 106.735L394.112 106.554L393.824 107.872ZM394.418 110.375L394.729 111.688L396.042 111.376L395.731 110.063L394.418 110.375ZM372.221 115.637L370.908 115.948L371.22 117.261L372.533 116.95L372.221 115.637ZM371.628 113.134L370.781 112.084L370.119 112.618L370.315 113.445L371.628 113.134ZM373.451 112.052L373.966 113.299L373.99 113.289L374.014 113.278L373.451 112.052ZM375.241 111.194L375.848 112.399L375.85 112.399L375.241 111.194ZM367.373 93.9059L366.24 94.6398L366.242 94.6426L367.373 93.9059ZM353.463 72.1563L354.604 71.4364L354.585 71.4057L354.564 71.3762L353.463 72.1563ZM366.316 97.493L366.005 96.1801L353.533 99.1371L353.844 100.45L354.155 101.763L366.628 98.8059L366.316 97.493ZM353.844 100.45L355.192 100.494L355.323 96.4761L353.975 96.4322L352.626 96.3883L352.495 100.406L353.844 100.45ZM353.975 96.4322L354.286 97.7451L364.502 95.3231L364.191 94.0102L363.879 92.6973L353.663 95.1193L353.975 96.4322ZM364.191 94.0102L363.039 94.7132L365.165 98.196L366.316 97.493L367.468 96.7901L365.342 93.3073L364.191 94.0102ZM352.824 76.7713L351.48 76.6497L348.666 107.737L350.01 107.859L351.354 107.981L354.167 76.8929L352.824 76.7713ZM350.01 107.859L348.668 107.721C348.395 110.38 348.393 112.516 348.777 113.989L350.083 113.649L351.388 113.308C351.134 112.333 351.084 110.608 351.352 107.997L350.01 107.859ZM350.083 113.649L348.777 113.99C348.948 114.642 349.15 115.228 349.399 115.718C349.64 116.193 349.977 116.683 350.471 117.014L351.221 115.892L351.972 114.771C352.019 114.803 351.944 114.77 351.805 114.497C351.674 114.239 351.531 113.852 351.388 113.308L350.083 113.649ZM351.221 115.892L350.471 117.014C351.15 117.468 351.926 117.692 352.749 117.73L352.811 116.382L352.872 115.034C352.469 115.016 352.185 114.914 351.972 114.771L351.221 115.892ZM352.811 116.382L352.749 117.73C353.434 117.761 354.183 117.739 354.993 117.67L354.877 116.325L354.762 114.981C354.042 115.043 353.414 115.059 352.872 115.034L352.811 116.382ZM354.877 116.325L354.993 117.67C355.596 117.618 356.263 117.669 357 117.842L357.309 116.529L357.618 115.215C356.642 114.986 355.688 114.901 354.762 114.981L354.877 116.325ZM357.309 116.529L355.996 116.84L356.589 119.343L357.902 119.032L359.215 118.72L358.622 116.218L357.309 116.529ZM357.902 119.032L357.591 117.719L339.744 121.95L340.055 123.263L340.366 124.576L358.214 120.345L357.902 119.032ZM340.055 123.263L341.368 122.952L340.775 120.449L339.462 120.76L338.149 121.071L338.742 123.574L340.055 123.263ZM339.462 120.76L340.383 121.746C340.807 121.35 341.266 121.008 341.762 120.718L341.082 119.553L340.402 118.387C339.731 118.779 339.11 119.242 338.54 119.775L339.462 120.76ZM341.082 119.553L341.762 120.718C342.386 120.354 342.977 119.965 343.535 119.552L342.732 118.468L341.929 117.384C341.454 117.736 340.945 118.07 340.402 118.387L341.082 119.553ZM342.732 118.468L343.553 119.538C345.001 118.427 345.889 116.99 346.02 115.249L344.675 115.147L343.329 115.046C343.265 115.894 342.858 116.67 341.91 117.398L342.732 118.468ZM344.675 115.147L346.018 115.272L350.13 70.8326L348.786 70.7083L347.442 70.584L343.331 115.023L344.675 115.147ZM348.786 70.7083L347.663 71.4562L351.7 77.5192L352.824 76.7713L353.947 76.0234L349.909 69.9604L348.786 70.7083ZM349.23 66.183L349.372 64.8412C347.795 64.6742 346.939 64.4111 346.573 64.1855L345.865 65.334L345.157 66.4824C346.077 67.0499 347.464 67.3528 349.088 67.5248L349.23 66.183ZM345.865 65.334L347.202 65.1486C347.124 64.5878 347.069 64.0699 347.037 63.5941L345.691 63.6852L344.345 63.7764C344.382 64.3241 344.444 64.9054 344.529 65.5194L345.865 65.334ZM345.691 63.6852L347.04 63.6511C347.026 63.0877 347.001 62.5399 346.964 62.0079L345.618 62.0991L344.272 62.1903C344.305 62.6819 344.329 63.1916 344.342 63.7193L345.691 63.6852ZM345.618 62.0991L346.967 62.065C346.954 61.5467 346.964 61.1529 346.989 60.8693L345.645 60.7494L344.301 60.6295C344.263 61.0543 344.255 61.5602 344.269 62.1332L345.618 62.0991ZM345.645 60.7494L346.22 61.97C348.684 60.809 350.626 59.9184 352.049 59.2956C353.525 58.6494 354.327 58.3444 354.593 58.2813L354.282 56.9683L353.971 55.6554C353.417 55.7868 352.369 56.2093 350.966 56.8235C349.51 57.4609 347.543 58.3636 345.07 59.5288L345.645 60.7494ZM354.282 56.9683L353.698 58.1846C354.061 58.359 354.635 58.8575 355.386 59.9421L356.495 59.1738L357.604 58.4055C356.774 57.2071 355.872 56.2353 354.866 55.752L354.282 56.9683ZM356.495 59.1738L355.367 59.9139L385.158 105.329L386.286 104.589L387.414 103.849L357.623 58.4337L356.495 59.1738ZM386.286 104.589L385.16 105.333C386.282 107.03 387.711 108.208 389.483 108.625L389.791 107.311L390.1 105.998C389.18 105.781 388.271 105.145 387.411 103.845L386.286 104.589ZM389.791 107.311L389.483 108.625C390.165 108.785 390.864 108.892 391.578 108.946L391.68 107.6L391.781 106.255C391.202 106.211 390.642 106.125 390.1 105.998L389.791 107.311ZM391.68 107.6L391.65 108.949C392.218 108.962 392.846 109.04 393.537 109.19L393.824 107.872L394.112 106.554C393.279 106.372 392.478 106.269 391.71 106.251L391.68 107.6ZM393.824 107.872L392.511 108.183L393.105 110.686L394.418 110.375L395.731 110.063L395.137 107.561L393.824 107.872ZM394.418 110.375L394.106 109.062L371.91 114.324L372.221 115.637L372.533 116.95L394.729 111.688L394.418 110.375ZM372.221 115.637L373.534 115.326L372.941 112.823L371.628 113.134L370.315 113.445L370.908 115.948L372.221 115.637ZM371.628 113.134L372.475 114.184C372.933 113.815 373.429 113.521 373.966 113.299L373.451 112.052L372.937 110.805C372.158 111.126 371.439 111.553 370.781 112.084L371.628 113.134ZM373.451 112.052L374.014 113.278C374.678 112.974 375.289 112.681 375.848 112.399L375.241 111.194L374.635 109.989C374.11 110.253 373.528 110.532 372.889 110.825L373.451 112.052ZM375.241 111.194L375.85 112.399C376.565 112.037 377.215 111.556 377.635 110.892C378.082 110.184 378.193 109.385 378.004 108.589L376.691 108.9L375.378 109.212C375.398 109.294 375.394 109.339 375.391 109.36C375.388 109.379 375.381 109.407 375.353 109.45C375.29 109.551 375.105 109.752 374.633 109.99L375.241 111.194ZM376.691 108.9L378.004 108.589C377.855 107.96 377.408 107.077 376.829 106.069C376.219 105.005 375.364 103.639 374.273 101.98L373.146 102.721L372.018 103.462C373.096 105.102 373.917 106.416 374.488 107.412C375.092 108.463 375.333 109.021 375.378 109.212L376.691 108.9ZM373.146 102.721L374.273 101.98C372.105 98.6814 370.182 95.7446 368.503 93.1691L367.373 93.9059L366.242 94.6426C367.923 97.2218 369.849 100.162 372.018 103.462L373.146 102.721ZM367.373 93.9059L368.505 93.1719C363.817 85.9396 359.183 78.6945 354.604 71.4364L353.463 72.1563L352.322 72.8762C356.906 80.1438 361.546 87.3983 366.24 94.6398L367.373 93.9059ZM353.463 72.1563L354.564 71.3762L350.331 65.4029L349.23 66.183L348.129 66.9631L352.362 72.9364L353.463 72.1563ZM432.979 78.1786L431.666 78.4899L431.757 78.8735L432.04 79.1478L432.979 78.1786ZM423.263 46.3346L423.652 45.0428L423.635 45.0376L423.618 45.033L423.263 46.3346ZM420.997 45.9183L420.833 47.2576L420.841 47.2586L420.849 47.2595L420.997 45.9183ZM418.568 45.541L417.255 45.8522L417.457 46.7055L418.319 46.8671L418.568 45.541ZM417.994 43.1203L417.683 41.8074L416.37 42.1187L416.681 43.4316L417.994 43.1203ZM435.144 39.0544L436.457 38.7432L436.146 37.4303L434.833 37.7415L435.144 39.0544ZM435.718 41.4751L436.567 42.524L437.227 41.99L437.031 41.1639L435.718 41.4751ZM433.798 42.8835L433.05 41.7605L433.043 41.7651L433.037 41.7699L433.798 42.8835ZM432.084 44.2433L431.162 43.2578L431.156 43.2638L432.084 44.2433ZM439.448 84.4451L438.509 85.4143L441.827 88.6274L440.761 84.1339L439.448 84.4451ZM396.027 63.972L397.34 63.6607L397.234 63.2153L396.879 62.9261L396.027 63.972ZM407.479 102.771L407.854 101.475L407.831 101.469L407.808 101.463L407.479 102.771ZM409.877 103.199L409.757 104.543L409.77 104.545L409.877 103.199ZM412.676 103.489L413.989 103.178L413.773 102.268L412.845 102.151L412.676 103.489ZM413.25 105.91L413.561 107.223L414.874 106.912L414.563 105.599L413.25 105.91ZM395.197 110.19L393.884 110.501L394.196 111.814L395.508 111.503L395.197 110.19ZM394.623 107.769L393.82 106.685L393.105 107.215L393.31 108.08L394.623 107.769ZM398.535 104.892L397.63 103.891L397.614 103.905L397.599 103.92L398.535 104.892ZM389.85 58.9363L390.702 57.8905L387.619 55.3772L388.537 59.2476L389.85 58.9363ZM394.985 58.8456L395.937 57.8899L395.866 57.8184L395.784 57.7585L394.985 58.8456ZM384.668 54.4446L384.562 55.7898L384.576 55.7909L384.59 55.7917L384.668 54.4446ZM382.236 54.2411L380.923 54.5524L381.148 55.4987L382.116 55.5851L382.236 54.2411ZM381.662 51.8204L381.351 50.5075L380.038 50.8188L380.349 52.1317L381.662 51.8204ZM397.663 48.0269L398.607 47.0622L398.075 46.5426L397.352 46.714L397.663 48.0269ZM440.82 90.2301L442.133 89.9189L442.043 89.5387L441.763 89.2654L440.82 90.2301ZM442.95 99.2153L443.261 100.528L444.574 100.217L444.263 98.9041L442.95 99.2153ZM436.919 100.645L435.966 101.601L436.499 102.132L437.23 101.958L436.919 100.645ZM432.979 78.1786L434.292 77.8674L427.435 48.9424L426.122 49.2536L424.809 49.5649L431.666 78.4899L432.979 78.1786ZM426.122 49.2536L427.435 48.9424C426.964 46.9583 425.629 45.6387 423.652 45.0428L423.263 46.3346L422.873 47.6265C424.008 47.9686 424.579 48.5949 424.809 49.5649L426.122 49.2536ZM423.263 46.3346L423.618 45.033C422.86 44.8258 422.034 44.6756 421.146 44.5772L420.997 45.9183L420.849 47.2595C421.622 47.3451 422.307 47.4723 422.907 47.6363L423.263 46.3346ZM420.997 45.9183L421.162 44.5791C420.387 44.4842 419.606 44.3628 418.817 44.2148L418.568 45.541L418.319 46.8671C419.163 47.0254 420.001 47.1556 420.833 47.2576L420.997 45.9183ZM418.568 45.541L419.881 45.2297L419.307 42.809L417.994 43.1203L416.681 43.4316L417.255 45.8522L418.568 45.541ZM417.994 43.1203L418.305 44.4332L435.455 40.3673L435.144 39.0544L434.833 37.7415L417.683 41.8074L417.994 43.1203ZM435.144 39.0544L433.831 39.3657L434.405 41.7864L435.718 41.4751L437.031 41.1639L436.457 38.7432L435.144 39.0544ZM435.718 41.4751L434.869 40.4262C434.297 40.8893 433.691 41.3341 433.05 41.7605L433.798 42.8835L434.546 44.0066C435.253 43.5357 435.927 43.0416 436.567 42.524L435.718 41.4751ZM433.798 42.8835L433.037 41.7699C432.342 42.245 431.716 42.7403 431.162 43.2578L432.084 44.2433L433.006 45.2288C433.445 44.8175 433.962 44.4064 434.56 43.9972L433.798 42.8835ZM432.084 44.2433L431.156 43.2638C429.657 44.6837 429.057 46.4623 429.527 48.4463L430.84 48.135L432.153 47.8238C431.923 46.8538 432.152 46.0379 433.012 45.2229L432.084 44.2433ZM430.84 48.135L429.527 48.4463L438.135 84.7564L439.448 84.4451L440.761 84.1339L432.153 47.8238L430.84 48.135ZM439.448 84.4451L440.387 83.476L433.918 77.2095L432.979 78.1786L432.04 79.1478L438.509 85.4143L439.448 84.4451ZM396.027 63.972L394.714 64.2832L403.235 100.224L404.548 99.9128L405.861 99.6016L397.34 63.6607L396.027 63.972ZM404.548 99.9128L403.235 100.224C403.464 101.191 403.911 102.044 404.606 102.722C405.297 103.396 406.168 103.833 407.15 104.08L407.479 102.771L407.808 101.463C407.192 101.308 406.776 101.068 406.49 100.79C406.208 100.515 405.988 100.139 405.861 99.6016L404.548 99.9128ZM407.479 102.771L407.104 104.067C407.915 104.302 408.802 104.458 409.757 104.543L409.877 103.199L409.997 101.856C409.182 101.783 408.47 101.653 407.854 101.475L407.479 102.771ZM409.877 103.199L409.77 104.545C410.661 104.615 411.573 104.71 412.506 104.828L412.676 103.489L412.845 102.151C411.872 102.027 410.919 101.929 409.984 101.854L409.877 103.199ZM412.676 103.489L411.363 103.801L411.937 106.221L413.25 105.91L414.563 105.599L413.989 103.178L412.676 103.489ZM413.25 105.91L412.938 104.597L394.886 108.877L395.197 110.19L395.508 111.503L413.561 107.223L413.25 105.91ZM395.197 110.19L396.51 109.879L395.936 107.458L394.623 107.769L393.31 108.08L393.884 110.501L395.197 110.19ZM394.623 107.769L395.427 108.853C396.093 108.36 396.764 107.893 397.442 107.454L396.707 106.322L395.972 105.19C395.247 105.661 394.53 106.159 393.82 106.685L394.623 107.769ZM396.707 106.322L397.442 107.454C398.203 106.959 398.882 106.43 399.47 105.864L398.535 104.892L397.599 103.92C397.152 104.35 396.613 104.774 395.972 105.19L396.707 106.322ZM398.535 104.892L399.439 105.893C400.183 105.221 400.744 104.437 401.048 103.533C401.353 102.624 401.368 101.674 401.142 100.72L399.829 101.031L398.517 101.343C398.641 101.866 398.616 102.298 398.489 102.675C398.361 103.058 398.1 103.466 397.63 103.891L398.535 104.892ZM399.829 101.031L401.142 100.72L391.162 58.6251L389.85 58.9363L388.537 59.2476L398.517 101.343L399.829 101.031ZM389.85 58.9363L388.997 59.9822L395.174 65.0178L396.027 63.972L396.879 62.9261L390.702 57.8905L389.85 58.9363ZM394.985 58.8456L395.784 57.7585C391.925 54.9212 388.238 53.2997 384.746 53.0976L384.668 54.4446L384.59 55.7917C387.367 55.9524 390.557 57.2649 394.186 59.9327L394.985 58.8456ZM384.668 54.4446L384.773 53.0995C383.954 53.0352 383.148 52.9678 382.356 52.8971L382.236 54.2411L382.116 55.5851C382.918 55.6566 383.734 55.7248 384.562 55.7898L384.668 54.4446ZM382.236 54.2411L383.549 53.9298L382.975 51.5092L381.662 51.8204L380.349 52.1317L380.923 54.5524L382.236 54.2411ZM381.662 51.8204L381.974 53.1333L397.975 49.3398L397.663 48.0269L397.352 46.714L381.351 50.5075L381.662 51.8204ZM397.663 48.0269L396.72 48.9916L439.876 91.1948L440.82 90.2301L441.763 89.2654L398.607 47.0622L397.663 48.0269ZM440.82 90.2301L439.507 90.5414L441.637 99.5266L442.95 99.2153L444.263 98.9041L442.133 89.9189L440.82 90.2301ZM442.95 99.2153L442.639 97.9024L436.608 99.3323L436.919 100.645L437.23 101.958L443.261 100.528L442.95 99.2153ZM436.919 100.645L437.871 99.6896L395.937 57.8899L394.985 58.8456L394.032 59.8012L435.966 101.601L436.919 100.645ZM467.248 31.53L468.56 31.2188L468.249 29.9059L466.936 30.2171L467.248 31.53ZM480.532 84.4554L479.661 85.4861L479.672 85.4954L479.683 85.5044L480.532 84.4554ZM482.086 85.3437L481.777 86.6572L481.832 86.67L481.887 86.6783L482.086 85.3437ZM483.537 85.433L483.56 84.0838L483.539 84.0835L483.518 84.0838L483.537 85.433ZM486.978 85.8738L488.291 85.5625L488.117 84.8289L487.401 84.5925L486.978 85.8738ZM487.552 88.2945L487.863 89.6074L489.176 89.2961L488.865 87.9832L487.552 88.2945ZM464.494 93.761L463.181 94.0723L463.492 95.3852L464.805 95.0739L464.494 93.761ZM463.92 91.3403L462.953 90.3998L462.436 90.9309L462.607 91.6516L463.92 91.3403ZM466.035 89.8423L466.664 91.0363L466.675 91.0302L466.686 91.024L466.035 89.8423ZM467.931 88.6995L467.154 87.5961L467.141 87.6055L467.128 87.6153L467.931 88.6995ZM468.803 87.626L470.028 88.1924L470.043 88.1585L470.057 88.1239L468.803 87.626ZM456.99 33.9618L456.679 32.6489L455.366 32.9601L455.678 34.273L456.99 33.9618ZM484.908 26.6931L486.221 26.3818L485.857 24.8479L484.398 25.444L484.908 26.6931ZM489.509 46.0995L489.82 47.4124L491.133 47.1012L490.822 45.7883L489.509 46.0995ZM486.719 46.761L485.595 47.5069L486.115 48.2909L487.03 48.0739L486.719 46.761ZM484.915 43.7219L483.707 44.3224L483.715 44.3391L483.724 44.3556L484.915 43.7219ZM483.154 40.4992L481.992 41.1848L481.997 41.1927L483.154 40.4992ZM481.145 37.5087L480.066 38.3187L480.074 38.329L481.145 37.5087ZM478.679 35.1468L479.427 34.0243L479.424 34.0218L478.679 35.1468ZM471.451 34.087L470.138 34.3983L470.449 35.7112L471.762 35.3999L471.451 34.087ZM470.653 30.7227L470.342 29.4098L469.029 29.721L469.34 31.034L470.653 30.7227ZM439.161 37.5386L439.256 36.1927L438.441 36.1355L438.013 36.8304L439.161 37.5386ZM453.585 34.7691L454.898 34.4578L454.587 33.1449L453.274 33.4562L453.585 34.7691ZM454.383 38.1334L454.694 39.4463L456.007 39.1351L455.696 37.8222L454.383 38.1334ZM447.307 45.5745L448.629 45.8407L448.631 45.8307L447.307 45.5745ZM446.732 51.5608L448.082 51.5638L448.082 51.5595L446.732 51.5608ZM446.552 56.2836L446.863 57.5965L447.794 57.376L447.894 56.4252L446.552 56.2836ZM443.68 56.9645L442.367 57.2758L442.678 58.5887L443.991 58.2774L443.68 56.9645ZM439.099 37.6402L437.95 36.9319L437.657 37.4076L437.786 37.9514L439.099 37.6402ZM467.248 31.53L465.935 31.8413L477.529 80.7471L478.842 80.4358L480.155 80.1246L468.56 31.2188L467.248 31.53ZM478.842 80.4358L477.529 80.7471C477.795 81.8663 478.084 82.82 478.405 83.5842C478.712 84.316 479.108 85.0187 479.661 85.4861L480.532 84.4554L481.403 83.4247C481.342 83.3732 481.148 83.1465 480.893 82.5385C480.651 81.9628 480.402 81.1662 480.155 80.1246L478.842 80.4358ZM480.532 84.4554L479.683 85.5044C480.344 86.0392 481.053 86.4869 481.777 86.6572L482.086 85.3437L482.394 84.0302C482.262 83.9991 481.934 83.8545 481.38 83.4063L480.532 84.4554ZM482.086 85.3437L481.887 86.6783C482.418 86.7572 482.975 86.7903 483.556 86.7821L483.537 85.433L483.518 84.0838C483.062 84.0902 482.652 84.0638 482.284 84.0091L482.086 85.3437ZM483.537 85.433L483.514 86.7821C484.941 86.806 485.93 86.9487 486.555 87.1551L486.978 85.8738L487.401 84.5925C486.396 84.2608 485.092 84.1096 483.56 84.0838L483.537 85.433ZM486.978 85.8738L485.665 86.1851L486.239 88.6057L487.552 88.2945L488.865 87.9832L488.291 85.5625L486.978 85.8738ZM487.552 88.2945L487.241 86.9816L464.183 92.4481L464.494 93.761L464.805 95.0739L487.863 89.6074L487.552 88.2945ZM464.494 93.761L465.807 93.4498L465.233 91.0291L463.92 91.3403L462.607 91.6516L463.181 94.0723L464.494 93.761ZM463.92 91.3403L464.888 92.2809C465.27 91.8879 465.845 91.4668 466.664 91.0363L466.035 89.8423L465.407 88.6482C464.427 89.1639 463.593 89.7416 462.953 90.3998L463.92 91.3403ZM466.035 89.8423L466.686 91.024C467.605 90.5176 468.309 90.0983 468.734 89.7836L467.931 88.6995L467.128 87.6153C466.864 87.8104 466.305 88.153 465.384 88.6606L466.035 89.8423ZM467.931 88.6995L468.707 89.8029C469.292 89.3913 469.729 88.8394 470.028 88.1924L468.803 87.626L467.578 87.0596C467.457 87.3211 467.312 87.4848 467.154 87.5961L467.931 88.6995ZM468.803 87.626L470.057 88.1239C470.345 87.3977 470.422 86.548 470.381 85.6571C470.34 84.7524 470.172 83.7139 469.898 82.5563L468.585 82.8676L467.272 83.1788C467.523 84.2367 467.654 85.0991 467.686 85.7806C467.717 86.4758 467.641 86.8976 467.549 87.1281L468.803 87.626ZM468.585 82.8676L469.898 82.5563L458.303 33.6505L456.99 33.9618L455.678 34.273L467.272 83.1788L468.585 82.8676ZM456.99 33.9618L457.302 35.2747L467.559 32.8429L467.248 31.53L466.936 30.2171L456.679 32.6489L456.99 33.9618ZM479.433 28.6411L479.744 29.954C480.978 29.6616 482.888 28.9755 485.418 27.9422L484.908 26.6931L484.398 25.444C481.87 26.4763 480.131 27.0889 479.122 27.3282L479.433 28.6411ZM484.908 26.6931L483.595 27.0044L488.196 46.4108L489.509 46.0995L490.822 45.7883L486.221 26.3818L484.908 26.6931ZM489.509 46.0995L489.198 44.7866L486.408 45.4481L486.719 46.761L487.03 48.0739L489.82 47.4124L489.509 46.0995ZM486.719 46.761L487.843 46.015C487.24 45.1052 486.66 44.1299 486.106 43.0881L484.915 43.7219L483.724 44.3556C484.316 45.4688 484.939 46.5195 485.595 47.5069L486.719 46.761ZM484.915 43.7219L486.123 43.1213C485.556 41.9792 484.952 40.8739 484.312 39.8057L483.154 40.4992L481.997 41.1927C482.6 42.1988 483.17 43.2419 483.707 44.3224L484.915 43.7219ZM483.154 40.4992L484.316 39.8136C483.663 38.7051 482.963 37.663 482.217 36.6885L481.145 37.5087L480.074 38.329C480.751 39.2128 481.39 40.1644 481.992 41.1848L483.154 40.4992ZM481.145 37.5087L482.224 36.6988C481.422 35.6292 480.49 34.7332 479.427 34.0243L478.679 35.1468L477.93 36.2692C478.72 36.7966 479.433 37.4753 480.066 38.3187L481.145 37.5087ZM478.679 35.1468L479.424 34.0218C477.008 32.4226 474.205 32.0474 471.139 32.7741L471.451 34.087L471.762 35.3999C474.222 34.8168 476.237 35.1481 477.934 36.2718L478.679 35.1468ZM471.451 34.087L472.763 33.7758L471.966 30.4114L470.653 30.7227L469.34 31.034L470.138 34.3983L471.451 34.087ZM470.653 30.7227L470.964 32.0356L479.744 29.954L479.433 28.6411L479.122 27.3282L470.342 29.4098L470.653 30.7227ZM439.161 37.5386L439.067 38.8846C440.505 38.9856 441.722 38.9684 442.614 38.7569L442.302 37.444L441.991 36.1311C441.515 36.2439 440.638 36.2898 439.256 36.1927L439.161 37.5386ZM442.302 37.444L442.614 38.7569L453.896 36.082L453.585 34.7691L453.274 33.4562L441.991 36.1311L442.302 37.444ZM453.585 34.7691L452.272 35.0804L453.07 38.4447L454.383 38.1334L455.696 37.8222L454.898 34.4578L453.585 34.7691ZM454.383 38.1334L454.071 36.8205C451.895 37.3366 450.072 38.302 448.682 39.7642C447.292 41.2254 446.41 43.1025 445.982 45.3183L447.307 45.5745L448.631 45.8307C448.982 44.0195 449.668 42.643 450.637 41.6239C451.606 40.6057 452.932 39.8641 454.694 39.4463L454.383 38.1334ZM447.307 45.5745L445.984 45.3083C445.58 47.3132 445.381 49.3985 445.383 51.562L446.732 51.5608L448.082 51.5595C448.08 49.5638 448.264 47.6583 448.629 45.8407L447.307 45.5745ZM446.732 51.5608L445.383 51.5578C445.379 53.5958 445.319 55.1154 445.21 56.1421L446.552 56.2836L447.894 56.4252C448.017 55.2592 448.077 53.6302 448.082 51.5638L446.732 51.5608ZM446.552 56.2836L446.241 54.9707L443.369 55.6516L443.68 56.9645L443.991 58.2774L446.863 57.5965L446.552 56.2836ZM443.68 56.9645L444.993 56.6533L440.412 37.3289L439.099 37.6402L437.786 37.9514L442.367 57.2758L443.68 56.9645ZM439.099 37.6402L440.247 38.3484L440.31 38.2469L439.161 37.5386L438.013 36.8304L437.95 36.9319L439.099 37.6402Z" fill="#EB562B" mask="url(#path-1-outside-1_74_470)"/>
<rect x="4.06042" y="120.058" width="502.843" height="98.4989" rx="12.8184" transform="rotate(-13.3374 4.06042 120.058)" stroke="#EB562B" stroke-width="6.7465"/>
</g>
<defs>
<filter id="filter0_g_74_470" x="0.632853" y="0.632591" width="518.858" height="218.696" filterUnits="userSpaceOnUse" color-interpolation-filters="sRGB">
<feFlood flood-opacity="0" result="BackgroundImageFix"/>
<feBlend mode="normal" in="SourceGraphic" in2="BackgroundImageFix" result="shape"/>
<feTurbulence type="fractalNoise" baseFrequency="0.107327900826931 0.107327900826931" numOctaves="3" seed="7645" />
<feDisplacementMap in="shape" scale="5.3241381645202637" xChannelSelector="R" yChannelSelector="G" result="displacedImage" width="100%" height="100%" />
<feMerge result="effect1_texture_74_470">
<feMergeNode in="displacedImage"/>
</feMerge>
</filter>
</defs>
</svg>
