<svg width="700" height="200" viewBox="0 0 700 200" fill="none" xmlns="http://www.w3.org/2000/svg">
<rect x="0.5" y="0.5" width="699" height="199" stroke="black"/>
<rect x="1.5" y="82.5" width="659" height="79" fill="white" stroke="black" stroke-width="3"/>
<rect y="27" width="396" height="57" fill="#EB562B"/>
<rect y="81" width="14" height="82" fill="#EB562B"/>
<path d="M41.05 47.05C41.05 50.5167 39.55 53.15 36.55 54.95C38.1833 55.55 39.55 56.5833 40.65 58.05C41.75 59.5167 42.3 61.6 42.3 64.3C42.3 66.9667 41.3 69.0833 39.3 70.65C37.3333 72.2167 34.5 73 30.8 73H19C18.4333 73 17.9667 72.8167 17.6 72.45C17.2333 72.05 17.05 71.5333 17.05 70.9V38.9C17.05 38.5333 17.1 38.3 17.2 38.2C17.3333 38.0667 17.5833 38 17.95 38H29.35C37.15 38 41.05 41.0167 41.05 47.05ZM26.65 46.1V52.65H26.9C30.1 52.65 31.7 51.5833 31.7 49.45C31.7 48.2833 31.3833 47.4333 30.75 46.9C30.15 46.3667 29.1333 46.1 27.7 46.1H26.65ZM26.65 58.55V65.05H27.55C28.9833 65.05 30.0333 64.7833 30.7 64.25C31.3667 63.7167 31.7 62.8667 31.7 61.7C31.7 60.5333 31.3833 59.7167 30.75 59.25C30.15 58.7833 29.1333 58.55 27.7 58.55H26.65ZM55.7375 72.3C55.7375 72.8333 54.1542 73.1 50.9875 73.1C47.7875 73.1 46.1875 72.85 46.1875 72.35V39.75C46.1875 38.5833 46.8042 38 48.0375 38H57.5875C66.3542 38 70.7375 41.4167 70.7375 48.25C70.7375 50.3167 70.3375 52.2 69.5375 53.9C68.7375 55.5667 67.6042 56.9 66.1375 57.9L72.4375 68.4C72.1708 69.2 71.3042 70.1167 69.8375 71.15C67.8375 72.5833 66.1875 73.3 64.8875 73.3C63.5875 73.3 62.6208 72.8333 61.9875 71.9L57.2875 60.95H55.7375V72.3ZM55.7375 46.85V54.35H55.9875C59.1542 54.35 60.7375 53.0333 60.7375 50.4C60.7375 49.2 60.4208 48.3167 59.7875 47.75C59.1875 47.15 58.1875 46.85 56.7875 46.85H55.7375ZM91.9297 51.9C92.563 51.9 92.8797 53.0667 92.8797 55.4C92.8797 56.1 92.7964 56.9333 92.6297 57.9C92.4964 58.8333 92.2297 59.3 91.8297 59.3H85.4797V64.3H94.6797C95.2464 64.3 95.6297 65.0333 95.8297 66.5C95.9297 67.1333 95.9797 67.8167 95.9797 68.55C95.9797 69.25 95.8797 70.1667 95.6797 71.3C95.4797 72.4333 95.1464 73 94.6797 73H77.5797C76.313 73 75.6797 72.4833 75.6797 71.45V39.3C75.6797 38.4333 76.063 38 76.8297 38H94.7297C95.4297 38 95.7797 39.4833 95.7797 42.45C95.7797 45.3833 95.4297 46.85 94.7297 46.85H85.4797V51.9H91.9297ZM123.838 73.1C120.938 73.1 119.371 72.6333 119.138 71.7L117.488 65.25H109.538L108.088 71.45C107.888 72.4833 106.288 73 103.288 73C101.688 73 100.505 72.9167 99.7379 72.75C98.9712 72.55 98.5879 72.4 98.5879 72.3L107.438 38.45C107.438 38.1833 109.721 38.05 114.288 38.05C118.855 38.05 121.138 38.1833 121.138 38.45L129.788 72.35C129.788 72.5833 129.021 72.7667 127.488 72.9C125.955 73.0333 124.738 73.1 123.838 73.1ZM110.788 58.9H116.038L113.788 48.55H113.488L110.788 58.9ZM143.102 72.3C143.102 72.8 141.535 73.05 138.402 73.05L135.602 72.9C133.935 72.7667 133.102 72.5333 133.102 72.2V38.65C133.102 38.0833 134.768 37.8 138.102 37.8C141.435 37.8 143.102 38.0833 143.102 38.65V51.45L149.202 38.65C149.435 38.1833 150.768 37.95 153.202 37.95C157.635 37.95 159.968 38.3333 160.202 39.1C160.202 39.1667 160.185 39.2333 160.152 39.3L151.452 55L161.552 68.95C161.552 69.0167 161.235 69.3 160.602 69.8C159.068 71.1333 157.268 72.1833 155.202 72.95C154.568 73.1833 153.935 73.3 153.302 73.3L152.102 73.2C151.035 72.9333 150.202 72.25 149.602 71.15L143.902 60.25H143.102V72.3ZM167.407 64.4V46.6H163.857C163.291 46.6 162.891 45.8833 162.657 44.45C162.557 43.75 162.507 43.0333 162.507 42.3C162.507 41.5667 162.557 40.85 162.657 40.15C162.891 38.7167 163.291 38 163.857 38H180.657C181.224 38 181.607 38.7167 181.807 40.15C181.941 40.85 182.007 41.5667 182.007 42.3C182.007 43.0333 181.941 43.75 181.807 44.45C181.607 45.8833 181.224 46.6 180.657 46.6H177.307V64.4H180.807C181.374 64.4 181.774 65.1167 182.007 66.55C182.141 67.25 182.207 67.9667 182.207 68.7C182.207 69.4333 182.141 70.15 182.007 70.85C181.774 72.2833 181.374 73 180.807 73H163.957C163.391 73 163.007 72.2833 162.807 70.85C162.674 70.15 162.607 69.4333 162.607 68.7C162.607 67.9667 162.674 67.25 162.807 66.55C163.007 65.1167 163.391 64.4 163.957 64.4H167.407ZM212.943 71.9C212.943 72.6 211.376 72.95 208.243 72.95C205.11 72.95 203.41 72.7 203.143 72.2L194.793 56.6V72.15C194.793 72.75 193.243 73.05 190.143 73.05C187.076 73.05 185.543 72.75 185.543 72.15V38.7C185.543 38.2 186.86 37.95 189.493 37.95C190.526 37.95 191.726 38.05 193.093 38.25C194.493 38.4167 195.343 38.75 195.643 39.25L203.643 54.65V38.95C203.643 38.3167 205.193 38 208.293 38C211.393 38 212.943 38.3167 212.943 38.95V71.9ZM236.465 62.55L236.565 55.75C236.565 55.2833 237.048 54.9833 238.015 54.85C238.982 54.6833 239.782 54.6 240.415 54.6L242.365 54.75C243.632 54.95 244.265 55.3 244.265 55.8L244.065 71.45C243.398 71.9167 242.048 72.3833 240.015 72.85C238.015 73.2833 235.715 73.5 233.115 73.5C228.282 73.5 224.382 71.9333 221.415 68.8C218.448 65.6667 216.965 61.0667 216.965 55C216.965 49.8333 218.415 45.6333 221.315 42.4C224.215 39.1667 228.232 37.55 233.365 37.55C235.698 37.55 237.798 37.7833 239.665 38.25C241.565 38.6833 242.865 39.2833 243.565 40.05C243.598 40.3167 243.615 40.8167 243.615 41.55C243.615 42.2833 243.365 43.3333 242.865 44.7C242.365 46.0333 241.798 47.0333 241.165 47.7C240.532 48.3667 240.065 48.7 239.765 48.7C239.498 48.7 239.198 48.5833 238.865 48.35C238.565 48.0833 237.948 47.8167 237.015 47.55C236.082 47.25 235.182 47.1 234.315 47.1C232.248 47.1 230.565 47.7667 229.265 49.1C227.998 50.4333 227.365 52.5 227.365 55.3C227.365 58.1 228.015 60.2333 229.315 61.7C230.648 63.1333 232.165 63.85 233.865 63.85C235.598 63.85 236.465 63.4167 236.465 62.55ZM285.843 71.9C285.843 72.6 284.277 72.95 281.143 72.95C278.01 72.95 276.31 72.7 276.043 72.2L267.693 56.6V72.15C267.693 72.75 266.143 73.05 263.043 73.05C259.977 73.05 258.443 72.75 258.443 72.15V38.7C258.443 38.2 259.76 37.95 262.393 37.95C263.427 37.95 264.627 38.05 265.993 38.25C267.393 38.4167 268.243 38.75 268.543 39.25L276.543 54.65V38.95C276.543 38.3167 278.093 38 281.193 38C284.293 38 285.843 38.3167 285.843 38.95V71.9ZM307.115 51.9C307.749 51.9 308.065 53.0667 308.065 55.4C308.065 56.1 307.982 56.9333 307.815 57.9C307.682 58.8333 307.415 59.3 307.015 59.3H300.665V64.3H309.865C310.432 64.3 310.815 65.0333 311.015 66.5C311.115 67.1333 311.165 67.8167 311.165 68.55C311.165 69.25 311.065 70.1667 310.865 71.3C310.665 72.4333 310.332 73 309.865 73H292.765C291.499 73 290.865 72.4833 290.865 71.45V39.3C290.865 38.4333 291.249 38 292.015 38H309.915C310.615 38 310.965 39.4833 310.965 42.45C310.965 45.3833 310.615 46.85 309.915 46.85H300.665V51.9H307.115ZM314.073 38.5C313.973 38.1333 315.657 37.95 319.123 37.95C322.957 37.95 324.923 38.2667 325.023 38.9L327.473 59.95L332.773 38.65C332.94 38.15 334.24 37.9 336.673 37.9C339.107 37.9 340.407 38.1333 340.573 38.6L345.773 60.05L348.673 38.8C348.74 38.4333 349.507 38.1833 350.973 38.05C352.44 37.9167 353.623 37.85 354.523 37.85C358.023 37.85 359.723 38.0833 359.623 38.55L353.573 71.7C353.44 72.2 352.49 72.5667 350.723 72.8C348.957 73.0333 347.523 73.15 346.423 73.15C342.29 73.15 340.123 72.6833 339.923 71.75L336.523 58L332.823 71.7C332.69 72.3 331.523 72.7333 329.323 73C328.19 73.1 327.057 73.15 325.923 73.15L322.723 73C320.523 72.7667 319.357 72.35 319.223 71.75L314.073 38.5ZM364.48 60.8C365.113 61.3 366.196 61.9833 367.73 62.85C369.296 63.7167 370.78 64.15 372.18 64.15C373.613 64.15 374.33 63.6 374.33 62.5C374.33 62 374.13 61.5667 373.73 61.2C373.33 60.8 372.596 60.35 371.53 59.85C370.463 59.35 369.663 58.9667 369.13 58.7C368.596 58.4 367.88 57.9333 366.98 57.3C366.113 56.6333 365.446 55.95 364.98 55.25C363.646 53.35 362.98 50.9333 362.98 48C362.98 45.0667 364.063 42.6 366.23 40.6C368.43 38.5667 371.296 37.55 374.83 37.55C377.23 37.55 379.446 37.8167 381.48 38.35C383.513 38.85 384.563 39.5167 384.63 40.35C384.63 40.45 384.63 40.55 384.63 40.65C384.63 41.8167 384.263 43.3 383.53 45.1C382.796 46.8667 382.28 47.85 381.98 48.05C379.846 46.95 377.93 46.4 376.23 46.4C374.563 46.4 373.73 47 373.73 48.2C373.73 48.9333 374.346 49.5833 375.58 50.15C375.846 50.2833 376.23 50.4667 376.73 50.7C377.23 50.9333 377.796 51.2167 378.43 51.55C379.096 51.85 379.796 52.25 380.53 52.75C381.296 53.2167 382.113 53.85 382.98 54.65C384.746 56.3167 385.63 58.5167 385.63 61.25C385.63 64.8167 384.646 67.7333 382.68 70C380.713 72.2667 377.68 73.4333 373.58 73.5C371.58 73.5 369.763 73.3333 368.13 73C366.53 72.6667 365.13 72.0167 363.93 71.05C362.73 70.0833 362.13 68.9167 362.13 67.55C362.13 66.1833 362.38 64.8333 362.88 63.5C363.38 62.1333 363.913 61.2333 364.48 60.8Z" fill="white"/>
<path d="M31.542 99.6H41.276L45.616 130.662H45.74L50.08 99.6H59.814V143H53.366V110.14H53.242L48.282 143H42.578L37.618 110.14H37.494V143H31.542V99.6ZM70.1733 99.6H79.4113L86.4793 143H79.6593L78.4193 134.382V134.506H70.6693L69.4293 143H63.1053L70.1733 99.6ZM77.6133 128.616L74.5753 107.164H74.4513L71.4753 128.616H77.6133ZM91.4001 143.248C90.1601 143.248 89.1061 143.165 88.2381 143V136.8C88.8994 136.965 89.6434 137.048 90.4701 137.048C91.8341 137.048 92.8468 136.717 93.5081 136.056C94.1694 135.353 94.5001 134.299 94.5001 132.894V99.6H101.32V132.708C101.32 136.263 100.493 138.908 98.8401 140.644C97.2281 142.38 94.7481 143.248 91.4001 143.248ZM116.054 143.62C112.706 143.62 110.144 142.669 108.366 140.768C106.589 138.867 105.7 136.18 105.7 132.708V109.892C105.7 106.42 106.589 103.733 108.366 101.832C110.144 99.9307 112.706 98.98 116.054 98.98C119.402 98.98 121.965 99.9307 123.742 101.832C125.52 103.733 126.408 106.42 126.408 109.892V132.708C126.408 136.18 125.52 138.867 123.742 140.768C121.965 142.669 119.402 143.62 116.054 143.62ZM116.054 137.42C118.41 137.42 119.588 135.994 119.588 133.142V109.458C119.588 106.606 118.41 105.18 116.054 105.18C113.698 105.18 112.52 106.606 112.52 109.458V133.142C112.52 135.994 113.698 137.42 116.054 137.42ZM131.021 99.6H141.127C144.64 99.6 147.203 100.427 148.815 102.08C150.427 103.692 151.233 106.193 151.233 109.582V112.248C151.233 116.753 149.745 119.605 146.769 120.804V120.928C148.422 121.424 149.579 122.437 150.241 123.966C150.943 125.495 151.295 127.541 151.295 130.104V137.73C151.295 138.97 151.336 139.983 151.419 140.768C151.501 141.512 151.708 142.256 152.039 143H145.095C144.847 142.297 144.681 141.636 144.599 141.016C144.516 140.396 144.475 139.28 144.475 137.668V129.732C144.475 127.748 144.144 126.363 143.483 125.578C142.863 124.793 141.767 124.4 140.197 124.4H137.841V143H131.021V99.6ZM140.321 118.2C141.685 118.2 142.697 117.849 143.359 117.146C144.061 116.443 144.413 115.265 144.413 113.612V110.264C144.413 108.693 144.123 107.557 143.545 106.854C143.007 106.151 142.139 105.8 140.941 105.8H137.841V118.2H140.321ZM171.226 99.6H180.464L187.532 143H180.712L179.472 134.382V134.506H171.722L170.482 143H164.158L171.226 99.6ZM178.666 128.616L175.628 107.164H175.504L172.528 128.616H178.666ZM190.841 99.6H197.661V143H190.841V99.6ZM212.698 99.6H222.432L226.772 130.662H226.896L231.236 99.6H240.97V143H234.522V110.14H234.398L229.438 143H223.734L218.774 110.14H218.65V143H212.698V99.6ZM255.918 143.62C252.57 143.62 250.007 142.669 248.23 140.768C246.452 138.867 245.564 136.18 245.564 132.708V109.892C245.564 106.42 246.452 103.733 248.23 101.832C250.007 99.9307 252.57 98.98 255.918 98.98C259.266 98.98 261.828 99.9307 263.606 101.832C265.383 103.733 266.272 106.42 266.272 109.892V132.708C266.272 136.18 265.383 138.867 263.606 140.768C261.828 142.669 259.266 143.62 255.918 143.62ZM255.918 137.42C258.274 137.42 259.452 135.994 259.452 133.142V109.458C259.452 106.606 258.274 105.18 255.918 105.18C253.562 105.18 252.384 106.606 252.384 109.458V133.142C252.384 135.994 253.562 137.42 255.918 137.42ZM270.884 99.6H281.3C284.689 99.6 287.231 100.509 288.926 102.328C290.62 104.147 291.468 106.813 291.468 110.326V132.274C291.468 135.787 290.62 138.453 288.926 140.272C287.231 142.091 284.689 143 281.3 143H270.884V99.6ZM281.176 136.8C282.292 136.8 283.139 136.469 283.718 135.808C284.338 135.147 284.648 134.072 284.648 132.584V110.016C284.648 108.528 284.338 107.453 283.718 106.792C283.139 106.131 282.292 105.8 281.176 105.8H277.704V136.8H281.176ZM296.071 99.6H314.671V105.8H302.891V117.27H312.253V123.47H302.891V136.8H314.671V143H296.071V99.6ZM318.595 99.6H325.415V136.8H336.637V143H318.595V99.6ZM349.837 99.6H356.657V136.8H367.879V143H349.837V99.6ZM371.149 99.6H389.749V105.8H377.969V117.27H387.331V123.47H377.969V136.8H389.749V143H371.149V99.6ZM398.943 99.6H408.181L415.249 143H408.429L407.189 134.382V134.506H399.439L398.199 143H391.875L398.943 99.6ZM406.383 128.616L403.345 107.164H403.221L400.245 128.616H406.383ZM418.558 99.6H425.378V117.89L434.058 99.6H440.878L432.756 115.534L441.002 143H433.872L428.106 123.656L425.378 129.174V143H418.558V99.6ZM454.159 99.6H464.265C467.779 99.6 470.341 100.427 471.953 102.08C473.565 103.692 474.371 106.193 474.371 109.582V112.248C474.371 116.753 472.883 119.605 469.907 120.804V120.928C471.561 121.424 472.718 122.437 473.379 123.966C474.082 125.495 474.433 127.541 474.433 130.104V137.73C474.433 138.97 474.475 139.983 474.557 140.768C474.64 141.512 474.847 142.256 475.177 143H468.233C467.985 142.297 467.82 141.636 467.737 141.016C467.655 140.396 467.613 139.28 467.613 137.668V129.732C467.613 127.748 467.283 126.363 466.621 125.578C466.001 124.793 464.906 124.4 463.335 124.4H460.979V143H454.159V99.6ZM463.459 118.2C464.823 118.2 465.836 117.849 466.497 117.146C467.2 116.443 467.551 115.265 467.551 113.612V110.264C467.551 108.693 467.262 107.557 466.683 106.854C466.146 106.151 465.278 105.8 464.079 105.8H460.979V118.2H463.459ZM479.165 99.6H497.765V105.8H485.985V117.27H495.347V123.47H485.985V136.8H497.765V143H479.165V99.6ZM501.688 99.6H511.732C515.122 99.6 517.664 100.509 519.358 102.328C521.053 104.147 521.9 106.813 521.9 110.326V114.604C521.9 118.117 521.053 120.783 519.358 122.602C517.664 124.421 515.122 125.33 511.732 125.33H508.508V143H501.688V99.6ZM511.732 119.13C512.848 119.13 513.675 118.82 514.212 118.2C514.791 117.58 515.08 116.526 515.08 115.038V109.892C515.08 108.404 514.791 107.35 514.212 106.73C513.675 106.11 512.848 105.8 511.732 105.8H508.508V119.13H511.732ZM535.463 143.62C532.115 143.62 529.552 142.669 527.775 140.768C525.997 138.867 525.108 136.18 525.108 132.708V109.892C525.108 106.42 525.997 103.733 527.775 101.832C529.552 99.9307 532.115 98.98 535.463 98.98C538.811 98.98 541.373 99.9307 543.151 101.832C544.928 103.733 545.817 106.42 545.817 109.892V132.708C545.817 136.18 544.928 138.867 543.151 140.768C541.373 142.669 538.811 143.62 535.463 143.62ZM535.463 137.42C537.819 137.42 538.996 135.994 538.996 133.142V109.458C538.996 106.606 537.819 105.18 535.463 105.18C533.107 105.18 531.929 106.606 531.929 109.458V133.142C531.929 135.994 533.107 137.42 535.463 137.42ZM550.429 99.6H560.535C564.048 99.6 566.611 100.427 568.223 102.08C569.835 103.692 570.641 106.193 570.641 109.582V112.248C570.641 116.753 569.153 119.605 566.177 120.804V120.928C567.83 121.424 568.987 122.437 569.649 123.966C570.351 125.495 570.703 127.541 570.703 130.104V137.73C570.703 138.97 570.744 139.983 570.827 140.768C570.909 141.512 571.116 142.256 571.447 143H564.503C564.255 142.297 564.089 141.636 564.007 141.016C563.924 140.396 563.883 139.28 563.883 137.668V129.732C563.883 127.748 563.552 126.363 562.891 125.578C562.271 124.793 561.175 124.4 559.605 124.4H557.249V143H550.429V99.6ZM559.729 118.2C561.093 118.2 562.105 117.849 562.767 117.146C563.469 116.443 563.821 115.265 563.821 113.612V110.264C563.821 108.693 563.531 107.557 562.953 106.854C562.415 106.151 561.547 105.8 560.349 105.8H557.249V118.2H559.729ZM580.645 105.8H573.515V99.6H594.595V105.8H587.465V143H580.645V105.8ZM597.897 99.6H616.497V105.8H604.717V117.27H614.079V123.47H604.717V136.8H616.497V143H597.897V99.6ZM620.421 99.6H630.837C634.226 99.6 636.768 100.509 638.463 102.328C640.158 104.147 641.005 106.813 641.005 110.326V132.274C641.005 135.787 640.158 138.453 638.463 140.272C636.768 142.091 634.226 143 630.837 143H620.421V99.6ZM630.713 136.8C631.829 136.8 632.676 136.469 633.255 135.808C633.875 135.147 634.185 134.072 634.185 132.584V110.016C634.185 108.528 633.875 107.453 633.255 106.792C632.676 106.131 631.829 105.8 630.713 105.8H627.241V136.8H630.713Z" fill="black"/>
</svg>
