<svg width="162" height="162" viewBox="0 0 162 162" fill="none" xmlns="http://www.w3.org/2000/svg">
<rect width="95.942" height="47.971" fill="#F99408"/>
<rect y="113.212" width="95.942" height="47.971" fill="#F5D304"/>
<rect y="56.6058" width="95.942" height="47.971" fill="#FDA3F5"/>
<path d="M47.44 89.044C46.164 89.044 45.4747 88.8387 45.372 88.428L44.646 85.59H41.148L40.51 88.318C40.422 88.7727 39.718 89 38.398 89C37.694 89 37.1733 88.9633 36.836 88.89C36.4987 88.802 36.33 88.736 36.33 88.692L40.224 73.798C40.224 73.6807 41.2287 73.622 43.238 73.622C45.2473 73.622 46.252 73.6807 46.252 73.798L50.058 88.714C50.058 88.8167 49.7207 88.8973 49.046 88.956C48.3713 89.0147 47.836 89.044 47.44 89.044ZM41.698 82.796H44.008L43.018 78.242H42.886L41.698 82.796ZM52.968 85.216V77.384H51.406C51.1567 77.384 50.9807 77.0687 50.878 76.438C50.834 76.13 50.812 75.8147 50.812 75.492C50.812 75.1693 50.834 74.854 50.878 74.546C50.9807 73.9153 51.1567 73.6 51.406 73.6H58.798C59.0473 73.6 59.216 73.9153 59.304 74.546C59.3627 74.854 59.392 75.1693 59.392 75.492C59.392 75.8147 59.3627 76.13 59.304 76.438C59.216 77.0687 59.0473 77.384 58.798 77.384H57.324V85.216H58.864C59.1133 85.216 59.2893 85.5313 59.392 86.162C59.4507 86.47 59.48 86.7853 59.48 87.108C59.48 87.4307 59.4507 87.746 59.392 88.054C59.2893 88.6847 59.1133 89 58.864 89H51.45C51.2007 89 51.032 88.6847 50.944 88.054C50.8853 87.746 50.856 87.4307 50.856 87.108C50.856 86.7853 50.8853 86.47 50.944 86.162C51.032 85.5313 51.2007 85.216 51.45 85.216H52.968Z" fill="black"/>
<path d="M30.5 32.022C29.1947 32.022 28.542 31.8753 28.542 31.582L28.08 22.76L25.396 31.692C25.3373 31.868 24.8387 31.956 23.9 31.956C22.9613 31.956 22.4773 31.8753 22.448 31.714L19.676 22.672L19.368 31.45C19.3533 31.67 19.0747 31.824 18.532 31.912C17.9893 31.9853 17.5347 32.022 17.168 32.022C16.816 32.022 16.4713 32 16.134 31.956C15.43 31.8533 15.0853 31.67 15.1 31.406L15.606 17.106C15.606 16.754 16.5007 16.578 18.29 16.578C18.818 16.578 19.4633 16.622 20.226 16.71C20.9887 16.7833 21.414 16.9373 21.502 17.172L23.966 24.102L26.122 17.15C26.254 16.7687 27.266 16.578 29.158 16.578C29.7007 16.578 30.346 16.622 31.094 16.71C31.8567 16.7833 32.238 16.9227 32.238 17.128L32.876 31.56C32.876 31.7213 32.59 31.8387 32.018 31.912C31.446 31.9853 30.94 32.022 30.5 32.022ZM42.209 22.716C42.4877 22.716 42.627 23.2293 42.627 24.256C42.627 24.564 42.5903 24.9307 42.517 25.356C42.4583 25.7667 42.341 25.972 42.165 25.972H39.371V28.172H43.419C43.6683 28.172 43.837 28.4947 43.925 29.14C43.969 29.4187 43.991 29.7193 43.991 30.042C43.991 30.35 43.947 30.7533 43.859 31.252C43.771 31.7507 43.6243 32 43.419 32H35.895C35.3377 32 35.059 31.7727 35.059 31.318V17.172C35.059 16.7907 35.2277 16.6 35.565 16.6H43.441C43.749 16.6 43.903 17.2527 43.903 18.558C43.903 19.8487 43.749 20.494 43.441 20.494H39.371V22.716H42.209ZM45.9086 30.988V17.788C45.9086 17.4213 45.9966 17.1353 46.1726 16.93C46.3633 16.71 46.6053 16.6 46.8986 16.6H50.5726C52.9046 16.6 54.6719 17.1867 55.8746 18.36C57.0919 19.5333 57.7006 21.3813 57.7006 23.904C57.7006 29.3013 55.3979 32 50.7926 32H47.0306C46.2826 32 45.9086 31.6627 45.9086 30.988ZM50.1326 20.78V27.358C50.1326 27.666 50.1546 27.864 50.1986 27.952C50.2426 28.0253 50.3746 28.062 50.5946 28.062C51.4013 28.062 52.0099 27.7613 52.4206 27.16C52.8459 26.5587 53.0586 25.5613 53.0586 24.168C53.0586 22.76 52.8386 21.8433 52.3986 21.418C51.9733 20.9927 51.2913 20.78 50.3526 20.78H50.1326ZM60.9172 28.216V20.384H59.3552C59.1059 20.384 58.9299 20.0687 58.8272 19.438C58.7832 19.13 58.7612 18.8147 58.7612 18.492C58.7612 18.1693 58.7832 17.854 58.8272 17.546C58.9299 16.9153 59.1059 16.6 59.3552 16.6H66.7472C66.9966 16.6 67.1652 16.9153 67.2532 17.546C67.3119 17.854 67.3412 18.1693 67.3412 18.492C67.3412 18.8147 67.3119 19.13 67.2532 19.438C67.1652 20.0687 66.9966 20.384 66.7472 20.384H65.2732V28.216H66.8132C67.0626 28.216 67.2386 28.5313 67.3412 29.162C67.3999 29.47 67.4292 29.7853 67.4292 30.108C67.4292 30.4307 67.3999 30.746 67.3412 31.054C67.2386 31.6847 67.0626 32 66.8132 32H59.3992C59.1499 32 58.9812 31.6847 58.8932 31.054C58.8346 30.746 58.8052 30.4307 58.8052 30.108C58.8052 29.7853 58.8346 29.47 58.8932 29.162C58.9812 28.5313 59.1499 28.216 59.3992 28.216H60.9172ZM79.2369 32.044C77.9609 32.044 77.2715 31.8387 77.1689 31.428L76.4429 28.59H72.9449L72.3069 31.318C72.2189 31.7727 71.5149 32 70.1949 32C69.4909 32 68.9702 31.9633 68.6329 31.89C68.2955 31.802 68.1269 31.736 68.1269 31.692L72.0209 16.798C72.0209 16.6807 73.0255 16.622 75.0349 16.622C77.0442 16.622 78.0489 16.6807 78.0489 16.798L81.8549 31.714C81.8549 31.8167 81.5175 31.8973 80.8429 31.956C80.1682 32.0147 79.6329 32.044 79.2369 32.044ZM73.4949 25.796H75.8049L74.8149 21.242H74.6829L73.4949 25.796Z" fill="black"/>
<path d="M19.25 136.716C19.5287 136.716 19.668 137.229 19.668 138.256C19.668 138.564 19.6313 138.931 19.558 139.356C19.4993 139.767 19.382 139.972 19.206 139.972H16.412V142.172H20.46C20.7093 142.172 20.878 142.495 20.966 143.14C21.01 143.419 21.032 143.719 21.032 144.042C21.032 144.35 20.988 144.753 20.9 145.252C20.812 145.751 20.6653 146 20.46 146H12.936C12.3787 146 12.1 145.773 12.1 145.318V131.172C12.1 130.791 12.2687 130.6 12.606 130.6H20.482C20.79 130.6 20.944 131.253 20.944 132.558C20.944 133.849 20.79 134.494 20.482 134.494H16.412V136.716H19.25ZM35.0056 145.516C35.0056 145.824 34.3163 145.978 32.9376 145.978C31.5589 145.978 30.8109 145.868 30.6936 145.648L27.0196 138.784V145.626C27.0196 145.89 26.3376 146.022 24.9736 146.022C23.6243 146.022 22.9496 145.89 22.9496 145.626V130.908C22.9496 130.688 23.5289 130.578 24.6876 130.578C25.1423 130.578 25.6703 130.622 26.2716 130.71C26.8876 130.783 27.2616 130.93 27.3936 131.15L30.9136 137.926V131.018C30.9136 130.739 31.5956 130.6 32.9596 130.6C34.3236 130.6 35.0056 130.739 35.0056 131.018V145.516ZM44.3652 136.716C44.6439 136.716 44.7832 137.229 44.7832 138.256C44.7832 138.564 44.7466 138.931 44.6732 139.356C44.6146 139.767 44.4972 139.972 44.3212 139.972H41.5272V142.172H45.5752C45.8246 142.172 45.9932 142.495 46.0812 143.14C46.1252 143.419 46.1472 143.719 46.1472 144.042C46.1472 144.35 46.1032 144.753 46.0152 145.252C45.9272 145.751 45.7806 146 45.5752 146H38.0512C37.4939 146 37.2152 145.773 37.2152 145.318V131.172C37.2152 130.791 37.3839 130.6 37.7212 130.6H45.5972C45.9052 130.6 46.0592 131.253 46.0592 132.558C46.0592 133.849 45.9052 134.494 45.5972 134.494H41.5272V136.716H44.3652ZM52.2668 145.692C52.2668 145.927 51.5702 146.044 50.1768 146.044C48.7688 146.044 48.0648 145.934 48.0648 145.714V131.37C48.0648 130.857 48.3362 130.6 48.8788 130.6H53.0808C56.9382 130.6 58.8668 132.103 58.8668 135.11C58.8668 136.019 58.6908 136.848 58.3388 137.596C57.9868 138.329 57.4882 138.916 56.8428 139.356L59.6148 143.976C59.4975 144.328 59.1162 144.731 58.4708 145.186C57.5908 145.817 56.8648 146.132 56.2928 146.132C55.7208 146.132 55.2955 145.927 55.0168 145.516L52.9488 140.698H52.2668V145.692ZM52.2668 134.494V137.794H52.3768C53.7702 137.794 54.4668 137.215 54.4668 136.056C54.4668 135.528 54.3275 135.139 54.0488 134.89C53.7848 134.626 53.3448 134.494 52.7288 134.494H52.2668ZM69.1814 141.402L69.2254 138.41C69.2254 138.205 69.4381 138.073 69.8634 138.014C70.2887 137.941 70.6407 137.904 70.9194 137.904L71.7774 137.97C72.3347 138.058 72.6134 138.212 72.6134 138.432L72.5254 145.318C72.2321 145.523 71.6381 145.729 70.7434 145.934C69.8634 146.125 68.8514 146.22 67.7074 146.22C65.5807 146.22 63.8647 145.531 62.5594 144.152C61.2541 142.773 60.6014 140.749 60.6014 138.08C60.6014 135.807 61.2394 133.959 62.5154 132.536C63.7914 131.113 65.5587 130.402 67.8174 130.402C68.8441 130.402 69.7681 130.505 70.5894 130.71C71.4254 130.901 71.9974 131.165 72.3054 131.502C72.3201 131.619 72.3274 131.839 72.3274 132.162C72.3274 132.485 72.2174 132.947 71.9974 133.548C71.7774 134.135 71.5281 134.575 71.2494 134.868C70.9707 135.161 70.7654 135.308 70.6334 135.308C70.5161 135.308 70.3841 135.257 70.2374 135.154C70.1054 135.037 69.8341 134.919 69.4234 134.802C69.0127 134.67 68.6167 134.604 68.2354 134.604C67.3261 134.604 66.5854 134.897 66.0134 135.484C65.4561 136.071 65.1774 136.98 65.1774 138.212C65.1774 139.444 65.4634 140.383 66.0354 141.028C66.6221 141.659 67.2894 141.974 68.0374 141.974C68.8001 141.974 69.1814 141.783 69.1814 141.402ZM82.3615 131.326C82.5521 130.813 83.4908 130.556 85.1775 130.556C85.6028 130.556 86.1015 130.585 86.6735 130.644C87.2601 130.703 87.5315 130.776 87.4875 130.864L82.9115 140.06V145.428C82.9115 145.677 82.5081 145.853 81.7015 145.956C81.2908 146.015 80.8875 146.044 80.4915 146.044C80.0955 146.044 79.6995 146.022 79.3035 145.978C78.4968 145.875 78.0935 145.692 78.0935 145.428V140.192L73.3635 130.908C73.3048 130.82 73.6055 130.739 74.2655 130.666C74.9255 130.578 75.4828 130.534 75.9375 130.534C77.7415 130.534 78.7315 130.798 78.9075 131.326L80.5135 135.814L82.3615 131.326Z" fill="black"/>
<path d="M121.888 20.476C121.744 20.332 121.672 20.152 121.672 19.936C121.672 19.696 121.804 19.348 122.068 18.892C122.332 18.412 122.704 18.028 123.184 17.74C123.664 17.452 124.024 17.308 124.264 17.308C124.504 17.308 124.696 17.38 124.84 17.524L128.872 21.592L132.976 17.488C133.12 17.344 133.3 17.272 133.516 17.272C133.756 17.272 134.116 17.416 134.596 17.704C135.076 17.968 135.448 18.34 135.712 18.82C136 19.3 136.144 19.66 136.144 19.9C136.144 20.116 136.072 20.296 135.928 20.44L131.824 24.544L135.892 28.612C136.036 28.756 136.108 28.924 136.108 29.116C136.108 29.284 136.036 29.524 135.892 29.836C135.772 30.148 135.52 30.484 135.136 30.844C134.488 31.468 133.936 31.78 133.48 31.78C133.264 31.78 133.084 31.708 132.94 31.564L128.872 27.496L124.876 31.492C124.708 31.66 124.456 31.744 124.12 31.744C123.784 31.744 123.292 31.42 122.644 30.772C121.996 30.124 121.672 29.632 121.672 29.296C121.672 28.96 121.756 28.708 121.924 28.54L125.92 24.544L121.888 20.476ZM159.574 36.388C159.574 36.796 158.35 37 155.902 37C153.478 37 152.266 36.796 152.266 36.388V18.64L148.378 18.676C147.658 18.676 147.298 17.524 147.298 15.22C147.298 14.428 147.37 13.66 147.514 12.916C147.682 12.172 147.958 11.8 148.342 11.8H158.206C158.614 11.8 158.938 11.896 159.178 12.088C159.442 12.256 159.574 12.472 159.574 12.736V36.388Z" fill="black"/>
<path d="M121.888 75.476C121.744 75.332 121.672 75.152 121.672 74.936C121.672 74.696 121.804 74.348 122.068 73.892C122.332 73.412 122.704 73.028 123.184 72.74C123.664 72.452 124.024 72.308 124.264 72.308C124.504 72.308 124.696 72.38 124.84 72.524L128.872 76.592L132.976 72.488C133.12 72.344 133.3 72.272 133.516 72.272C133.756 72.272 134.116 72.416 134.596 72.704C135.076 72.968 135.448 73.34 135.712 73.82C136 74.3 136.144 74.66 136.144 74.9C136.144 75.116 136.072 75.296 135.928 75.44L131.824 79.544L135.892 83.612C136.036 83.756 136.108 83.924 136.108 84.116C136.108 84.284 136.036 84.524 135.892 84.836C135.772 85.148 135.52 85.484 135.136 85.844C134.488 86.468 133.936 86.78 133.48 86.78C133.264 86.78 133.084 86.708 132.94 86.564L128.872 82.496L124.876 86.492C124.708 86.66 124.456 86.744 124.12 86.744C123.784 86.744 123.292 86.42 122.644 85.772C121.996 85.124 121.672 84.632 121.672 84.296C121.672 83.96 121.756 83.708 121.924 83.54L125.92 79.544L121.888 75.476ZM159.574 91.388C159.574 91.796 158.35 92 155.902 92C153.478 92 152.266 91.796 152.266 91.388V73.64L148.378 73.676C147.658 73.676 147.298 72.524 147.298 70.22C147.298 69.428 147.37 68.66 147.514 67.916C147.682 67.172 147.958 66.8 148.342 66.8H158.206C158.614 66.8 158.938 66.896 159.178 67.088C159.442 67.256 159.574 67.472 159.574 67.736V91.388Z" fill="black"/>
<path d="M120.888 134.476C120.744 134.332 120.672 134.152 120.672 133.936C120.672 133.696 120.804 133.348 121.068 132.892C121.332 132.412 121.704 132.028 122.184 131.74C122.664 131.452 123.024 131.308 123.264 131.308C123.504 131.308 123.696 131.38 123.84 131.524L127.872 135.592L131.976 131.488C132.12 131.344 132.3 131.272 132.516 131.272C132.756 131.272 133.116 131.416 133.596 131.704C134.076 131.968 134.448 132.34 134.712 132.82C135 133.3 135.144 133.66 135.144 133.9C135.144 134.116 135.072 134.296 134.928 134.44L130.824 138.544L134.892 142.612C135.036 142.756 135.108 142.924 135.108 143.116C135.108 143.284 135.036 143.524 134.892 143.836C134.772 144.148 134.52 144.484 134.136 144.844C133.488 145.468 132.936 145.78 132.48 145.78C132.264 145.78 132.084 145.708 131.94 145.564L127.872 141.496L123.876 145.492C123.708 145.66 123.456 145.744 123.12 145.744C122.784 145.744 122.292 145.42 121.644 144.772C120.996 144.124 120.672 143.632 120.672 143.296C120.672 142.96 120.756 142.708 120.924 142.54L124.92 138.544L120.888 134.476ZM158.574 150.388C158.574 150.796 157.35 151 154.902 151C152.478 151 151.266 150.796 151.266 150.388V132.64L147.378 132.676C146.658 132.676 146.298 131.524 146.298 129.22C146.298 128.428 146.37 127.66 146.514 126.916C146.682 126.172 146.958 125.8 147.342 125.8H157.206C157.614 125.8 157.938 125.896 158.178 126.088C158.442 126.256 158.574 126.472 158.574 126.736V150.388Z" fill="black"/>
</svg>
