<svg width="327" height="395" viewBox="0 0 327 395" fill="none" xmlns="http://www.w3.org/2000/svg">
<path d="M11.368 4.328C11.5067 3.95467 12.1893 3.768 13.416 3.768C13.7253 3.768 14.088 3.78933 14.504 3.832C14.9307 3.87467 15.128 3.928 15.096 3.992L11.768 10.68V14.584C11.768 14.7653 11.4747 14.8933 10.888 14.968C10.5893 15.0107 10.296 15.032 10.008 15.032C9.72 15.032 9.432 15.016 9.144 14.984C8.55733 14.9093 8.264 14.776 8.264 14.584V10.776L4.824 4.024C4.78133 3.96 5 3.90133 5.48 3.848C5.96 3.784 6.36533 3.752 6.696 3.752C8.008 3.752 8.728 3.944 8.856 4.328L10.024 7.592L11.368 4.328ZM20.3958 15.16C18.9024 15.16 17.6811 14.6693 16.7318 13.688C15.7931 12.7067 15.3238 11.2773 15.3238 9.4C15.3238 7.512 15.7984 6.08267 16.7478 5.112C17.7078 4.14133 18.9398 3.656 20.4438 3.656C21.9584 3.656 23.1798 4.136 24.1078 5.096C25.0358 6.04533 25.4998 7.49067 25.4998 9.432C25.4998 11.3627 25.0251 12.8027 24.0758 13.752C23.1264 14.6907 21.8998 15.16 20.3958 15.16ZM20.4118 6.728C19.8998 6.728 19.4678 6.96267 19.1158 7.432C18.7744 7.90133 18.6038 8.56267 18.6038 9.416C18.6038 10.2587 18.7691 10.9093 19.0998 11.368C19.4304 11.816 19.8624 12.04 20.3958 12.04C20.9398 12.04 21.3771 11.8107 21.7078 11.352C22.0491 10.8933 22.2198 10.2373 22.2198 9.384C22.2198 8.53067 22.0438 7.87467 21.6918 7.416C21.3504 6.95733 20.9238 6.728 20.4118 6.728ZM32.0164 4.12C32.0164 3.90667 32.5924 3.8 33.7444 3.8C34.907 3.8 35.4884 3.90667 35.4884 4.12V11.464C35.4884 12.552 35.099 13.4427 34.3204 14.136C33.5417 14.8187 32.4644 15.16 31.0884 15.16C29.723 15.16 28.6084 14.808 27.7444 14.104C26.891 13.3893 26.4644 12.4293 26.4644 11.224V4.136C26.4644 3.92267 27.0404 3.816 28.1924 3.816C29.355 3.816 29.9364 3.92267 29.9364 4.136V11.352C29.9364 11.5653 30.0484 11.736 30.2724 11.864C30.507 11.992 30.7524 12.056 31.0084 12.056C31.2644 12.056 31.4937 11.9973 31.6964 11.88C31.9097 11.7627 32.0164 11.5867 32.0164 11.352V4.12Z" fill="black"/>
<circle cx="21" cy="39" r="18.5" fill="#F5D304" stroke="black" stroke-width="3"/>
<circle cx="20" cy="146" r="18.5" fill="#FDA3F5" stroke="black" stroke-width="3"/>
<circle cx="20" cy="254" r="18.5" fill="#00E16D" stroke="black" stroke-width="3"/>
<circle cx="20" cy="361" r="18.5" fill="#07A5E2" stroke="black" stroke-width="3"/>
<path d="M68.1201 33.9137V35.6294C69.6051 35.6896 70.8893 35.9002 71.9729 36.2614C73.0565 36.6026 73.5983 37.1243 73.5983 37.8266C73.5983 38.4487 73.3876 39.2714 72.9662 40.2948C72.5648 41.3182 72.2839 41.8599 72.1234 41.9201C70.4378 41.2178 69.1034 40.8265 68.1201 40.7463V44.1475C72.3341 44.308 74.441 46.3347 74.441 50.2276C74.441 52.0536 73.9193 53.6188 72.8759 54.9231C71.8324 56.2274 70.2472 56.99 68.1201 57.2107V59.2876C68.1201 59.6488 68.0098 59.8896 67.7891 60.01C67.5884 60.1303 67.4178 60.1905 67.2774 60.1905L66.856 60.0701C66.575 59.9096 66.4346 59.6488 66.4346 59.2876V57.301C64.749 57.2609 63.2541 56.9599 61.9498 56.398C60.6655 55.8362 60.0234 55.1238 60.0234 54.2609C60.0234 53.1372 60.3645 52.0035 61.0468 50.8597C61.107 50.7393 61.1872 50.6089 61.2876 50.4684C62.9129 51.4517 64.6286 52.0035 66.4346 52.1239V48.8129C62.1604 48.5521 60.0234 46.3648 60.0234 42.2512C60.0234 40.4453 60.5953 38.9604 61.7391 37.7965C62.8828 36.6327 64.448 35.9303 66.4346 35.6896V33.9137C66.4346 33.5525 66.5349 33.3117 66.7356 33.1913C66.9563 33.0709 67.1369 33.0107 67.2774 33.0107L67.6988 33.1311C67.9797 33.2916 68.1201 33.5525 68.1201 33.9137ZM70.2572 50.0771C70.2572 49.6156 70.0967 49.3046 69.7756 49.144C69.4746 48.9634 68.9228 48.8531 68.1201 48.8129V52.0637C69.5449 51.8229 70.2572 51.1607 70.2572 50.0771ZM64.5985 42.5823C64.5985 43.4251 65.2105 43.9167 66.4346 44.0572V40.7764C65.2105 40.977 64.5985 41.579 64.5985 42.5823ZM104.066 57H84.0804C82.6758 57 81.6925 55.6355 81.1307 52.9065C80.8497 51.4216 80.7093 50.2978 80.7093 49.5353C80.7093 48.7728 80.8297 48.2711 81.0705 48.0303C90.0602 38.7597 94.555 32.4589 94.555 29.1279C94.555 28.0041 94.254 27.1614 93.6521 26.5995C93.0902 26.0376 92.1671 25.7567 90.8829 25.7567C89.6388 25.7567 88.3746 25.9975 87.0904 26.4791C85.8462 26.9607 84.863 27.4824 84.1406 28.0443C82.5754 26.158 81.4919 24.1715 80.8899 22.0846C80.6892 21.4023 80.5889 20.7803 80.5889 20.2184C80.5889 19.6164 80.6892 19.0546 80.8899 18.5328C81.2109 17.4894 82.6958 16.5061 85.3446 15.5831C88.0335 14.66 90.8628 14.1985 93.8326 14.1985C102.822 14.1985 107.317 18.1917 107.317 26.1781C107.317 29.7098 106.113 33.3017 103.705 36.9537C101.297 40.5657 98.488 43.696 95.2774 46.3448L107.438 45.8632C107.638 47.9902 107.739 49.8363 107.739 51.4015C107.739 52.9667 107.418 54.291 106.775 55.3746C106.133 56.4582 105.23 57 104.066 57ZM135.333 14.8607C136.096 14.8607 136.477 16.5262 136.477 19.8572C136.477 20.9007 136.377 22.1448 136.176 23.5896C136.016 24.9942 135.694 25.6965 135.213 25.6965H123.474L123.414 30.091H125.4C129.695 30.091 132.885 31.3352 134.972 33.8234C137.099 36.3116 138.163 39.6025 138.163 43.696C138.163 47.7896 136.718 51.1406 133.828 53.7493C130.939 56.3177 127.226 57.602 122.691 57.602C118.156 57.602 114.846 56.9599 112.759 55.6756C112.438 55.1539 112.277 54.3512 112.277 53.2677C112.277 52.1439 112.438 50.5788 112.759 48.5721C113.08 46.5254 113.521 45.502 114.083 45.502C114.123 45.502 114.244 45.5823 114.444 45.7428C117.294 46.9066 119.461 47.4886 120.946 47.4886C122.471 47.4886 123.715 47.0872 124.678 46.2846C125.681 45.4418 126.183 44.3783 126.183 43.094C126.183 39.8834 124.457 38.2781 121.006 38.2781L115.829 38.3383C115.427 38.4186 115.026 38.258 114.625 37.8567C114.223 37.4153 114.023 36.8534 114.023 36.1711V17.3289C114.023 15.6834 114.625 14.8607 115.829 14.8607H135.333ZM160.401 57.602C155.384 57.602 151.271 55.7559 148.06 52.0637C144.89 48.3715 143.304 42.9736 143.304 35.8701C143.304 28.7667 144.91 23.409 148.12 19.797C151.331 16.1449 155.465 14.3189 160.521 14.3189C165.618 14.3189 169.732 16.1249 172.862 19.7368C175.993 23.3488 177.558 28.7867 177.558 36.0507C177.558 43.3148 175.952 48.7327 172.742 52.3045C169.571 55.8362 165.458 57.602 160.401 57.602ZM160.401 25.8771C158.876 25.8771 157.572 26.76 156.488 28.5259C155.445 30.2516 154.923 32.7197 154.923 35.9303C154.923 39.141 155.425 41.6091 156.428 43.3348C157.471 45.0204 158.796 45.8632 160.401 45.8632C162.046 45.8632 163.371 45.0003 164.374 43.2746C165.418 41.5489 165.939 39.0808 165.939 35.8701C165.939 32.6595 165.398 30.1914 164.314 28.4657C163.27 26.74 161.966 25.8771 160.401 25.8771Z" fill="black"/>
<path d="M67.1201 143.914V145.629C68.6051 145.69 69.8893 145.9 70.9729 146.261C72.0565 146.603 72.5983 147.124 72.5983 147.827C72.5983 148.449 72.3876 149.271 71.9662 150.295C71.5648 151.318 71.2839 151.86 71.1234 151.92C69.4378 151.218 68.1034 150.827 67.1201 150.746V154.148C71.3341 154.308 73.441 156.335 73.441 160.228C73.441 162.054 72.9193 163.619 71.8759 164.923C70.8324 166.227 69.2472 166.99 67.1201 167.211V169.288C67.1201 169.649 67.0098 169.89 66.7891 170.01C66.5884 170.13 66.4178 170.191 66.2774 170.191L65.856 170.07C65.575 169.91 65.4346 169.649 65.4346 169.288V167.301C63.749 167.261 62.2541 166.96 60.9498 166.398C59.6655 165.836 59.0234 165.124 59.0234 164.261C59.0234 163.137 59.3645 162.003 60.0468 160.86C60.107 160.739 60.1872 160.609 60.2876 160.468C61.9129 161.452 63.6286 162.003 65.4346 162.124V158.813C61.1604 158.552 59.0234 156.365 59.0234 152.251C59.0234 150.445 59.5953 148.96 60.7391 147.797C61.8828 146.633 63.448 145.93 65.4346 145.69V143.914C65.4346 143.552 65.5349 143.312 65.7356 143.191C65.9563 143.071 66.1369 143.011 66.2774 143.011L66.6988 143.131C66.9797 143.292 67.1201 143.552 67.1201 143.914ZM69.2572 160.077C69.2572 159.616 69.0967 159.305 68.7756 159.144C68.4746 158.963 67.9228 158.853 67.1201 158.813V162.064C68.5449 161.823 69.2572 161.161 69.2572 160.077ZM63.5985 152.582C63.5985 153.425 64.2105 153.917 65.4346 154.057V150.776C64.2105 150.977 63.5985 151.579 63.5985 152.582ZM103.066 167H83.0804C81.6758 167 80.6925 165.635 80.1307 162.906C79.8497 161.422 79.7093 160.298 79.7093 159.535C79.7093 158.773 79.8297 158.271 80.0705 158.03C89.0602 148.76 93.555 142.459 93.555 139.128C93.555 138.004 93.254 137.161 92.6521 136.6C92.0902 136.038 91.1671 135.757 89.8829 135.757C88.6388 135.757 87.3746 135.998 86.0904 136.479C84.8462 136.961 83.863 137.482 83.1406 138.044C81.5754 136.158 80.4919 134.171 79.8899 132.085C79.6892 131.402 79.5889 130.78 79.5889 130.218C79.5889 129.616 79.6892 129.055 79.8899 128.533C80.2109 127.489 81.6958 126.506 84.3446 125.583C87.0335 124.66 89.8628 124.199 92.8326 124.199C101.822 124.199 106.317 128.192 106.317 136.178C106.317 139.71 105.113 143.302 102.705 146.954C100.297 150.566 97.488 153.696 94.2774 156.345L106.438 155.863C106.638 157.99 106.739 159.836 106.739 161.401C106.739 162.967 106.418 164.291 105.775 165.375C105.133 166.458 104.23 167 103.066 167ZM134.333 124.861C135.096 124.861 135.477 126.526 135.477 129.857C135.477 130.901 135.377 132.145 135.176 133.59C135.016 134.994 134.694 135.697 134.213 135.697H122.474L122.414 140.091H124.4C128.695 140.091 131.885 141.335 133.972 143.823C136.099 146.312 137.163 149.602 137.163 153.696C137.163 157.79 135.718 161.141 132.828 163.749C129.939 166.318 126.226 167.602 121.691 167.602C117.156 167.602 113.846 166.96 111.759 165.676C111.438 165.154 111.277 164.351 111.277 163.268C111.277 162.144 111.438 160.579 111.759 158.572C112.08 156.525 112.521 155.502 113.083 155.502C113.123 155.502 113.244 155.582 113.444 155.743C116.294 156.907 118.461 157.489 119.946 157.489C121.471 157.489 122.715 157.087 123.678 156.285C124.681 155.442 125.183 154.378 125.183 153.094C125.183 149.883 123.457 148.278 120.006 148.278L114.829 148.338C114.427 148.419 114.026 148.258 113.625 147.857C113.223 147.415 113.023 146.853 113.023 146.171V127.329C113.023 125.683 113.625 124.861 114.829 124.861H134.333ZM159.401 167.602C154.384 167.602 150.271 165.756 147.06 162.064C143.89 158.371 142.304 152.974 142.304 145.87C142.304 138.767 143.91 133.409 147.12 129.797C150.331 126.145 154.465 124.319 159.521 124.319C164.618 124.319 168.732 126.125 171.862 129.737C174.993 133.349 176.558 138.787 176.558 146.051C176.558 153.315 174.952 158.733 171.742 162.304C168.571 165.836 164.458 167.602 159.401 167.602ZM159.401 135.877C157.876 135.877 156.572 136.76 155.488 138.526C154.445 140.252 153.923 142.72 153.923 145.93C153.923 149.141 154.425 151.609 155.428 153.335C156.471 155.02 157.796 155.863 159.401 155.863C161.046 155.863 162.371 155 163.374 153.275C164.418 151.549 164.939 149.081 164.939 145.87C164.939 142.66 164.398 140.191 163.314 138.466C162.27 136.74 160.966 135.877 159.401 135.877Z" fill="black"/>
<path d="M67.1201 251.914V253.629C68.6051 253.69 69.8893 253.9 70.9729 254.261C72.0565 254.603 72.5983 255.124 72.5983 255.827C72.5983 256.449 72.3876 257.271 71.9662 258.295C71.5648 259.318 71.2839 259.86 71.1234 259.92C69.4378 259.218 68.1034 258.827 67.1201 258.746V262.148C71.3341 262.308 73.441 264.335 73.441 268.228C73.441 270.054 72.9193 271.619 71.8759 272.923C70.8324 274.227 69.2472 274.99 67.1201 275.211V277.288C67.1201 277.649 67.0098 277.89 66.7891 278.01C66.5884 278.13 66.4178 278.191 66.2774 278.191L65.856 278.07C65.575 277.91 65.4346 277.649 65.4346 277.288V275.301C63.749 275.261 62.2541 274.96 60.9498 274.398C59.6655 273.836 59.0234 273.124 59.0234 272.261C59.0234 271.137 59.3645 270.003 60.0468 268.86C60.107 268.739 60.1872 268.609 60.2876 268.468C61.9129 269.452 63.6286 270.003 65.4346 270.124V266.813C61.1604 266.552 59.0234 264.365 59.0234 260.251C59.0234 258.445 59.5953 256.96 60.7391 255.797C61.8828 254.633 63.448 253.93 65.4346 253.69V251.914C65.4346 251.552 65.5349 251.312 65.7356 251.191C65.9563 251.071 66.1369 251.011 66.2774 251.011L66.6988 251.131C66.9797 251.292 67.1201 251.552 67.1201 251.914ZM69.2572 268.077C69.2572 267.616 69.0967 267.305 68.7756 267.144C68.4746 266.963 67.9228 266.853 67.1201 266.813V270.064C68.5449 269.823 69.2572 269.161 69.2572 268.077ZM63.5985 260.582C63.5985 261.425 64.2105 261.917 65.4346 262.057V258.776C64.2105 258.977 63.5985 259.579 63.5985 260.582ZM103.066 275H83.0804C81.6758 275 80.6925 273.635 80.1307 270.906C79.8497 269.422 79.7093 268.298 79.7093 267.535C79.7093 266.773 79.8297 266.271 80.0705 266.03C89.0602 256.76 93.555 250.459 93.555 247.128C93.555 246.004 93.254 245.161 92.6521 244.6C92.0902 244.038 91.1671 243.757 89.8829 243.757C88.6388 243.757 87.3746 243.998 86.0904 244.479C84.8462 244.961 83.863 245.482 83.1406 246.044C81.5754 244.158 80.4919 242.171 79.8899 240.085C79.6892 239.402 79.5889 238.78 79.5889 238.218C79.5889 237.616 79.6892 237.055 79.8899 236.533C80.2109 235.489 81.6958 234.506 84.3446 233.583C87.0335 232.66 89.8628 232.199 92.8326 232.199C101.822 232.199 106.317 236.192 106.317 244.178C106.317 247.71 105.113 251.302 102.705 254.954C100.297 258.566 97.488 261.696 94.2774 264.345L106.438 263.863C106.638 265.99 106.739 267.836 106.739 269.401C106.739 270.967 106.418 272.291 105.775 273.375C105.133 274.458 104.23 275 103.066 275ZM134.333 232.861C135.096 232.861 135.477 234.526 135.477 237.857C135.477 238.901 135.377 240.145 135.176 241.59C135.016 242.994 134.694 243.697 134.213 243.697H122.474L122.414 248.091H124.4C128.695 248.091 131.885 249.335 133.972 251.823C136.099 254.312 137.163 257.602 137.163 261.696C137.163 265.79 135.718 269.141 132.828 271.749C129.939 274.318 126.226 275.602 121.691 275.602C117.156 275.602 113.846 274.96 111.759 273.676C111.438 273.154 111.277 272.351 111.277 271.268C111.277 270.144 111.438 268.579 111.759 266.572C112.08 264.525 112.521 263.502 113.083 263.502C113.123 263.502 113.244 263.582 113.444 263.743C116.294 264.907 118.461 265.489 119.946 265.489C121.471 265.489 122.715 265.087 123.678 264.285C124.681 263.442 125.183 262.378 125.183 261.094C125.183 257.883 123.457 256.278 120.006 256.278L114.829 256.338C114.427 256.419 114.026 256.258 113.625 255.857C113.223 255.415 113.023 254.853 113.023 254.171V235.329C113.023 233.683 113.625 232.861 114.829 232.861H134.333ZM159.401 275.602C154.384 275.602 150.271 273.756 147.06 270.064C143.89 266.371 142.304 260.974 142.304 253.87C142.304 246.767 143.91 241.409 147.12 237.797C150.331 234.145 154.465 232.319 159.521 232.319C164.618 232.319 168.732 234.125 171.862 237.737C174.993 241.349 176.558 246.787 176.558 254.051C176.558 261.315 174.952 266.733 171.742 270.304C168.571 273.836 164.458 275.602 159.401 275.602ZM159.401 243.877C157.876 243.877 156.572 244.76 155.488 246.526C154.445 248.252 153.923 250.72 153.923 253.93C153.923 257.141 154.425 259.609 155.428 261.335C156.471 263.02 157.796 263.863 159.401 263.863C161.046 263.863 162.371 263 163.374 261.275C164.418 259.549 164.939 257.081 164.939 253.87C164.939 250.66 164.398 248.191 163.314 246.466C162.27 244.74 160.966 243.877 159.401 243.877Z" fill="black"/>
<path d="M67.1201 358.914V360.629C68.6051 360.69 69.8893 360.9 70.9729 361.261C72.0565 361.603 72.5983 362.124 72.5983 362.827C72.5983 363.449 72.3876 364.271 71.9662 365.295C71.5648 366.318 71.2839 366.86 71.1234 366.92C69.4378 366.218 68.1034 365.827 67.1201 365.746V369.148C71.3341 369.308 73.441 371.335 73.441 375.228C73.441 377.054 72.9193 378.619 71.8759 379.923C70.8324 381.227 69.2472 381.99 67.1201 382.211V384.288C67.1201 384.649 67.0098 384.89 66.7891 385.01C66.5884 385.13 66.4178 385.191 66.2774 385.191L65.856 385.07C65.575 384.91 65.4346 384.649 65.4346 384.288V382.301C63.749 382.261 62.2541 381.96 60.9498 381.398C59.6655 380.836 59.0234 380.124 59.0234 379.261C59.0234 378.137 59.3645 377.003 60.0468 375.86C60.107 375.739 60.1872 375.609 60.2876 375.468C61.9129 376.452 63.6286 377.003 65.4346 377.124V373.813C61.1604 373.552 59.0234 371.365 59.0234 367.251C59.0234 365.445 59.5953 363.96 60.7391 362.797C61.8828 361.633 63.448 360.93 65.4346 360.69V358.914C65.4346 358.552 65.5349 358.312 65.7356 358.191C65.9563 358.071 66.1369 358.011 66.2774 358.011L66.6988 358.131C66.9797 358.292 67.1201 358.552 67.1201 358.914ZM69.2572 375.077C69.2572 374.616 69.0967 374.305 68.7756 374.144C68.4746 373.963 67.9228 373.853 67.1201 373.813V377.064C68.5449 376.823 69.2572 376.161 69.2572 375.077ZM63.5985 367.582C63.5985 368.425 64.2105 368.917 65.4346 369.057V365.776C64.2105 365.977 63.5985 366.579 63.5985 367.582ZM103.066 382H83.0804C81.6758 382 80.6925 380.635 80.1307 377.906C79.8497 376.422 79.7093 375.298 79.7093 374.535C79.7093 373.773 79.8297 373.271 80.0705 373.03C89.0602 363.76 93.555 357.459 93.555 354.128C93.555 353.004 93.254 352.161 92.6521 351.6C92.0902 351.038 91.1671 350.757 89.8829 350.757C88.6388 350.757 87.3746 350.998 86.0904 351.479C84.8462 351.961 83.863 352.482 83.1406 353.044C81.5754 351.158 80.4919 349.171 79.8899 347.085C79.6892 346.402 79.5889 345.78 79.5889 345.218C79.5889 344.616 79.6892 344.055 79.8899 343.533C80.2109 342.489 81.6958 341.506 84.3446 340.583C87.0335 339.66 89.8628 339.199 92.8326 339.199C101.822 339.199 106.317 343.192 106.317 351.178C106.317 354.71 105.113 358.302 102.705 361.954C100.297 365.566 97.488 368.696 94.2774 371.345L106.438 370.863C106.638 372.99 106.739 374.836 106.739 376.401C106.739 377.967 106.418 379.291 105.775 380.375C105.133 381.458 104.23 382 103.066 382ZM134.333 339.861C135.096 339.861 135.477 341.526 135.477 344.857C135.477 345.901 135.377 347.145 135.176 348.59C135.016 349.994 134.694 350.697 134.213 350.697H122.474L122.414 355.091H124.4C128.695 355.091 131.885 356.335 133.972 358.823C136.099 361.312 137.163 364.602 137.163 368.696C137.163 372.79 135.718 376.141 132.828 378.749C129.939 381.318 126.226 382.602 121.691 382.602C117.156 382.602 113.846 381.96 111.759 380.676C111.438 380.154 111.277 379.351 111.277 378.268C111.277 377.144 111.438 375.579 111.759 373.572C112.08 371.525 112.521 370.502 113.083 370.502C113.123 370.502 113.244 370.582 113.444 370.743C116.294 371.907 118.461 372.489 119.946 372.489C121.471 372.489 122.715 372.087 123.678 371.285C124.681 370.442 125.183 369.378 125.183 368.094C125.183 364.883 123.457 363.278 120.006 363.278L114.829 363.338C114.427 363.419 114.026 363.258 113.625 362.857C113.223 362.415 113.023 361.853 113.023 361.171V342.329C113.023 340.683 113.625 339.861 114.829 339.861H134.333ZM159.401 382.602C154.384 382.602 150.271 380.756 147.06 377.064C143.89 373.371 142.304 367.974 142.304 360.87C142.304 353.767 143.91 348.409 147.12 344.797C150.331 341.145 154.465 339.319 159.521 339.319C164.618 339.319 168.732 341.125 171.862 344.737C174.993 348.349 176.558 353.787 176.558 361.051C176.558 368.315 174.952 373.733 171.742 377.304C168.571 380.836 164.458 382.602 159.401 382.602ZM159.401 350.877C157.876 350.877 156.572 351.76 155.488 353.526C154.445 355.252 153.923 357.72 153.923 360.93C153.923 364.141 154.425 366.609 155.428 368.335C156.471 370.02 157.796 370.863 159.401 370.863C161.046 370.863 162.371 370 163.374 368.275C164.418 366.549 164.939 364.081 164.939 360.87C164.939 357.66 164.398 355.191 163.314 353.466C162.27 351.74 160.966 350.877 159.401 350.877Z" fill="black"/>
<path d="M227.272 33.32C225.587 33.32 224.296 32.84 223.4 31.88C222.525 30.92 222.088 29.5653 222.088 27.816V15.784C222.088 14.0347 222.525 12.68 223.4 11.72C224.296 10.76 225.587 10.28 227.272 10.28C228.957 10.28 230.237 10.76 231.112 11.72C232.008 12.68 232.456 14.0347 232.456 15.784V18.152H229.128V15.56C229.128 14.1733 228.541 13.48 227.368 13.48C226.195 13.48 225.608 14.1733 225.608 15.56V28.072C225.608 29.4373 226.195 30.12 227.368 30.12C228.541 30.12 229.128 29.4373 229.128 28.072V24.648H232.456V27.816C232.456 29.5653 232.008 30.92 231.112 31.88C230.237 32.84 228.957 33.32 227.272 33.32ZM237.282 10.6H242.05L245.698 33H242.178L241.538 28.552V28.616H237.538L236.898 33H233.634L237.282 10.6ZM241.122 25.576L239.554 14.504H239.49L237.954 25.576H241.122ZM251.888 33.32C250.181 33.32 248.891 32.84 248.016 31.88C247.141 30.8987 246.704 29.5013 246.704 27.688V26.408H250.032V27.944C250.032 29.3947 250.64 30.12 251.856 30.12C252.453 30.12 252.901 29.9493 253.2 29.608C253.52 29.2453 253.68 28.6693 253.68 27.88C253.68 26.9413 253.467 26.12 253.04 25.416C252.613 24.6907 251.824 23.8267 250.672 22.824C249.221 21.544 248.208 20.392 247.632 19.368C247.056 18.3227 246.768 17.1493 246.768 15.848C246.768 14.0773 247.216 12.712 248.112 11.752C249.008 10.7707 250.309 10.28 252.016 10.28C253.701 10.28 254.971 10.7707 255.824 11.752C256.699 12.712 257.136 14.0987 257.136 15.912V16.84H253.808V15.688C253.808 14.92 253.659 14.3653 253.36 14.024C253.061 13.6613 252.624 13.48 252.048 13.48C250.875 13.48 250.288 14.1947 250.288 15.624C250.288 16.4347 250.501 17.192 250.928 17.896C251.376 18.6 252.176 19.4533 253.328 20.456C254.8 21.736 255.813 22.8987 256.368 23.944C256.923 24.9893 257.2 26.216 257.2 27.624C257.2 29.4587 256.741 30.8667 255.824 31.848C254.928 32.8293 253.616 33.32 251.888 33.32ZM259.218 10.6H262.738V19.72H266.514V10.6H270.034V33H266.514V22.92H262.738V33H259.218V10.6ZM292.959 15.912H289.279V13.416C290.281 13.416 291.081 13.3307 291.679 13.16C292.297 12.9893 292.788 12.712 293.151 12.328C293.513 11.9227 293.833 11.3467 294.111 10.6H296.479V33H292.959V15.912ZM305.995 33.32C304.289 33.32 302.987 32.84 302.091 31.88C301.195 30.8987 300.747 29.5013 300.747 27.688V25.928H304.075V27.944C304.075 29.3947 304.683 30.12 305.899 30.12C307.115 30.12 307.723 29.3947 307.723 27.944V22.92C307.723 21.448 307.115 20.712 305.899 20.712C304.683 20.712 304.075 21.448 304.075 22.92V23.112H300.747L301.387 10.6H310.667V13.8H304.523L304.235 19.144H304.299C304.961 18.056 305.974 17.512 307.339 17.512C308.619 17.512 309.59 17.9493 310.251 18.824C310.913 19.6987 311.243 20.968 311.243 22.632V27.688C311.243 29.5013 310.795 30.8987 309.899 31.88C309.003 32.84 307.702 33.32 305.995 33.32ZM318.744 33.32C317.016 33.32 315.693 32.8293 314.776 31.848C313.858 30.8667 313.4 29.48 313.4 27.688V15.912C313.4 14.12 313.858 12.7333 314.776 11.752C315.693 10.7707 317.016 10.28 318.744 10.28C320.472 10.28 321.794 10.7707 322.712 11.752C323.629 12.7333 324.088 14.12 324.088 15.912V27.688C324.088 29.48 323.629 30.8667 322.712 31.848C321.794 32.8293 320.472 33.32 318.744 33.32ZM318.744 30.12C319.96 30.12 320.568 29.384 320.568 27.912V15.688C320.568 14.216 319.96 13.48 318.744 13.48C317.528 13.48 316.92 14.216 316.92 15.688V27.912C316.92 29.384 317.528 30.12 318.744 30.12ZM226.888 64.32C225.181 64.32 223.891 63.84 223.016 62.88C222.141 61.8987 221.704 60.5013 221.704 58.688V57.408H225.032V58.944C225.032 60.3947 225.64 61.12 226.856 61.12C227.453 61.12 227.901 60.9493 228.2 60.608C228.52 60.2453 228.68 59.6693 228.68 58.88C228.68 57.9413 228.467 57.12 228.04 56.416C227.613 55.6907 226.824 54.8267 225.672 53.824C224.221 52.544 223.208 51.392 222.632 50.368C222.056 49.3227 221.768 48.1493 221.768 46.848C221.768 45.0773 222.216 43.712 223.112 42.752C224.008 41.7707 225.309 41.28 227.016 41.28C228.701 41.28 229.971 41.7707 230.824 42.752C231.699 43.712 232.136 45.0987 232.136 46.912V47.84H228.808V46.688C228.808 45.92 228.659 45.3653 228.36 45.024C228.061 44.6613 227.624 44.48 227.048 44.48C225.875 44.48 225.288 45.1947 225.288 46.624C225.288 47.4347 225.501 48.192 225.928 48.896C226.376 49.6 227.176 50.4533 228.328 51.456C229.8 52.736 230.813 53.8987 231.368 54.944C231.923 55.9893 232.2 57.216 232.2 58.624C232.2 60.4587 231.741 61.8667 230.824 62.848C229.928 63.8293 228.616 64.32 226.888 64.32ZM236.97 44.8H233.29V41.6H244.17V44.8H240.49V64H236.97V44.8ZM250.838 64.32C249.11 64.32 247.787 63.8293 246.87 62.848C245.952 61.8667 245.493 60.48 245.493 58.688V46.912C245.493 45.12 245.952 43.7333 246.87 42.752C247.787 41.7707 249.11 41.28 250.838 41.28C252.566 41.28 253.888 41.7707 254.806 42.752C255.723 43.7333 256.182 45.12 256.182 46.912V58.688C256.182 60.48 255.723 61.8667 254.806 62.848C253.888 63.8293 252.566 64.32 250.838 64.32ZM250.838 61.12C252.054 61.12 252.661 60.384 252.661 58.912V46.688C252.661 45.216 252.054 44.48 250.838 44.48C249.622 44.48 249.014 45.216 249.014 46.688V58.912C249.014 60.384 249.622 61.12 250.838 61.12ZM263.522 64.32C261.837 64.32 260.546 63.84 259.65 62.88C258.775 61.92 258.338 60.5653 258.338 58.816V46.784C258.338 45.0347 258.775 43.68 259.65 42.72C260.546 41.76 261.837 41.28 263.522 41.28C265.207 41.28 266.487 41.76 267.362 42.72C268.258 43.68 268.706 45.0347 268.706 46.784V49.152H265.378V46.56C265.378 45.1733 264.791 44.48 263.618 44.48C262.445 44.48 261.858 45.1733 261.858 46.56V59.072C261.858 60.4373 262.445 61.12 263.618 61.12C264.791 61.12 265.378 60.4373 265.378 59.072V55.648H268.706V58.816C268.706 60.5653 268.258 61.92 267.362 62.88C266.487 63.84 265.207 64.32 263.522 64.32ZM270.812 41.6H274.332V51.04L278.812 41.6H282.332L278.14 49.824L282.396 64H278.716L275.74 54.016L274.332 56.864V64H270.812V41.6ZM294.115 46.912H290.435V44.416C291.438 44.416 292.238 44.3307 292.835 44.16C293.454 43.9893 293.944 43.712 294.307 43.328C294.67 42.9227 294.99 42.3467 295.267 41.6H297.635V64H294.115V46.912ZM307.088 64.32C305.36 64.32 304.037 63.8293 303.12 62.848C302.202 61.8667 301.743 60.48 301.743 58.688V46.912C301.743 45.12 302.202 43.7333 303.12 42.752C304.037 41.7707 305.36 41.28 307.088 41.28C308.816 41.28 310.138 41.7707 311.056 42.752C311.973 43.7333 312.432 45.12 312.432 46.912V58.688C312.432 60.48 311.973 61.8667 311.056 62.848C310.138 63.8293 308.816 64.32 307.088 64.32ZM307.088 61.12C308.304 61.12 308.911 60.384 308.911 58.912V46.688C308.911 45.216 308.304 44.48 307.088 44.48C305.872 44.48 305.264 45.216 305.264 46.688V58.912C305.264 60.384 305.872 61.12 307.088 61.12ZM319.9 64.32C318.172 64.32 316.849 63.8293 315.932 62.848C315.015 61.8667 314.556 60.48 314.556 58.688V46.912C314.556 45.12 315.015 43.7333 315.932 42.752C316.849 41.7707 318.172 41.28 319.9 41.28C321.628 41.28 322.951 41.7707 323.868 42.752C324.785 43.7333 325.244 45.12 325.244 46.912V58.688C325.244 60.48 324.785 61.8667 323.868 62.848C322.951 63.8293 321.628 64.32 319.9 64.32ZM319.9 61.12C321.116 61.12 321.724 60.384 321.724 58.912V46.688C321.724 45.216 321.116 44.48 319.9 44.48C318.684 44.48 318.076 45.216 318.076 46.688V58.912C318.076 60.384 318.684 61.12 319.9 61.12Z" fill="black"/>
<path d="M227.272 33.32C225.587 33.32 224.296 32.84 223.4 31.88C222.525 30.92 222.088 29.5653 222.088 27.816V15.784C222.088 14.0347 222.525 12.68 223.4 11.72C224.296 10.76 225.587 10.28 227.272 10.28C228.957 10.28 230.237 10.76 231.112 11.72C232.008 12.68 232.456 14.0347 232.456 15.784V18.152H229.128V15.56C229.128 14.1733 228.541 13.48 227.368 13.48C226.195 13.48 225.608 14.1733 225.608 15.56V28.072C225.608 29.4373 226.195 30.12 227.368 30.12C228.541 30.12 229.128 29.4373 229.128 28.072V24.648H232.456V27.816C232.456 29.5653 232.008 30.92 231.112 31.88C230.237 32.84 228.957 33.32 227.272 33.32ZM237.282 10.6H242.05L245.698 33H242.178L241.538 28.552V28.616H237.538L236.898 33H233.634L237.282 10.6ZM241.122 25.576L239.554 14.504H239.49L237.954 25.576H241.122ZM251.888 33.32C250.181 33.32 248.891 32.84 248.016 31.88C247.141 30.8987 246.704 29.5013 246.704 27.688V26.408H250.032V27.944C250.032 29.3947 250.64 30.12 251.856 30.12C252.453 30.12 252.901 29.9493 253.2 29.608C253.52 29.2453 253.68 28.6693 253.68 27.88C253.68 26.9413 253.467 26.12 253.04 25.416C252.613 24.6907 251.824 23.8267 250.672 22.824C249.221 21.544 248.208 20.392 247.632 19.368C247.056 18.3227 246.768 17.1493 246.768 15.848C246.768 14.0773 247.216 12.712 248.112 11.752C249.008 10.7707 250.309 10.28 252.016 10.28C253.701 10.28 254.971 10.7707 255.824 11.752C256.699 12.712 257.136 14.0987 257.136 15.912V16.84H253.808V15.688C253.808 14.92 253.659 14.3653 253.36 14.024C253.061 13.6613 252.624 13.48 252.048 13.48C250.875 13.48 250.288 14.1947 250.288 15.624C250.288 16.4347 250.501 17.192 250.928 17.896C251.376 18.6 252.176 19.4533 253.328 20.456C254.8 21.736 255.813 22.8987 256.368 23.944C256.923 24.9893 257.2 26.216 257.2 27.624C257.2 29.4587 256.741 30.8667 255.824 31.848C254.928 32.8293 253.616 33.32 251.888 33.32ZM259.218 10.6H262.738V19.72H266.514V10.6H270.034V33H266.514V22.92H262.738V33H259.218V10.6ZM292.959 15.912H289.279V13.416C290.281 13.416 291.081 13.3307 291.679 13.16C292.297 12.9893 292.788 12.712 293.151 12.328C293.513 11.9227 293.833 11.3467 294.111 10.6H296.479V33H292.959V15.912ZM305.995 33.32C304.289 33.32 302.987 32.84 302.091 31.88C301.195 30.8987 300.747 29.5013 300.747 27.688V25.928H304.075V27.944C304.075 29.3947 304.683 30.12 305.899 30.12C307.115 30.12 307.723 29.3947 307.723 27.944V22.92C307.723 21.448 307.115 20.712 305.899 20.712C304.683 20.712 304.075 21.448 304.075 22.92V23.112H300.747L301.387 10.6H310.667V13.8H304.523L304.235 19.144H304.299C304.961 18.056 305.974 17.512 307.339 17.512C308.619 17.512 309.59 17.9493 310.251 18.824C310.913 19.6987 311.243 20.968 311.243 22.632V27.688C311.243 29.5013 310.795 30.8987 309.899 31.88C309.003 32.84 307.702 33.32 305.995 33.32ZM318.744 33.32C317.016 33.32 315.693 32.8293 314.776 31.848C313.858 30.8667 313.4 29.48 313.4 27.688V15.912C313.4 14.12 313.858 12.7333 314.776 11.752C315.693 10.7707 317.016 10.28 318.744 10.28C320.472 10.28 321.794 10.7707 322.712 11.752C323.629 12.7333 324.088 14.12 324.088 15.912V27.688C324.088 29.48 323.629 30.8667 322.712 31.848C321.794 32.8293 320.472 33.32 318.744 33.32ZM318.744 30.12C319.96 30.12 320.568 29.384 320.568 27.912V15.688C320.568 14.216 319.96 13.48 318.744 13.48C317.528 13.48 316.92 14.216 316.92 15.688V27.912C316.92 29.384 317.528 30.12 318.744 30.12ZM226.888 64.32C225.181 64.32 223.891 63.84 223.016 62.88C222.141 61.8987 221.704 60.5013 221.704 58.688V57.408H225.032V58.944C225.032 60.3947 225.64 61.12 226.856 61.12C227.453 61.12 227.901 60.9493 228.2 60.608C228.52 60.2453 228.68 59.6693 228.68 58.88C228.68 57.9413 228.467 57.12 228.04 56.416C227.613 55.6907 226.824 54.8267 225.672 53.824C224.221 52.544 223.208 51.392 222.632 50.368C222.056 49.3227 221.768 48.1493 221.768 46.848C221.768 45.0773 222.216 43.712 223.112 42.752C224.008 41.7707 225.309 41.28 227.016 41.28C228.701 41.28 229.971 41.7707 230.824 42.752C231.699 43.712 232.136 45.0987 232.136 46.912V47.84H228.808V46.688C228.808 45.92 228.659 45.3653 228.36 45.024C228.061 44.6613 227.624 44.48 227.048 44.48C225.875 44.48 225.288 45.1947 225.288 46.624C225.288 47.4347 225.501 48.192 225.928 48.896C226.376 49.6 227.176 50.4533 228.328 51.456C229.8 52.736 230.813 53.8987 231.368 54.944C231.923 55.9893 232.2 57.216 232.2 58.624C232.2 60.4587 231.741 61.8667 230.824 62.848C229.928 63.8293 228.616 64.32 226.888 64.32ZM236.97 44.8H233.29V41.6H244.17V44.8H240.49V64H236.97V44.8ZM250.838 64.32C249.11 64.32 247.787 63.8293 246.87 62.848C245.952 61.8667 245.493 60.48 245.493 58.688V46.912C245.493 45.12 245.952 43.7333 246.87 42.752C247.787 41.7707 249.11 41.28 250.838 41.28C252.566 41.28 253.888 41.7707 254.806 42.752C255.723 43.7333 256.182 45.12 256.182 46.912V58.688C256.182 60.48 255.723 61.8667 254.806 62.848C253.888 63.8293 252.566 64.32 250.838 64.32ZM250.838 61.12C252.054 61.12 252.661 60.384 252.661 58.912V46.688C252.661 45.216 252.054 44.48 250.838 44.48C249.622 44.48 249.014 45.216 249.014 46.688V58.912C249.014 60.384 249.622 61.12 250.838 61.12ZM263.522 64.32C261.837 64.32 260.546 63.84 259.65 62.88C258.775 61.92 258.338 60.5653 258.338 58.816V46.784C258.338 45.0347 258.775 43.68 259.65 42.72C260.546 41.76 261.837 41.28 263.522 41.28C265.207 41.28 266.487 41.76 267.362 42.72C268.258 43.68 268.706 45.0347 268.706 46.784V49.152H265.378V46.56C265.378 45.1733 264.791 44.48 263.618 44.48C262.445 44.48 261.858 45.1733 261.858 46.56V59.072C261.858 60.4373 262.445 61.12 263.618 61.12C264.791 61.12 265.378 60.4373 265.378 59.072V55.648H268.706V58.816C268.706 60.5653 268.258 61.92 267.362 62.88C266.487 63.84 265.207 64.32 263.522 64.32ZM270.812 41.6H274.332V51.04L278.812 41.6H282.332L278.14 49.824L282.396 64H278.716L275.74 54.016L274.332 56.864V64H270.812V41.6ZM294.115 46.912H290.435V44.416C291.438 44.416 292.238 44.3307 292.835 44.16C293.454 43.9893 293.944 43.712 294.307 43.328C294.67 42.9227 294.99 42.3467 295.267 41.6H297.635V64H294.115V46.912ZM307.088 64.32C305.36 64.32 304.037 63.8293 303.12 62.848C302.202 61.8667 301.743 60.48 301.743 58.688V46.912C301.743 45.12 302.202 43.7333 303.12 42.752C304.037 41.7707 305.36 41.28 307.088 41.28C308.816 41.28 310.138 41.7707 311.056 42.752C311.973 43.7333 312.432 45.12 312.432 46.912V58.688C312.432 60.48 311.973 61.8667 311.056 62.848C310.138 63.8293 308.816 64.32 307.088 64.32ZM307.088 61.12C308.304 61.12 308.911 60.384 308.911 58.912V46.688C308.911 45.216 308.304 44.48 307.088 44.48C305.872 44.48 305.264 45.216 305.264 46.688V58.912C305.264 60.384 305.872 61.12 307.088 61.12ZM319.9 64.32C318.172 64.32 316.849 63.8293 315.932 62.848C315.015 61.8667 314.556 60.48 314.556 58.688V46.912C314.556 45.12 315.015 43.7333 315.932 42.752C316.849 41.7707 318.172 41.28 319.9 41.28C321.628 41.28 322.951 41.7707 323.868 42.752C324.785 43.7333 325.244 45.12 325.244 46.912V58.688C325.244 60.48 324.785 61.8667 323.868 62.848C322.951 63.8293 321.628 64.32 319.9 64.32ZM319.9 61.12C321.116 61.12 321.724 60.384 321.724 58.912V46.688C321.724 45.216 321.116 44.48 319.9 44.48C318.684 44.48 318.076 45.216 318.076 46.688V58.912C318.076 60.384 318.684 61.12 319.9 61.12Z" fill="black"/>
<path d="M227.272 140.32C225.587 140.32 224.296 139.84 223.4 138.88C222.525 137.92 222.088 136.565 222.088 134.816V122.784C222.088 121.035 222.525 119.68 223.4 118.72C224.296 117.76 225.587 117.28 227.272 117.28C228.957 117.28 230.237 117.76 231.112 118.72C232.008 119.68 232.456 121.035 232.456 122.784V125.152H229.128V122.56C229.128 121.173 228.541 120.48 227.368 120.48C226.195 120.48 225.608 121.173 225.608 122.56V135.072C225.608 136.437 226.195 137.12 227.368 137.12C228.541 137.12 229.128 136.437 229.128 135.072V131.648H232.456V134.816C232.456 136.565 232.008 137.92 231.112 138.88C230.237 139.84 228.957 140.32 227.272 140.32ZM237.282 117.6H242.05L245.698 140H242.178L241.538 135.552V135.616H237.538L236.898 140H233.634L237.282 117.6ZM241.122 132.576L239.554 121.504H239.49L237.954 132.576H241.122ZM251.888 140.32C250.181 140.32 248.891 139.84 248.016 138.88C247.141 137.899 246.704 136.501 246.704 134.688V133.408H250.032V134.944C250.032 136.395 250.64 137.12 251.856 137.12C252.453 137.12 252.901 136.949 253.2 136.608C253.52 136.245 253.68 135.669 253.68 134.88C253.68 133.941 253.467 133.12 253.04 132.416C252.613 131.691 251.824 130.827 250.672 129.824C249.221 128.544 248.208 127.392 247.632 126.368C247.056 125.323 246.768 124.149 246.768 122.848C246.768 121.077 247.216 119.712 248.112 118.752C249.008 117.771 250.309 117.28 252.016 117.28C253.701 117.28 254.971 117.771 255.824 118.752C256.699 119.712 257.136 121.099 257.136 122.912V123.84H253.808V122.688C253.808 121.92 253.659 121.365 253.36 121.024C253.061 120.661 252.624 120.48 252.048 120.48C250.875 120.48 250.288 121.195 250.288 122.624C250.288 123.435 250.501 124.192 250.928 124.896C251.376 125.6 252.176 126.453 253.328 127.456C254.8 128.736 255.813 129.899 256.368 130.944C256.923 131.989 257.2 133.216 257.2 134.624C257.2 136.459 256.741 137.867 255.824 138.848C254.928 139.829 253.616 140.32 251.888 140.32ZM259.218 117.6H262.738V126.72H266.514V117.6H270.034V140H266.514V129.92H262.738V140H259.218V117.6ZM292.959 122.912H289.279V120.416C290.281 120.416 291.081 120.331 291.679 120.16C292.297 119.989 292.788 119.712 293.151 119.328C293.513 118.923 293.833 118.347 294.111 117.6H296.479V140H292.959V122.912ZM305.995 140.32C304.289 140.32 302.987 139.84 302.091 138.88C301.195 137.899 300.747 136.501 300.747 134.688V132.928H304.075V134.944C304.075 136.395 304.683 137.12 305.899 137.12C307.115 137.12 307.723 136.395 307.723 134.944V129.92C307.723 128.448 307.115 127.712 305.899 127.712C304.683 127.712 304.075 128.448 304.075 129.92V130.112H300.747L301.387 117.6H310.667V120.8H304.523L304.235 126.144H304.299C304.961 125.056 305.974 124.512 307.339 124.512C308.619 124.512 309.59 124.949 310.251 125.824C310.913 126.699 311.243 127.968 311.243 129.632V134.688C311.243 136.501 310.795 137.899 309.899 138.88C309.003 139.84 307.702 140.32 305.995 140.32ZM318.744 140.32C317.016 140.32 315.693 139.829 314.776 138.848C313.858 137.867 313.4 136.48 313.4 134.688V122.912C313.4 121.12 313.858 119.733 314.776 118.752C315.693 117.771 317.016 117.28 318.744 117.28C320.472 117.28 321.794 117.771 322.712 118.752C323.629 119.733 324.088 121.12 324.088 122.912V134.688C324.088 136.48 323.629 137.867 322.712 138.848C321.794 139.829 320.472 140.32 318.744 140.32ZM318.744 137.12C319.96 137.12 320.568 136.384 320.568 134.912V122.688C320.568 121.216 319.96 120.48 318.744 120.48C317.528 120.48 316.92 121.216 316.92 122.688V134.912C316.92 136.384 317.528 137.12 318.744 137.12ZM226.888 171.32C225.181 171.32 223.891 170.84 223.016 169.88C222.141 168.899 221.704 167.501 221.704 165.688V164.408H225.032V165.944C225.032 167.395 225.64 168.12 226.856 168.12C227.453 168.12 227.901 167.949 228.2 167.608C228.52 167.245 228.68 166.669 228.68 165.88C228.68 164.941 228.467 164.12 228.04 163.416C227.613 162.691 226.824 161.827 225.672 160.824C224.221 159.544 223.208 158.392 222.632 157.368C222.056 156.323 221.768 155.149 221.768 153.848C221.768 152.077 222.216 150.712 223.112 149.752C224.008 148.771 225.309 148.28 227.016 148.28C228.701 148.28 229.971 148.771 230.824 149.752C231.699 150.712 232.136 152.099 232.136 153.912V154.84H228.808V153.688C228.808 152.92 228.659 152.365 228.36 152.024C228.061 151.661 227.624 151.48 227.048 151.48C225.875 151.48 225.288 152.195 225.288 153.624C225.288 154.435 225.501 155.192 225.928 155.896C226.376 156.6 227.176 157.453 228.328 158.456C229.8 159.736 230.813 160.899 231.368 161.944C231.923 162.989 232.2 164.216 232.2 165.624C232.2 167.459 231.741 168.867 230.824 169.848C229.928 170.829 228.616 171.32 226.888 171.32ZM236.97 151.8H233.29V148.6H244.17V151.8H240.49V171H236.97V151.8ZM250.838 171.32C249.11 171.32 247.787 170.829 246.87 169.848C245.952 168.867 245.493 167.48 245.493 165.688V153.912C245.493 152.12 245.952 150.733 246.87 149.752C247.787 148.771 249.11 148.28 250.838 148.28C252.566 148.28 253.888 148.771 254.806 149.752C255.723 150.733 256.182 152.12 256.182 153.912V165.688C256.182 167.48 255.723 168.867 254.806 169.848C253.888 170.829 252.566 171.32 250.838 171.32ZM250.838 168.12C252.054 168.12 252.661 167.384 252.661 165.912V153.688C252.661 152.216 252.054 151.48 250.838 151.48C249.622 151.48 249.014 152.216 249.014 153.688V165.912C249.014 167.384 249.622 168.12 250.838 168.12ZM263.522 171.32C261.837 171.32 260.546 170.84 259.65 169.88C258.775 168.92 258.338 167.565 258.338 165.816V153.784C258.338 152.035 258.775 150.68 259.65 149.72C260.546 148.76 261.837 148.28 263.522 148.28C265.207 148.28 266.487 148.76 267.362 149.72C268.258 150.68 268.706 152.035 268.706 153.784V156.152H265.378V153.56C265.378 152.173 264.791 151.48 263.618 151.48C262.445 151.48 261.858 152.173 261.858 153.56V166.072C261.858 167.437 262.445 168.12 263.618 168.12C264.791 168.12 265.378 167.437 265.378 166.072V162.648H268.706V165.816C268.706 167.565 268.258 168.92 267.362 169.88C266.487 170.84 265.207 171.32 263.522 171.32ZM270.812 148.6H274.332V158.04L278.812 148.6H282.332L278.14 156.824L282.396 171H278.716L275.74 161.016L274.332 163.864V171H270.812V148.6ZM294.115 153.912H290.435V151.416C291.438 151.416 292.238 151.331 292.835 151.16C293.454 150.989 293.944 150.712 294.307 150.328C294.67 149.923 294.99 149.347 295.267 148.6H297.635V171H294.115V153.912ZM307.088 171.32C305.36 171.32 304.037 170.829 303.12 169.848C302.202 168.867 301.743 167.48 301.743 165.688V153.912C301.743 152.12 302.202 150.733 303.12 149.752C304.037 148.771 305.36 148.28 307.088 148.28C308.816 148.28 310.138 148.771 311.056 149.752C311.973 150.733 312.432 152.12 312.432 153.912V165.688C312.432 167.48 311.973 168.867 311.056 169.848C310.138 170.829 308.816 171.32 307.088 171.32ZM307.088 168.12C308.304 168.12 308.911 167.384 308.911 165.912V153.688C308.911 152.216 308.304 151.48 307.088 151.48C305.872 151.48 305.264 152.216 305.264 153.688V165.912C305.264 167.384 305.872 168.12 307.088 168.12ZM319.9 171.32C318.172 171.32 316.849 170.829 315.932 169.848C315.015 168.867 314.556 167.48 314.556 165.688V153.912C314.556 152.12 315.015 150.733 315.932 149.752C316.849 148.771 318.172 148.28 319.9 148.28C321.628 148.28 322.951 148.771 323.868 149.752C324.785 150.733 325.244 152.12 325.244 153.912V165.688C325.244 167.48 324.785 168.867 323.868 169.848C322.951 170.829 321.628 171.32 319.9 171.32ZM319.9 168.12C321.116 168.12 321.724 167.384 321.724 165.912V153.688C321.724 152.216 321.116 151.48 319.9 151.48C318.684 151.48 318.076 152.216 318.076 153.688V165.912C318.076 167.384 318.684 168.12 319.9 168.12Z" fill="black"/>
<path d="M227.272 141.32C225.587 141.32 224.296 140.84 223.4 139.88C222.525 138.92 222.088 137.565 222.088 135.816V123.784C222.088 122.035 222.525 120.68 223.4 119.72C224.296 118.76 225.587 118.28 227.272 118.28C228.957 118.28 230.237 118.76 231.112 119.72C232.008 120.68 232.456 122.035 232.456 123.784V126.152H229.128V123.56C229.128 122.173 228.541 121.48 227.368 121.48C226.195 121.48 225.608 122.173 225.608 123.56V136.072C225.608 137.437 226.195 138.12 227.368 138.12C228.541 138.12 229.128 137.437 229.128 136.072V132.648H232.456V135.816C232.456 137.565 232.008 138.92 231.112 139.88C230.237 140.84 228.957 141.32 227.272 141.32ZM237.282 118.6H242.05L245.698 141H242.178L241.538 136.552V136.616H237.538L236.898 141H233.634L237.282 118.6ZM241.122 133.576L239.554 122.504H239.49L237.954 133.576H241.122ZM251.888 141.32C250.181 141.32 248.891 140.84 248.016 139.88C247.141 138.899 246.704 137.501 246.704 135.688V134.408H250.032V135.944C250.032 137.395 250.64 138.12 251.856 138.12C252.453 138.12 252.901 137.949 253.2 137.608C253.52 137.245 253.68 136.669 253.68 135.88C253.68 134.941 253.467 134.12 253.04 133.416C252.613 132.691 251.824 131.827 250.672 130.824C249.221 129.544 248.208 128.392 247.632 127.368C247.056 126.323 246.768 125.149 246.768 123.848C246.768 122.077 247.216 120.712 248.112 119.752C249.008 118.771 250.309 118.28 252.016 118.28C253.701 118.28 254.971 118.771 255.824 119.752C256.699 120.712 257.136 122.099 257.136 123.912V124.84H253.808V123.688C253.808 122.92 253.659 122.365 253.36 122.024C253.061 121.661 252.624 121.48 252.048 121.48C250.875 121.48 250.288 122.195 250.288 123.624C250.288 124.435 250.501 125.192 250.928 125.896C251.376 126.6 252.176 127.453 253.328 128.456C254.8 129.736 255.813 130.899 256.368 131.944C256.923 132.989 257.2 134.216 257.2 135.624C257.2 137.459 256.741 138.867 255.824 139.848C254.928 140.829 253.616 141.32 251.888 141.32ZM259.218 118.6H262.738V127.72H266.514V118.6H270.034V141H266.514V130.92H262.738V141H259.218V118.6ZM292.959 123.912H289.279V121.416C290.281 121.416 291.081 121.331 291.679 121.16C292.297 120.989 292.788 120.712 293.151 120.328C293.513 119.923 293.833 119.347 294.111 118.6H296.479V141H292.959V123.912ZM305.995 141.32C304.289 141.32 302.987 140.84 302.091 139.88C301.195 138.899 300.747 137.501 300.747 135.688V133.928H304.075V135.944C304.075 137.395 304.683 138.12 305.899 138.12C307.115 138.12 307.723 137.395 307.723 135.944V130.92C307.723 129.448 307.115 128.712 305.899 128.712C304.683 128.712 304.075 129.448 304.075 130.92V131.112H300.747L301.387 118.6H310.667V121.8H304.523L304.235 127.144H304.299C304.961 126.056 305.974 125.512 307.339 125.512C308.619 125.512 309.59 125.949 310.251 126.824C310.913 127.699 311.243 128.968 311.243 130.632V135.688C311.243 137.501 310.795 138.899 309.899 139.88C309.003 140.84 307.702 141.32 305.995 141.32ZM318.744 141.32C317.016 141.32 315.693 140.829 314.776 139.848C313.858 138.867 313.4 137.48 313.4 135.688V123.912C313.4 122.12 313.858 120.733 314.776 119.752C315.693 118.771 317.016 118.28 318.744 118.28C320.472 118.28 321.794 118.771 322.712 119.752C323.629 120.733 324.088 122.12 324.088 123.912V135.688C324.088 137.48 323.629 138.867 322.712 139.848C321.794 140.829 320.472 141.32 318.744 141.32ZM318.744 138.12C319.96 138.12 320.568 137.384 320.568 135.912V123.688C320.568 122.216 319.96 121.48 318.744 121.48C317.528 121.48 316.92 122.216 316.92 123.688V135.912C316.92 137.384 317.528 138.12 318.744 138.12ZM226.888 172.32C225.181 172.32 223.891 171.84 223.016 170.88C222.141 169.899 221.704 168.501 221.704 166.688V165.408H225.032V166.944C225.032 168.395 225.64 169.12 226.856 169.12C227.453 169.12 227.901 168.949 228.2 168.608C228.52 168.245 228.68 167.669 228.68 166.88C228.68 165.941 228.467 165.12 228.04 164.416C227.613 163.691 226.824 162.827 225.672 161.824C224.221 160.544 223.208 159.392 222.632 158.368C222.056 157.323 221.768 156.149 221.768 154.848C221.768 153.077 222.216 151.712 223.112 150.752C224.008 149.771 225.309 149.28 227.016 149.28C228.701 149.28 229.971 149.771 230.824 150.752C231.699 151.712 232.136 153.099 232.136 154.912V155.84H228.808V154.688C228.808 153.92 228.659 153.365 228.36 153.024C228.061 152.661 227.624 152.48 227.048 152.48C225.875 152.48 225.288 153.195 225.288 154.624C225.288 155.435 225.501 156.192 225.928 156.896C226.376 157.6 227.176 158.453 228.328 159.456C229.8 160.736 230.813 161.899 231.368 162.944C231.923 163.989 232.2 165.216 232.2 166.624C232.2 168.459 231.741 169.867 230.824 170.848C229.928 171.829 228.616 172.32 226.888 172.32ZM236.97 152.8H233.29V149.6H244.17V152.8H240.49V172H236.97V152.8ZM250.838 172.32C249.11 172.32 247.787 171.829 246.87 170.848C245.952 169.867 245.493 168.48 245.493 166.688V154.912C245.493 153.12 245.952 151.733 246.87 150.752C247.787 149.771 249.11 149.28 250.838 149.28C252.566 149.28 253.888 149.771 254.806 150.752C255.723 151.733 256.182 153.12 256.182 154.912V166.688C256.182 168.48 255.723 169.867 254.806 170.848C253.888 171.829 252.566 172.32 250.838 172.32ZM250.838 169.12C252.054 169.12 252.661 168.384 252.661 166.912V154.688C252.661 153.216 252.054 152.48 250.838 152.48C249.622 152.48 249.014 153.216 249.014 154.688V166.912C249.014 168.384 249.622 169.12 250.838 169.12ZM263.522 172.32C261.837 172.32 260.546 171.84 259.65 170.88C258.775 169.92 258.338 168.565 258.338 166.816V154.784C258.338 153.035 258.775 151.68 259.65 150.72C260.546 149.76 261.837 149.28 263.522 149.28C265.207 149.28 266.487 149.76 267.362 150.72C268.258 151.68 268.706 153.035 268.706 154.784V157.152H265.378V154.56C265.378 153.173 264.791 152.48 263.618 152.48C262.445 152.48 261.858 153.173 261.858 154.56V167.072C261.858 168.437 262.445 169.12 263.618 169.12C264.791 169.12 265.378 168.437 265.378 167.072V163.648H268.706V166.816C268.706 168.565 268.258 169.92 267.362 170.88C266.487 171.84 265.207 172.32 263.522 172.32ZM270.812 149.6H274.332V159.04L278.812 149.6H282.332L278.14 157.824L282.396 172H278.716L275.74 162.016L274.332 164.864V172H270.812V149.6ZM294.115 154.912H290.435V152.416C291.438 152.416 292.238 152.331 292.835 152.16C293.454 151.989 293.944 151.712 294.307 151.328C294.67 150.923 294.99 150.347 295.267 149.6H297.635V172H294.115V154.912ZM307.088 172.32C305.36 172.32 304.037 171.829 303.12 170.848C302.202 169.867 301.743 168.48 301.743 166.688V154.912C301.743 153.12 302.202 151.733 303.12 150.752C304.037 149.771 305.36 149.28 307.088 149.28C308.816 149.28 310.138 149.771 311.056 150.752C311.973 151.733 312.432 153.12 312.432 154.912V166.688C312.432 168.48 311.973 169.867 311.056 170.848C310.138 171.829 308.816 172.32 307.088 172.32ZM307.088 169.12C308.304 169.12 308.911 168.384 308.911 166.912V154.688C308.911 153.216 308.304 152.48 307.088 152.48C305.872 152.48 305.264 153.216 305.264 154.688V166.912C305.264 168.384 305.872 169.12 307.088 169.12ZM319.9 172.32C318.172 172.32 316.849 171.829 315.932 170.848C315.015 169.867 314.556 168.48 314.556 166.688V154.912C314.556 153.12 315.015 151.733 315.932 150.752C316.849 149.771 318.172 149.28 319.9 149.28C321.628 149.28 322.951 149.771 323.868 150.752C324.785 151.733 325.244 153.12 325.244 154.912V166.688C325.244 168.48 324.785 169.867 323.868 170.848C322.951 171.829 321.628 172.32 319.9 172.32ZM319.9 169.12C321.116 169.12 321.724 168.384 321.724 166.912V154.688C321.724 153.216 321.116 152.48 319.9 152.48C318.684 152.48 318.076 153.216 318.076 154.688V166.912C318.076 168.384 318.684 169.12 319.9 169.12Z" fill="black"/>
<path d="M227.272 250.32C225.587 250.32 224.296 249.84 223.4 248.88C222.525 247.92 222.088 246.565 222.088 244.816V232.784C222.088 231.035 222.525 229.68 223.4 228.72C224.296 227.76 225.587 227.28 227.272 227.28C228.957 227.28 230.237 227.76 231.112 228.72C232.008 229.68 232.456 231.035 232.456 232.784V235.152H229.128V232.56C229.128 231.173 228.541 230.48 227.368 230.48C226.195 230.48 225.608 231.173 225.608 232.56V245.072C225.608 246.437 226.195 247.12 227.368 247.12C228.541 247.12 229.128 246.437 229.128 245.072V241.648H232.456V244.816C232.456 246.565 232.008 247.92 231.112 248.88C230.237 249.84 228.957 250.32 227.272 250.32ZM237.282 227.6H242.05L245.698 250H242.178L241.538 245.552V245.616H237.538L236.898 250H233.634L237.282 227.6ZM241.122 242.576L239.554 231.504H239.49L237.954 242.576H241.122ZM251.888 250.32C250.181 250.32 248.891 249.84 248.016 248.88C247.141 247.899 246.704 246.501 246.704 244.688V243.408H250.032V244.944C250.032 246.395 250.64 247.12 251.856 247.12C252.453 247.12 252.901 246.949 253.2 246.608C253.52 246.245 253.68 245.669 253.68 244.88C253.68 243.941 253.467 243.12 253.04 242.416C252.613 241.691 251.824 240.827 250.672 239.824C249.221 238.544 248.208 237.392 247.632 236.368C247.056 235.323 246.768 234.149 246.768 232.848C246.768 231.077 247.216 229.712 248.112 228.752C249.008 227.771 250.309 227.28 252.016 227.28C253.701 227.28 254.971 227.771 255.824 228.752C256.699 229.712 257.136 231.099 257.136 232.912V233.84H253.808V232.688C253.808 231.92 253.659 231.365 253.36 231.024C253.061 230.661 252.624 230.48 252.048 230.48C250.875 230.48 250.288 231.195 250.288 232.624C250.288 233.435 250.501 234.192 250.928 234.896C251.376 235.6 252.176 236.453 253.328 237.456C254.8 238.736 255.813 239.899 256.368 240.944C256.923 241.989 257.2 243.216 257.2 244.624C257.2 246.459 256.741 247.867 255.824 248.848C254.928 249.829 253.616 250.32 251.888 250.32ZM259.218 227.6H262.738V236.72H266.514V227.6H270.034V250H266.514V239.92H262.738V250H259.218V227.6ZM292.959 232.912H289.279V230.416C290.281 230.416 291.081 230.331 291.679 230.16C292.297 229.989 292.788 229.712 293.151 229.328C293.513 228.923 293.833 228.347 294.111 227.6H296.479V250H292.959V232.912ZM305.995 250.32C304.289 250.32 302.987 249.84 302.091 248.88C301.195 247.899 300.747 246.501 300.747 244.688V242.928H304.075V244.944C304.075 246.395 304.683 247.12 305.899 247.12C307.115 247.12 307.723 246.395 307.723 244.944V239.92C307.723 238.448 307.115 237.712 305.899 237.712C304.683 237.712 304.075 238.448 304.075 239.92V240.112H300.747L301.387 227.6H310.667V230.8H304.523L304.235 236.144H304.299C304.961 235.056 305.974 234.512 307.339 234.512C308.619 234.512 309.59 234.949 310.251 235.824C310.913 236.699 311.243 237.968 311.243 239.632V244.688C311.243 246.501 310.795 247.899 309.899 248.88C309.003 249.84 307.702 250.32 305.995 250.32ZM318.744 250.32C317.016 250.32 315.693 249.829 314.776 248.848C313.858 247.867 313.4 246.48 313.4 244.688V232.912C313.4 231.12 313.858 229.733 314.776 228.752C315.693 227.771 317.016 227.28 318.744 227.28C320.472 227.28 321.794 227.771 322.712 228.752C323.629 229.733 324.088 231.12 324.088 232.912V244.688C324.088 246.48 323.629 247.867 322.712 248.848C321.794 249.829 320.472 250.32 318.744 250.32ZM318.744 247.12C319.96 247.12 320.568 246.384 320.568 244.912V232.688C320.568 231.216 319.96 230.48 318.744 230.48C317.528 230.48 316.92 231.216 316.92 232.688V244.912C316.92 246.384 317.528 247.12 318.744 247.12ZM226.888 281.32C225.181 281.32 223.891 280.84 223.016 279.88C222.141 278.899 221.704 277.501 221.704 275.688V274.408H225.032V275.944C225.032 277.395 225.64 278.12 226.856 278.12C227.453 278.12 227.901 277.949 228.2 277.608C228.52 277.245 228.68 276.669 228.68 275.88C228.68 274.941 228.467 274.12 228.04 273.416C227.613 272.691 226.824 271.827 225.672 270.824C224.221 269.544 223.208 268.392 222.632 267.368C222.056 266.323 221.768 265.149 221.768 263.848C221.768 262.077 222.216 260.712 223.112 259.752C224.008 258.771 225.309 258.28 227.016 258.28C228.701 258.28 229.971 258.771 230.824 259.752C231.699 260.712 232.136 262.099 232.136 263.912V264.84H228.808V263.688C228.808 262.92 228.659 262.365 228.36 262.024C228.061 261.661 227.624 261.48 227.048 261.48C225.875 261.48 225.288 262.195 225.288 263.624C225.288 264.435 225.501 265.192 225.928 265.896C226.376 266.6 227.176 267.453 228.328 268.456C229.8 269.736 230.813 270.899 231.368 271.944C231.923 272.989 232.2 274.216 232.2 275.624C232.2 277.459 231.741 278.867 230.824 279.848C229.928 280.829 228.616 281.32 226.888 281.32ZM236.97 261.8H233.29V258.6H244.17V261.8H240.49V281H236.97V261.8ZM250.838 281.32C249.11 281.32 247.787 280.829 246.87 279.848C245.952 278.867 245.493 277.48 245.493 275.688V263.912C245.493 262.12 245.952 260.733 246.87 259.752C247.787 258.771 249.11 258.28 250.838 258.28C252.566 258.28 253.888 258.771 254.806 259.752C255.723 260.733 256.182 262.12 256.182 263.912V275.688C256.182 277.48 255.723 278.867 254.806 279.848C253.888 280.829 252.566 281.32 250.838 281.32ZM250.838 278.12C252.054 278.12 252.661 277.384 252.661 275.912V263.688C252.661 262.216 252.054 261.48 250.838 261.48C249.622 261.48 249.014 262.216 249.014 263.688V275.912C249.014 277.384 249.622 278.12 250.838 278.12ZM263.522 281.32C261.837 281.32 260.546 280.84 259.65 279.88C258.775 278.92 258.338 277.565 258.338 275.816V263.784C258.338 262.035 258.775 260.68 259.65 259.72C260.546 258.76 261.837 258.28 263.522 258.28C265.207 258.28 266.487 258.76 267.362 259.72C268.258 260.68 268.706 262.035 268.706 263.784V266.152H265.378V263.56C265.378 262.173 264.791 261.48 263.618 261.48C262.445 261.48 261.858 262.173 261.858 263.56V276.072C261.858 277.437 262.445 278.12 263.618 278.12C264.791 278.12 265.378 277.437 265.378 276.072V272.648H268.706V275.816C268.706 277.565 268.258 278.92 267.362 279.88C266.487 280.84 265.207 281.32 263.522 281.32ZM270.812 258.6H274.332V268.04L278.812 258.6H282.332L278.14 266.824L282.396 281H278.716L275.74 271.016L274.332 273.864V281H270.812V258.6ZM294.115 263.912H290.435V261.416C291.438 261.416 292.238 261.331 292.835 261.16C293.454 260.989 293.944 260.712 294.307 260.328C294.67 259.923 294.99 259.347 295.267 258.6H297.635V281H294.115V263.912ZM307.088 281.32C305.36 281.32 304.037 280.829 303.12 279.848C302.202 278.867 301.743 277.48 301.743 275.688V263.912C301.743 262.12 302.202 260.733 303.12 259.752C304.037 258.771 305.36 258.28 307.088 258.28C308.816 258.28 310.138 258.771 311.056 259.752C311.973 260.733 312.432 262.12 312.432 263.912V275.688C312.432 277.48 311.973 278.867 311.056 279.848C310.138 280.829 308.816 281.32 307.088 281.32ZM307.088 278.12C308.304 278.12 308.911 277.384 308.911 275.912V263.688C308.911 262.216 308.304 261.48 307.088 261.48C305.872 261.48 305.264 262.216 305.264 263.688V275.912C305.264 277.384 305.872 278.12 307.088 278.12ZM319.9 281.32C318.172 281.32 316.849 280.829 315.932 279.848C315.015 278.867 314.556 277.48 314.556 275.688V263.912C314.556 262.12 315.015 260.733 315.932 259.752C316.849 258.771 318.172 258.28 319.9 258.28C321.628 258.28 322.951 258.771 323.868 259.752C324.785 260.733 325.244 262.12 325.244 263.912V275.688C325.244 277.48 324.785 278.867 323.868 279.848C322.951 280.829 321.628 281.32 319.9 281.32ZM319.9 278.12C321.116 278.12 321.724 277.384 321.724 275.912V263.688C321.724 262.216 321.116 261.48 319.9 261.48C318.684 261.48 318.076 262.216 318.076 263.688V275.912C318.076 277.384 318.684 278.12 319.9 278.12Z" fill="black"/>
<path d="M227.272 355.32C225.587 355.32 224.296 354.84 223.4 353.88C222.525 352.92 222.088 351.565 222.088 349.816V337.784C222.088 336.035 222.525 334.68 223.4 333.72C224.296 332.76 225.587 332.28 227.272 332.28C228.957 332.28 230.237 332.76 231.112 333.72C232.008 334.68 232.456 336.035 232.456 337.784V340.152H229.128V337.56C229.128 336.173 228.541 335.48 227.368 335.48C226.195 335.48 225.608 336.173 225.608 337.56V350.072C225.608 351.437 226.195 352.12 227.368 352.12C228.541 352.12 229.128 351.437 229.128 350.072V346.648H232.456V349.816C232.456 351.565 232.008 352.92 231.112 353.88C230.237 354.84 228.957 355.32 227.272 355.32ZM237.282 332.6H242.05L245.698 355H242.178L241.538 350.552V350.616H237.538L236.898 355H233.634L237.282 332.6ZM241.122 347.576L239.554 336.504H239.49L237.954 347.576H241.122ZM251.888 355.32C250.181 355.32 248.891 354.84 248.016 353.88C247.141 352.899 246.704 351.501 246.704 349.688V348.408H250.032V349.944C250.032 351.395 250.64 352.12 251.856 352.12C252.453 352.12 252.901 351.949 253.2 351.608C253.52 351.245 253.68 350.669 253.68 349.88C253.68 348.941 253.467 348.12 253.04 347.416C252.613 346.691 251.824 345.827 250.672 344.824C249.221 343.544 248.208 342.392 247.632 341.368C247.056 340.323 246.768 339.149 246.768 337.848C246.768 336.077 247.216 334.712 248.112 333.752C249.008 332.771 250.309 332.28 252.016 332.28C253.701 332.28 254.971 332.771 255.824 333.752C256.699 334.712 257.136 336.099 257.136 337.912V338.84H253.808V337.688C253.808 336.92 253.659 336.365 253.36 336.024C253.061 335.661 252.624 335.48 252.048 335.48C250.875 335.48 250.288 336.195 250.288 337.624C250.288 338.435 250.501 339.192 250.928 339.896C251.376 340.6 252.176 341.453 253.328 342.456C254.8 343.736 255.813 344.899 256.368 345.944C256.923 346.989 257.2 348.216 257.2 349.624C257.2 351.459 256.741 352.867 255.824 353.848C254.928 354.829 253.616 355.32 251.888 355.32ZM259.218 332.6H262.738V341.72H266.514V332.6H270.034V355H266.514V344.92H262.738V355H259.218V332.6ZM292.959 337.912H289.279V335.416C290.281 335.416 291.081 335.331 291.679 335.16C292.297 334.989 292.788 334.712 293.151 334.328C293.513 333.923 293.833 333.347 294.111 332.6H296.479V355H292.959V337.912ZM305.995 355.32C304.289 355.32 302.987 354.84 302.091 353.88C301.195 352.899 300.747 351.501 300.747 349.688V347.928H304.075V349.944C304.075 351.395 304.683 352.12 305.899 352.12C307.115 352.12 307.723 351.395 307.723 349.944V344.92C307.723 343.448 307.115 342.712 305.899 342.712C304.683 342.712 304.075 343.448 304.075 344.92V345.112H300.747L301.387 332.6H310.667V335.8H304.523L304.235 341.144H304.299C304.961 340.056 305.974 339.512 307.339 339.512C308.619 339.512 309.59 339.949 310.251 340.824C310.913 341.699 311.243 342.968 311.243 344.632V349.688C311.243 351.501 310.795 352.899 309.899 353.88C309.003 354.84 307.702 355.32 305.995 355.32ZM318.744 355.32C317.016 355.32 315.693 354.829 314.776 353.848C313.858 352.867 313.4 351.48 313.4 349.688V337.912C313.4 336.12 313.858 334.733 314.776 333.752C315.693 332.771 317.016 332.28 318.744 332.28C320.472 332.28 321.794 332.771 322.712 333.752C323.629 334.733 324.088 336.12 324.088 337.912V349.688C324.088 351.48 323.629 352.867 322.712 353.848C321.794 354.829 320.472 355.32 318.744 355.32ZM318.744 352.12C319.96 352.12 320.568 351.384 320.568 349.912V337.688C320.568 336.216 319.96 335.48 318.744 335.48C317.528 335.48 316.92 336.216 316.92 337.688V349.912C316.92 351.384 317.528 352.12 318.744 352.12ZM226.888 386.32C225.181 386.32 223.891 385.84 223.016 384.88C222.141 383.899 221.704 382.501 221.704 380.688V379.408H225.032V380.944C225.032 382.395 225.64 383.12 226.856 383.12C227.453 383.12 227.901 382.949 228.2 382.608C228.52 382.245 228.68 381.669 228.68 380.88C228.68 379.941 228.467 379.12 228.04 378.416C227.613 377.691 226.824 376.827 225.672 375.824C224.221 374.544 223.208 373.392 222.632 372.368C222.056 371.323 221.768 370.149 221.768 368.848C221.768 367.077 222.216 365.712 223.112 364.752C224.008 363.771 225.309 363.28 227.016 363.28C228.701 363.28 229.971 363.771 230.824 364.752C231.699 365.712 232.136 367.099 232.136 368.912V369.84H228.808V368.688C228.808 367.92 228.659 367.365 228.36 367.024C228.061 366.661 227.624 366.48 227.048 366.48C225.875 366.48 225.288 367.195 225.288 368.624C225.288 369.435 225.501 370.192 225.928 370.896C226.376 371.6 227.176 372.453 228.328 373.456C229.8 374.736 230.813 375.899 231.368 376.944C231.923 377.989 232.2 379.216 232.2 380.624C232.2 382.459 231.741 383.867 230.824 384.848C229.928 385.829 228.616 386.32 226.888 386.32ZM236.97 366.8H233.29V363.6H244.17V366.8H240.49V386H236.97V366.8ZM250.838 386.32C249.11 386.32 247.787 385.829 246.87 384.848C245.952 383.867 245.493 382.48 245.493 380.688V368.912C245.493 367.12 245.952 365.733 246.87 364.752C247.787 363.771 249.11 363.28 250.838 363.28C252.566 363.28 253.888 363.771 254.806 364.752C255.723 365.733 256.182 367.12 256.182 368.912V380.688C256.182 382.48 255.723 383.867 254.806 384.848C253.888 385.829 252.566 386.32 250.838 386.32ZM250.838 383.12C252.054 383.12 252.661 382.384 252.661 380.912V368.688C252.661 367.216 252.054 366.48 250.838 366.48C249.622 366.48 249.014 367.216 249.014 368.688V380.912C249.014 382.384 249.622 383.12 250.838 383.12ZM263.522 386.32C261.837 386.32 260.546 385.84 259.65 384.88C258.775 383.92 258.338 382.565 258.338 380.816V368.784C258.338 367.035 258.775 365.68 259.65 364.72C260.546 363.76 261.837 363.28 263.522 363.28C265.207 363.28 266.487 363.76 267.362 364.72C268.258 365.68 268.706 367.035 268.706 368.784V371.152H265.378V368.56C265.378 367.173 264.791 366.48 263.618 366.48C262.445 366.48 261.858 367.173 261.858 368.56V381.072C261.858 382.437 262.445 383.12 263.618 383.12C264.791 383.12 265.378 382.437 265.378 381.072V377.648H268.706V380.816C268.706 382.565 268.258 383.92 267.362 384.88C266.487 385.84 265.207 386.32 263.522 386.32ZM270.812 363.6H274.332V373.04L278.812 363.6H282.332L278.14 371.824L282.396 386H278.716L275.74 376.016L274.332 378.864V386H270.812V363.6ZM294.115 368.912H290.435V366.416C291.438 366.416 292.238 366.331 292.835 366.16C293.454 365.989 293.944 365.712 294.307 365.328C294.67 364.923 294.99 364.347 295.267 363.6H297.635V386H294.115V368.912ZM307.088 386.32C305.36 386.32 304.037 385.829 303.12 384.848C302.202 383.867 301.743 382.48 301.743 380.688V368.912C301.743 367.12 302.202 365.733 303.12 364.752C304.037 363.771 305.36 363.28 307.088 363.28C308.816 363.28 310.138 363.771 311.056 364.752C311.973 365.733 312.432 367.12 312.432 368.912V380.688C312.432 382.48 311.973 383.867 311.056 384.848C310.138 385.829 308.816 386.32 307.088 386.32ZM307.088 383.12C308.304 383.12 308.911 382.384 308.911 380.912V368.688C308.911 367.216 308.304 366.48 307.088 366.48C305.872 366.48 305.264 367.216 305.264 368.688V380.912C305.264 382.384 305.872 383.12 307.088 383.12ZM319.9 386.32C318.172 386.32 316.849 385.829 315.932 384.848C315.015 383.867 314.556 382.48 314.556 380.688V368.912C314.556 367.12 315.015 365.733 315.932 364.752C316.849 363.771 318.172 363.28 319.9 363.28C321.628 363.28 322.951 363.771 323.868 364.752C324.785 365.733 325.244 367.12 325.244 368.912V380.688C325.244 382.48 324.785 383.867 323.868 384.848C322.951 385.829 321.628 386.32 319.9 386.32ZM319.9 383.12C321.116 383.12 321.724 382.384 321.724 380.912V368.688C321.724 367.216 321.116 366.48 319.9 366.48C318.684 366.48 318.076 367.216 318.076 368.688V380.912C318.076 382.384 318.684 383.12 319.9 383.12Z" fill="black"/>
</svg>
