<svg width="300" height="300" viewBox="0 0 300 300" fill="none" xmlns="http://www.w3.org/2000/svg">
<rect x="2.5" y="2.5" width="295" height="295" fill="#FDA3F5"/>
<rect x="2.5" y="2.5" width="295" height="295" stroke="black" stroke-width="5"/>
<rect x="5" y="179" width="290" height="116" fill="white"/>
<path d="M101.15 239.65V242.5C103.617 242.6 105.75 242.95 107.55 243.55C109.35 244.117 110.25 244.983 110.25 246.15C110.25 247.183 109.9 248.55 109.2 250.25C108.533 251.95 108.067 252.85 107.8 252.95C105 251.783 102.783 251.133 101.15 251V256.65C108.15 256.917 111.65 260.283 111.65 266.75C111.65 269.783 110.783 272.383 109.05 274.55C107.317 276.717 104.683 277.983 101.15 278.35V281.8C101.15 282.4 100.967 282.8 100.6 283C100.267 283.2 99.9833 283.3 99.75 283.3L99.05 283.1C98.5833 282.833 98.35 282.4 98.35 281.8V278.5C95.55 278.433 93.0667 277.933 90.9 277C88.7667 276.067 87.7 274.883 87.7 273.45C87.7 271.583 88.2667 269.7 89.4 267.8C89.5 267.6 89.6333 267.383 89.8 267.15C92.5 268.783 95.35 269.7 98.35 269.9V264.4C91.25 263.967 87.7 260.333 87.7 253.5C87.7 250.5 88.65 248.033 90.55 246.1C92.45 244.167 95.05 243 98.35 242.6V239.65C98.35 239.05 98.5167 238.65 98.85 238.45C99.2167 238.25 99.5167 238.15 99.75 238.15L100.45 238.35C100.917 238.617 101.15 239.05 101.15 239.65ZM104.7 266.5C104.7 265.733 104.433 265.217 103.9 264.95C103.4 264.65 102.483 264.467 101.15 264.4V269.8C103.517 269.4 104.7 268.3 104.7 266.5ZM95.3 254.05C95.3 255.45 96.3167 256.267 98.35 256.5V251.05C96.3167 251.383 95.3 252.383 95.3 254.05ZM160.863 278H127.663C125.329 278 123.696 275.733 122.763 271.2C122.296 268.733 122.063 266.867 122.063 265.6C122.063 264.333 122.263 263.5 122.663 263.1C137.596 247.7 145.063 237.233 145.063 231.7C145.063 229.833 144.563 228.433 143.563 227.5C142.629 226.567 141.096 226.1 138.963 226.1C136.896 226.1 134.796 226.5 132.663 227.3C130.596 228.1 128.963 228.967 127.763 229.9C125.163 226.767 123.363 223.467 122.363 220C122.029 218.867 121.863 217.833 121.863 216.9C121.863 215.9 122.029 214.967 122.363 214.1C122.896 212.367 125.363 210.733 129.763 209.2C134.229 207.667 138.929 206.9 143.863 206.9C158.796 206.9 166.263 213.533 166.263 226.8C166.263 232.667 164.263 238.633 160.263 244.7C156.263 250.7 151.596 255.9 146.263 260.3L166.463 259.5C166.796 263.033 166.963 266.1 166.963 268.7C166.963 271.3 166.429 273.5 165.363 275.3C164.296 277.1 162.796 278 160.863 278ZM212.802 208C214.068 208 214.702 210.767 214.702 216.3C214.702 218.033 214.535 220.1 214.202 222.5C213.935 224.833 213.402 226 212.602 226H193.102L193.002 233.3H196.302C203.435 233.3 208.735 235.367 212.202 239.5C215.735 243.633 217.502 249.1 217.502 255.9C217.502 262.7 215.102 268.267 210.302 272.6C205.502 276.867 199.335 279 191.802 279C184.268 279 178.768 277.933 175.302 275.8C174.768 274.933 174.502 273.6 174.502 271.8C174.502 269.933 174.768 267.333 175.302 264C175.835 260.6 176.568 258.9 177.502 258.9C177.568 258.9 177.768 259.033 178.102 259.3C182.835 261.233 186.435 262.2 188.902 262.2C191.435 262.2 193.502 261.533 195.102 260.2C196.768 258.8 197.602 257.033 197.602 254.9C197.602 249.567 194.735 246.9 189.002 246.9L180.402 247C179.735 247.133 179.068 246.867 178.402 246.2C177.735 245.467 177.402 244.533 177.402 243.4V212.1C177.402 209.367 178.402 208 180.402 208H212.802ZM254.443 279C246.11 279 239.276 275.933 233.943 269.8C228.676 263.667 226.043 254.7 226.043 242.9C226.043 231.1 228.71 222.2 234.043 216.2C239.376 210.133 246.243 207.1 254.643 207.1C263.11 207.1 269.943 210.1 275.143 216.1C280.343 222.1 282.943 231.133 282.943 243.2C282.943 255.267 280.276 264.267 274.943 270.2C269.676 276.067 262.843 279 254.443 279ZM254.443 226.3C251.91 226.3 249.743 227.767 247.943 230.7C246.21 233.567 245.343 237.667 245.343 243C245.343 248.333 246.176 252.433 247.843 255.3C249.576 258.1 251.776 259.5 254.443 259.5C257.176 259.5 259.376 258.067 261.043 255.2C262.776 252.333 263.643 248.233 263.643 242.9C263.643 237.567 262.743 233.467 260.943 230.6C259.21 227.733 257.043 226.3 254.443 226.3Z" fill="black"/>
<path d="M36.8 98.64L36.88 93.2C36.88 92.8267 37.2667 92.5867 38.04 92.48C38.8133 92.3467 39.4533 92.28 39.96 92.28L41.52 92.4C42.5333 92.56 43.04 92.84 43.04 93.24L42.88 105.76C42.3467 106.133 41.2667 106.507 39.64 106.88C38.04 107.227 36.2 107.4 34.12 107.4C30.2533 107.4 27.1333 106.147 24.76 103.64C22.3867 101.133 21.2 97.4533 21.2 92.6C21.2 88.4667 22.36 85.1067 24.68 82.52C27 79.9333 30.2133 78.64 34.32 78.64C36.1867 78.64 37.8667 78.8267 39.36 79.2C40.88 79.5467 41.92 80.0267 42.48 80.64C42.5067 80.8533 42.52 81.2533 42.52 81.84C42.52 82.4267 42.32 83.2667 41.92 84.36C41.52 85.4267 41.0667 86.2267 40.56 86.76C40.0533 87.2933 39.68 87.56 39.44 87.56C39.2267 87.56 38.9867 87.4667 38.72 87.28C38.48 87.0667 37.9867 86.8533 37.24 86.64C36.4933 86.4 35.7733 86.28 35.08 86.28C33.4267 86.28 32.08 86.8133 31.04 87.88C30.0267 88.9467 29.52 90.6 29.52 92.84C29.52 95.08 30.04 96.7867 31.08 97.96C32.1467 99.1067 33.36 99.68 34.72 99.68C36.1067 99.68 36.8 99.3333 36.8 98.64ZM50.3238 107.08C47.8971 107.08 46.6838 106.813 46.6838 106.28V80.36C46.6838 79.4533 47.0971 79 47.9238 79H54.9638C58.9104 79 61.7504 79.8133 63.4838 81.44C65.2438 83.0667 66.1238 85.4267 66.1238 88.52C66.1238 91.08 65.2971 93.4267 63.6438 95.56C62.8171 96.6267 61.6038 97.48 60.0038 98.12C58.4038 98.76 56.5371 99.08 54.4038 99.08V106.24C54.4038 106.56 53.8971 106.787 52.8838 106.92C51.8971 107.027 51.0438 107.08 50.3238 107.08ZM54.4038 85.96V92.28H54.9238C55.8571 92.28 56.6438 91.9867 57.2838 91.4C57.9238 90.8133 58.2438 89.9867 58.2438 88.92C58.2438 87.8533 58.0171 87.0933 57.5638 86.64C57.1371 86.1867 56.3638 85.96 55.2438 85.96H54.4038ZM82.7363 79.8C82.7363 79.2667 84.1763 79 87.0563 79C89.9629 79 91.4163 79.2667 91.4163 79.8V98.16C91.4163 100.88 90.4429 103.107 88.4963 104.84C86.5496 106.547 83.8563 107.4 80.4163 107.4C77.0029 107.4 74.2163 106.52 72.0563 104.76C69.9229 102.973 68.8563 100.573 68.8563 97.56V79.84C68.8563 79.3067 70.2963 79.04 73.1763 79.04C76.0829 79.04 77.5363 79.3067 77.5363 79.84V97.88C77.5363 98.4133 77.8163 98.84 78.3763 99.16C78.9629 99.48 79.5763 99.64 80.2163 99.64C80.8563 99.64 81.4296 99.4933 81.9363 99.2C82.4696 98.9067 82.7363 98.4667 82.7363 97.88V79.8ZM130.313 107.04C127.939 107.04 126.753 106.773 126.753 106.24L125.913 90.2L121.033 106.44C120.926 106.76 120.019 106.92 118.313 106.92C116.606 106.92 115.726 106.773 115.673 106.48L110.633 90.04L110.073 106C110.046 106.4 109.539 106.68 108.553 106.84C107.566 106.973 106.739 107.04 106.073 107.04C105.433 107.04 104.806 107 104.193 106.92C102.913 106.733 102.286 106.4 102.313 105.92L103.233 79.92C103.233 79.28 104.859 78.96 108.113 78.96C109.073 78.96 110.246 79.04 111.633 79.2C113.019 79.3333 113.793 79.6133 113.953 80.04L118.433 92.64L122.352 80C122.593 79.3067 124.433 78.96 127.873 78.96C128.859 78.96 130.033 79.04 131.393 79.2C132.779 79.3333 133.473 79.5867 133.473 79.96L134.633 106.2C134.633 106.493 134.113 106.707 133.073 106.84C132.033 106.973 131.113 107.04 130.313 107.04ZM140.922 92.48C140.175 91.1467 139.802 90.0667 139.802 89.24C139.802 88.3867 140.028 87.84 140.482 87.6C142.002 86.9333 144.082 86.6 146.722 86.6C149.388 86.6 151.268 87.2267 152.362 88.48C153.455 89.7067 154.002 91.5333 154.002 93.96V100.28H155.362C155.815 100.28 156.162 100.547 156.402 101.08C156.668 101.613 156.802 102.347 156.802 103.28C156.802 104.213 156.562 105.133 156.082 106.04C155.628 106.947 155.002 107.4 154.202 107.4C152.762 107.4 151.602 107.013 150.722 106.24C150.322 105.92 150.015 105.533 149.802 105.08C148.575 106.627 146.668 107.4 144.082 107.4C142.135 107.4 140.495 106.707 139.162 105.32C137.828 103.933 137.162 102.293 137.162 100.4C137.162 96.0533 139.762 93.88 144.962 93.88H147.162V93.48C147.162 92.7867 147.042 92.3467 146.802 92.16C146.588 91.9467 146.068 91.84 145.242 91.84C144.228 91.84 142.788 92.0533 140.922 92.48ZM144.122 99.84C144.122 100.427 144.282 100.88 144.602 101.2C144.922 101.493 145.322 101.64 145.802 101.64C146.308 101.64 146.762 101.44 147.162 101.04V97.96H146.042C144.762 97.96 144.122 98.5867 144.122 99.84ZM159.066 79.32C159.066 78.8933 160.279 78.68 162.706 78.68C164.972 78.76 166.106 78.9333 166.106 79.2V94.56L170.066 87.24C170.252 86.84 171.386 86.64 173.466 86.64C175.546 86.64 176.879 86.7733 177.466 87.04L172.266 95.52L178.266 106.76C178.319 106.867 177.812 106.947 176.746 107C175.706 107.08 174.839 107.12 174.146 107.12C171.586 107.12 170.212 107 170.026 106.76L166.066 97.88V106.72C166.066 107.067 164.892 107.24 162.546 107.24C160.226 107.24 159.066 107.08 159.066 106.76V79.32ZM194.42 105.92C192.74 106.907 190.58 107.4 187.94 107.4C185.3 107.4 183.073 106.507 181.26 104.72C179.447 102.907 178.54 100.413 178.54 97.24C178.54 94.04 179.407 91.4667 181.14 89.52C182.9 87.5733 185.113 86.6 187.78 86.6C190.447 86.6 192.5 87.28 193.94 88.64C195.407 90 196.14 91.6533 196.14 93.6C196.14 97.92 193.66 100.08 188.7 100.08H185.94C185.94 100.88 186.153 101.44 186.58 101.76C187.033 102.053 187.687 102.2 188.54 102.2C190.407 102.2 192.18 101.773 193.86 100.92C193.887 100.893 194.007 101.08 194.22 101.48C194.86 102.627 195.18 103.6 195.18 104.4C195.18 105.173 194.927 105.68 194.42 105.92ZM189.42 94.36C189.42 93.24 188.873 92.68 187.78 92.68C187.273 92.68 186.833 92.84 186.46 93.16C186.113 93.4533 185.94 93.8933 185.94 94.48V95.72H188.1C188.98 95.72 189.42 95.2667 189.42 94.36ZM207.513 106.96C207.513 107.147 206.3 107.24 203.873 107.24C201.446 107.187 200.233 107.08 200.233 106.92V93.64H199.153C198.726 93.64 198.38 93.3867 198.113 92.88C197.873 92.3467 197.753 91.6933 197.753 90.92C197.753 88.04 198.606 86.6 200.313 86.6C201.513 86.6 202.513 86.9733 203.313 87.72C204.113 88.44 204.513 89.2667 204.513 90.2C205.073 89.1067 205.82 88.24 206.753 87.6C207.713 86.9333 208.686 86.6 209.673 86.6C211.22 86.6 212.153 87 212.473 87.8C212.553 88.0133 212.593 88.3333 212.593 88.76C212.593 89.16 212.46 89.8933 212.193 90.96C211.953 92.0267 211.7 92.8 211.433 93.28C211.166 93.76 211.006 94 210.953 94C210.9 94 210.646 93.9067 210.193 93.72C209.766 93.5067 209.38 93.4 209.033 93.4C208.02 93.4 207.513 94.2 207.513 95.8V106.96Z" fill="black"/>
<rect x="22" y="127" width="115" height="31" rx="15.5" stroke="black" stroke-width="4"/>
<path d="M55.72 135.82C56.6933 135.82 57.5467 135.96 58.28 136.24C59.0267 136.507 59.4 136.873 59.4 137.34C59.4 137.807 59.22 138.387 58.86 139.08C58.5133 139.76 58.22 140.1 57.98 140.1C57.9133 140.1 57.8333 140.067 57.74 140C57.66 139.92 57.46 139.84 57.14 139.76C56.8333 139.667 56.5667 139.62 56.34 139.62C55.5667 139.62 54.94 139.893 54.46 140.44C53.9933 140.987 53.76 141.827 53.76 142.96C53.76 144.08 54 144.913 54.48 145.46C54.9733 146.007 55.5933 146.28 56.34 146.28C56.6467 146.28 56.9867 146.24 57.36 146.16C57.7467 146.067 58.02 145.94 58.18 145.78C58.2067 145.753 58.26 145.74 58.34 145.74C58.42 145.74 58.5667 145.893 58.78 146.2C59.0067 146.493 59.2133 146.887 59.4 147.38C59.5867 147.86 59.68 148.233 59.68 148.5C59.68 149.02 59.28 149.433 58.48 149.74C57.68 150.047 56.7333 150.2 55.64 150.2C53.88 150.2 52.4333 149.58 51.3 148.34C50.1667 147.1 49.6 145.353 49.6 143.1C49.6 140.833 50.18 139.053 51.34 137.76C52.5133 136.467 53.9733 135.82 55.72 135.82ZM72.0909 149.66C72.0909 149.887 71.4176 150 70.0709 150C68.7243 150 68.0509 149.887 68.0509 149.66V145.06H65.2509V149.66C65.2509 149.887 64.5776 150 63.2309 150C61.8843 150 61.2109 149.887 61.2109 149.66V136.4C61.2109 136.12 61.8843 135.98 63.2309 135.98C64.5776 135.98 65.2509 136.12 65.2509 136.4V141.1H68.0509V136.44C68.0509 136.253 68.3843 136.12 69.0509 136.04C69.3976 136.013 69.7376 136 70.0709 136L71.0909 136.04C71.7576 136.12 72.0909 136.253 72.0909 136.44V149.66ZM75.402 146.56V139.44H73.982C73.7554 139.44 73.5954 139.153 73.502 138.58C73.462 138.3 73.442 138.013 73.442 137.72C73.442 137.427 73.462 137.14 73.502 136.86C73.5954 136.287 73.7554 136 73.982 136H80.702C80.9287 136 81.082 136.287 81.162 136.86C81.2154 137.14 81.242 137.427 81.242 137.72C81.242 138.013 81.2154 138.3 81.162 138.58C81.082 139.153 80.9287 139.44 80.702 139.44H79.362V146.56H80.762C80.9887 146.56 81.1487 146.847 81.242 147.42C81.2954 147.7 81.322 147.987 81.322 148.28C81.322 148.573 81.2954 148.86 81.242 149.14C81.1487 149.713 80.9887 150 80.762 150H74.022C73.7954 150 73.642 149.713 73.562 149.14C73.5087 148.86 73.482 148.573 73.482 148.28C73.482 147.987 73.5087 147.7 73.562 147.42C73.642 146.847 73.7954 146.56 74.022 146.56H75.402ZM84.3963 150.04C83.1829 150.04 82.5763 149.907 82.5763 149.64V136.68C82.5763 136.227 82.7829 136 83.1963 136H86.7163C88.6896 136 90.1096 136.407 90.9763 137.22C91.8563 138.033 92.2963 139.213 92.2963 140.76C92.2963 142.04 91.8829 143.213 91.0563 144.28C90.6429 144.813 90.0363 145.24 89.2363 145.56C88.4363 145.88 87.5029 146.04 86.4363 146.04V149.62C86.4363 149.78 86.1829 149.893 85.6763 149.96C85.1829 150.013 84.7563 150.04 84.3963 150.04ZM86.4363 139.48V142.64H86.6963C87.1629 142.64 87.5563 142.493 87.8763 142.2C88.1963 141.907 88.3563 141.493 88.3563 140.96C88.3563 140.427 88.2429 140.047 88.0163 139.82C87.8029 139.593 87.4163 139.48 86.8563 139.48H86.4363ZM94.5825 145.12C94.8358 145.32 95.2692 145.593 95.8825 145.94C96.5092 146.287 97.1025 146.46 97.6625 146.46C98.2358 146.46 98.5225 146.24 98.5225 145.8C98.5225 145.6 98.4425 145.427 98.2825 145.28C98.1225 145.12 97.8292 144.94 97.4025 144.74C96.9758 144.54 96.6558 144.387 96.4425 144.28C96.2292 144.16 95.9425 143.973 95.5825 143.72C95.2358 143.453 94.9692 143.18 94.7825 142.9C94.2492 142.14 93.9825 141.173 93.9825 140C93.9825 138.827 94.4158 137.84 95.2825 137.04C96.1625 136.227 97.3092 135.82 98.7225 135.82C99.6825 135.82 100.569 135.927 101.383 136.14C102.196 136.34 102.616 136.607 102.643 136.94C102.643 136.98 102.643 137.02 102.643 137.06C102.643 137.527 102.496 138.12 102.203 138.84C101.909 139.547 101.703 139.94 101.583 140.02C100.729 139.58 99.9625 139.36 99.2825 139.36C98.6158 139.36 98.2825 139.6 98.2825 140.08C98.2825 140.373 98.5292 140.633 99.0225 140.86C99.1292 140.913 99.2825 140.987 99.4825 141.08C99.6825 141.173 99.9092 141.287 100.163 141.42C100.429 141.54 100.709 141.7 101.003 141.9C101.309 142.087 101.636 142.34 101.983 142.66C102.689 143.327 103.043 144.207 103.043 145.3C103.043 146.727 102.649 147.893 101.863 148.8C101.076 149.707 99.8625 150.173 98.2225 150.2C97.4225 150.2 96.6958 150.133 96.0425 150C95.4025 149.867 94.8425 149.607 94.3625 149.22C93.8825 148.833 93.6425 148.367 93.6425 147.82C93.6425 147.273 93.7425 146.733 93.9425 146.2C94.1425 145.653 94.3558 145.293 94.5825 145.12Z" fill="black"/>
<circle cx="169.5" cy="142.5" r="15.5" fill="white" stroke="black" stroke-width="4"/>
<circle cx="214.5" cy="142.5" r="15.5" fill="white" stroke="black" stroke-width="4"/>
<circle cx="258.5" cy="142.5" r="15.5" fill="white" stroke="black" stroke-width="4"/>
</svg>
